{
DisplayStrings = (
ABCSDHMS,
ABCDHMAS
);
classes = (
{
automatic = 1;
code = "A A.alt Aacute Acircumflex Adieresis Agrave Aring Atilde AE B C Ccedilla D Eth E Eacute Ecircumflex Edieresis Egrave F G H Hbar I Iacute Icircumflex Idieresis Igrave J K L M N Ntilde O Oacute Ocircumflex Odieresis Ograve Oslash Otilde OE P Thorn Q Q.alt R R.alt S Germandbls T U Uacute Ucircumflex Udieresis Ugrave V W Wacute Wcircumflex Wdieresis Wgrave X Y Yacute Ycircumflex Ydieresis Ygrave Z Be-cy De-cy Zhe-cy Ef-cy";
name = Uppercase;
}
);
copyright = "Aoife Mooney";
date = "2015-06-25 01:21:12 +0000";
designer = "Aoife Mooney";
designerURL = www.aoifemooney.org;
familyName = "BioRhyme";
featurePrefixes = (
{
automatic = 1;
code = "languagesystem DFLT dflt;\012";
name = Languagesystems;
}
);
features = (
{
code = "sub R by R.alt;\012sub Q by Q.alt;\012\012\012";
name = ss01;
},
{
code = "#alternate exit strokes\012sub a by a.alt;\012sub d by d.alt;\012sub u by u.alt;\012";
name = ss02;
},
{
code = "#stylistic alternates\012sub f by f.alt;\012sub t by t.alt;\012sub a by a.alt2;\012sub g by g.alt;\012sub k by k.alt;\012sub z by z.alt;\012sub x by x.alt;\012\012\012";
name = ss03;
},
{
code = "#numeric alternates\012sub two by two.alt;\012sub seven by seven.alt;\012";
name = ss04;
}
);
fontMaster = (
{
alignmentZones = (
"{775, 16}",
"{520, 11}",
"{357, 11}",
"{0, -11}",
"{-225, -16}"
);
ascender = 775;
capHeight = 520;
descender = -225;
horizontalStems = (
83
);
id = "5072282B-E254-4F9F-BB63-C24552B293A4";
verticalStems = (
99
);
visible = 1;
weight = Bold;
weightValue = 700;
xHeight = 357;
},
{
alignmentZones = (
"{775, 16}",
"{520, 11}",
"{357, 11}",
"{0, -11}",
"{-225, -16}"
);
ascender = 775;
capHeight = 520;
descender = -225;
guideLines = (
{
position = "{102, -95}";
},
{
position = "{256, 29}";
},
{
position = "{360, 511}";
},
{
position = "{408, 357}";
},
{
position = "{383, 35}";
},
{
position = "{400, 370}";
}
);
horizontalStems = (
23
);

glyphs = (
{
color = 4;
glyphname = A;
lastChange = "2015-11-10 19:54:19 +0000";
layers = (
{
anchors = (
{
name = bottom;
position = "{331, 0}";
},
{
name = hook;
position = "{401, 627}";
},
{
name = ogonek;
position = "{634, 10}";
},
{
name = top;
position = "{329, 500}";
}
);
layerId = "5072282B-E254-4F9F-BB63-C24552B293A4";
name = Bold;
paths = (
{
closed = 1;
nodes = (
"152 13 LINE",
"350 470 LINE",
"308 470 LINE",
"505 13 LINE",
"623 13 LINE",
"403 470 LINE SMOOTH",
"254 470 LINE",
"37 13 LINE"
);
},
{
closed = 1;
nodes = (
"259 0 LINE",
"259 83 LINE",
"0 83 LINE",
"0 0 LINE"
);
},
{
closed = 1;
nodes = (
"462 177 LINE",
"445 252 LINE",
"212 252 LINE",
"194 177 LINE"
);
},
{
closed = 1;
nodes = (
"659 0 LINE",
"659 83 LINE",
"401 83 LINE",
"401 0 LINE"
);
},
{
closed = 1;
nodes = (
"483 437 LINE",
"483 520 LINE",
"173 520 LINE",
"173 437 LINE"
);
}
);
width = 660;
},
{
anchors = (
{
name = bottom;
position = "{334, 0}";
},
{
name = hook;
position = "{410, 580}";
},
{
name = ogonek;
position = "{573, 13}";
}
);
layerId = "751C6B1B-F263-4325-91C2-F6642B60D73C";
name = SemiLight;
paths = (
{
closed = 1;
nodes = (
"478 203 LINE",
"461 226 LINE",
"195 226 LINE",
"177 203 LINE"
);
},
{
closed = 1;
nodes = (
"317 491 LINE",
"541 35 LINE",
"570 35 LINE",
"340 501 LINE",
"324 501 LINE"
);
},
{
closed = 1;
nodes = (
"337 501 LINE",
"321 501 LINE",
"91 35 LINE",
"117 35 LINE",
"343 492 LINE"
);
}
);
width = 660;
}
);
leftKerningGroup = A;
rightKerningGroup = A;
unicode = 0041;
},
{
color = 10;
glyphname = A.alt;
lastChange = "2015-11-10 19:21:47 +0000";
layers = (
{
anchors = (
{
name = bottom;
position = "{340, 0}";
},
{
name = ogonek;
position = "{647, 10}";
},
{
name = top;
position = "{340, 495}";
}
);
layerId = "5072282B-E254-4F9F-BB63-C24552B293A4";
name = Bold;
paths = (
{
closed = 1;
nodes = (
"313 530 LINE",
"46 13 LINE",
"157 13 LINE",
"362 447 LINE",
"313 447 LINE",
"518 13 LINE",
"635 13 LINE",
"368 530 LINE"
);
},
{
closed = 1;
nodes = (
"680 0 LINE",
"680 83 LINE",
"413 83 LINE",
"413 0 LINE"
);
},
{
closed = 1;
nodes = (
"267 0 LINE",
"267 83 LINE",
"0 83 LINE",
"0 0 LINE"
);
},
{
closed = 1;
nodes = (
"453 240 LINE",
"224 240 LINE",
"207 165 LINE",
"470 165 LINE"
);
}
);
width = 680;
},
{
anchors = (
{
name = bottom;
position = "{337, 0}";
},
{
name = ogonek;
position = "{644, 10}";
},
{
name = top;
position = "{337, 530}";
}
);
layerId = "751C6B1B-F263-4325-91C2-F6642B60D73C";
name = SemiLight;
paths = (
{
closed = 1;
nodes = (
"333 530 LINE",
"100 13 LINE",
"125 13 LINE",
"341 496 LINE",
"331 496 LINE",
"547 13 LINE",
"574 13 LINE",
"339 530 LINE"
);
},
{
closed = 1;
nodes = (
"673 0 LINE",
"673 23 LINE",
"426 23 LINE",
"426 0 LINE"
);
},
{
closed = 1;
nodes = (
"247 0 LINE",
"247 23 LINE",
"0 23 LINE",
"0 0 LINE"
);
},
{
closed = 1;
nodes = (
"466 205 LINE",
"204 205 LINE",
"187 182 LINE",
"483 182 LINE"
);
}
);
width = 673;
}
);
leftKerningGroup = A.alt;
rightKerningGroup = A.alt;
},
{
color = 10;
glyphname = AE;
lastChange = "2015-11-10 19:21:47 +0000";
layers = (
{
anchors = (
{
name = bottom;
position = "{457, 0}";
},
{
name = ogonek;
position = "{843, 0}";
},
{
name = top;
position = "{458, 520}";
}
);
layerId = "5072282B-E254-4F9F-BB63-C24552B293A4";
name = Bold;
paths = (
{
closed = 1;
nodes = (
"116 13 LINE",
"393 470 LINE",
"347 470 LINE",
"464 13 LINE",
"570 13 LINE",
"446 470 LINE SMOOTH",
"291 470 LINE",
"1 13 LINE"
);
},
{
closed = 1;
nodes = (
"225 0 LINE",
"225 83 LINE",
"-15 83 LINE",
"-15 0 LINE"
);
},
{
closed = 1;
nodes = (
"486 177 LINE",
"469 252 LINE",
"197 252 LINE",
"179 177 LINE"
);
},
{
closed = 1;
nodes = (
"843 0 LINE",
"843 183 LINE",
"750 183 LINE",
"750 83 LINE",
"355 83 LINE",
"355 0 LINE"
);
},
{
closed = 1;
nodes = (
"676 156 LINE",
"676 359 LINE",
"593 359 LINE",
"593 299 LINE",
"435 299 LINE",
"435 216 LINE",
"593 216 LINE",
"593 156 LINE"
);
},
{
closed = 1;
nodes = (
"843 341 LINE",
"843 520 LINE",
"210 520 LINE",
"210 437 LINE",
"750 437 LINE",
"750 341 LINE"
);
}
);
width = 898;
},
{
anchors = (
{
name = bottom;
position = "{512, 0}";
},
{
name = ogonek;
position = "{880, 0}";
},
{
name = top;
position = "{513, 520}";
}
);
layerId = "751C6B1B-F263-4325-91C2-F6642B60D73C";
name = SemiLight;
paths = (
{
closed = 1;
nodes = (
"125 13 LINE",
"434 501 LINE",
"434 501 LINE",
"565 13 LINE",
"593 13 LINE",
"455 510 LINE SMOOTH",
"413 510 LINE",
"98 13 LINE"
);
},
{
closed = 1;
nodes = (
"229 0 LINE",
"229 23 LINE",
"0 23 LINE",
"0 0 LINE"
);
},
{
closed = 1;
nodes = (
"525 198 LINE",
"508 221 LINE",
"242 221 LINE",
"224 198 LINE"
);
},
{
closed = 1;
nodes = (
"880 0 LINE",
"880 136 LINE",
"856 136 LINE",
"856 23 LINE",
"464 23 LINE",
"464 0 LINE"
);
},
{
closed = 1;
nodes = (
"724 178 LINE",
"724 367 LINE",
"699 367 LINE",
"699 284 LINE",
"508 284 LINE",
"508 261 LINE",
"699 261 LINE",
"699 178 LINE"
);
},
{
closed = 1;
nodes = (
"880 384 LINE",
"880 520 LINE",
"302 520 LINE",
"302 497 LINE",
"855 497 LINE",
"855 384 LINE"
);
}
);
width = 940;
}
);
leftKerningGroup = A;
rightKerningGroup = E;
rightMetricsKey = "=E";
unicode = 00C6;
},
{
color = 4;
glyphname = B;
lastChange = "2015-11-10 19:23:23 +0000";
layers = (
{
anchors = (
{
name = bottom;
position = "{274, 0}";
},
{
name = top;
position = "{274, 520}";
}
);
layerId = "5072282B-E254-4F9F-BB63-C24552B293A4";
name = Bold;
paths = (
{
closed = 1;
nodes = (
"352 0 LINE SMOOTH",
"484 0 OFFCURVE",
"555 53 OFFCURVE",
"555 145 CURVE SMOOTH",
"555 262 OFFCURVE",
"435 284 OFFCURVE",
"340 284 CURVE",
"340 244 LINE",
"415 244 OFFCURVE",
"515 284 OFFCURVE",
"515 381 CURVE SMOOTH",
"515 462 OFFCURVE",
"455 520 OFFCURVE",
"337 520 CURVE SMOOTH",
"26 520 LINE",
"26 437 LINE",
"331 437 LINE SMOOTH",
"369 437 OFFCURVE",
"411 421 OFFCURVE",
"411 368 CURVE SMOOTH",
"411 317 OFFCURVE",
"371 298 OFFCURVE",
"312 298 CURVE SMOOTH",
"185 298 LINE",
"185 222 LINE",
"349 222 LINE SMOOTH",
"413 222 OFFCURVE",
"450 202 OFFCURVE",
"450 153 CURVE SMOOTH",
"450 102 OFFCURVE",
"409 83 OFFCURVE",
"343 83 CURVE SMOOTH",
"26 83 LINE",
"26 0 LINE"
);
},
{
closed = 1;
nodes = (
"221 46 LINE",
"221 472 LINE",
"116 472 LINE",
"116 46 LINE"
);
}
);
width = 574;
},
{
anchors = (
{
name = bottom;
position = "{282, 0}";
},
{
name = top;
position = "{282, 490}";
}
);
layerId = "751C6B1B-F263-4325-91C2-F6642B60D73C";
name = SemiLight;
paths = (
{
closed = 1;
nodes = (
"334 34 LINE SMOOTH",
"439 34 OFFCURVE",
"507 79 OFFCURVE",
"507 150 CURVE SMOOTH",
"507 224 OFFCURVE",
"439 265 OFFCURVE",
"324 265 CURVE",
"324 257 LINE",
"409 257 OFFCURVE",
"468 301 OFFCURVE",
"468 372 CURVE SMOOTH",
"468 445 OFFCURVE",
"409 486 OFFCURVE",
"304 486 CURVE SMOOTH",
"158 486 LINE",
"158 463 LINE",
"304 463 LINE SMOOTH",
"393 463 OFFCURVE",
"443 430 OFFCURVE",
"443 372 CURVE SMOOTH",
"443 312 OFFCURVE",
"392 273 OFFCURVE",
"321 273 CURVE SMOOTH",
"174 273 LINE",
"174 250 LINE",
"316 249 LINE SMOOTH",
"420 248 OFFCURVE",
"482 213 OFFCURVE",
"482 151 CURVE SMOOTH",
"482 94 OFFCURVE",
"423 57 OFFCURVE",
"334 57 CURVE SMOOTH",
"158 57 LINE",
"158 34 LINE"
);
},
{
closed = 1;
nodes = (
"183 48 LINE",
"183 474 LINE",
"158 474 LINE",
"158 48 LINE"
);
}
);
width = 574;
}
);
leftKerningGroup = H;
leftMetricsKey = "=H";
rightKerningGroup = B;
unicode = 0042;
},
{
color = 4;
glyphname = C;
lastChange = "2015-11-10 19:55:05 +0000";
layers = (
{
anchors = (
{
name = bottom;
position = "{303, -10}";
},
{
name = top;
position = "{303, 530}";
}
);
layerId = "5072282B-E254-4F9F-BB63-C24552B293A4";
name = Bold;
paths = (
{
closed = 1;
nodes = (
"419 -10 OFFCURVE",
"497 43 OFFCURVE",
"547 118 CURVE",
"480 174 LINE",
"440 116 OFFCURVE",
"392 76 OFFCURVE",
"308 76 CURVE SMOOTH",
"214 76 OFFCURVE",
"139 154 OFFCURVE",
"139 260 CURVE SMOOTH",
"139 378 OFFCURVE",
"219 448 OFFCURVE",
"314 448 CURVE SMOOTH",
"396 448 OFFCURVE",
"447 398 OFFCURVE",
"476 337 CURVE",
"544 341 LINE",
"544 520 LINE",
"450 520 LINE",
"450 412 LINE",
"497 398 LINE",
"460 477 OFFCURVE",
"394 530 OFFCURVE",
"294 530 CURVE SMOOTH",
"153 530 OFFCURVE",
"30 413 OFFCURVE",
"30 258 CURVE SMOOTH",
"30 105 OFFCURVE",
"151 -10 OFFCURVE",
"308 -10 CURVE SMOOTH"
);
}
);
width = 577;
},
{
anchors = (
{
name = bottom;
position = "{299, -10}";
},
{
name = top;
position = "{299, 510}";
}
);
layerId = "751C6B1B-F263-4325-91C2-F6642B60D73C";
name = SemiLight;
paths = (
{
closed = 1;
nodes = (
"474 114 LINE",
"437 74 OFFCURVE",
"384 42 OFFCURVE",
"308 42 CURVE SMOOTH",
"190 42 OFFCURVE",
"97 138 OFFCURVE",
"97 260 CURVE SMOOTH",
"97 382 OFFCURVE",
"187 478 OFFCURVE",
"301 478 CURVE SMOOTH",
"367 478 OFFCURVE",
"418 459 OFFCURVE",
"462 419 CURVE",
"477 436 LINE",
"434 476 OFFCURVE",
"376 501 OFFCURVE",
"306 501 CURVE SMOOTH",
"173 501 OFFCURVE",
"72 395 OFFCURVE",
"72 260 CURVE SMOOTH",
"72 125 OFFCURVE",
"176 19 OFFCURVE",
"308 19 CURVE SMOOTH",
"390 19 OFFCURVE",
"449 53 OFFCURVE",
"490 97 CURVE"
);
}
);
width = 577;
}
);
leftKerningGroup = O;
leftMetricsKey = "=O";
rightKerningGroup = C;
unicode = 0043;
},
{
color = 4;
glyphname = D;
lastChange = "2015-11-10 19:23:34 +0000";
layers = (
{
anchors = (
{
name = bottom;
position = "{297, 0}";
},
{
name = center;
position = "{297, 260}";
},
{
name = top;
position = "{297, 520}";
}
);
layerId = "5072282B-E254-4F9F-BB63-C24552B293A4";
name = Bold;
paths = (
{
closed = 1;
nodes = (
"304 0 LINE",
"454 0 OFFCURVE",
"605 78 OFFCURVE",
"605 260 CURVE",
"605 442 OFFCURVE",
"454 520 OFFCURVE",
"304 520 CURVE",
"26 520 LINE",
"26 437 LINE",
"289 437 LINE",
"382 437 OFFCURVE",
"496 404 OFFCURVE",
"496 260 CURVE",
"496 116 OFFCURVE",
"382 84 OFFCURVE",
"289 84 CURVE",
"26 84 LINE",
"26 0 LINE"
);
},
{
closed = 1;
nodes = (
"221 48 LINE",
"221 472 LINE",
"116 472 LINE",
"116 48 LINE"
);
}
);
width = 634;
},
{
anchors = (
{
name = bottom;
position = "{283, 0}";
},
{
name = center;
position = "{283, 245}";
},
{
name = top;
position = "{283, 490}";
}
);
layerId = "751C6B1B-F263-4325-91C2-F6642B60D73C";
name = SemiLight;
paths = (
{
closed = 1;
nodes = (
"278 35 LINE",
"455 35 OFFCURVE",
"563 121 OFFCURVE",
"563 260 CURVE",
"563 399 OFFCURVE",
"455 485 OFFCURVE",
"278 485 CURVE",
"158 485 LINE",
"158 462 LINE",
"278 462 LINE",
"439 462 OFFCURVE",
"538 384 OFFCURVE",
"538 260 CURVE",
"538 136 OFFCURVE",
"439 58 OFFCURVE",
"278 58 CURVE",
"158 58 LINE",
"158 35 LINE"
);
},
{
closed = 1;
nodes = (
"183 48 LINE",
"183 472 LINE",
"158 472 LINE",
"158 48 LINE"
);
}
);
width = 634;
}
);
leftKerningGroup = H;
leftMetricsKey = "=H";
rightKerningGroup = O;
rightMetricsKey = "=O";
unicode = 0044;
},
{
color = 10;
glyphname = E;
lastChange = "2015-11-10 19:21:47 +0000";
layers = (
{
anchors = (
{
name = bottom;
position = "{297, 0}";
},
{
name = ogonek;
position = "{561, 0}";
},
{
name = top;
position = "{297, 520}";
}
);
layerId = "5072282B-E254-4F9F-BB63-C24552B293A4";
name = Bold;
paths = (
{
closed = 1;
nodes = (
"554 0 LINE",
"554 183 LINE",
"461 183 LINE",
"461 83 LINE",
"26 83 LINE",
"26 0 LINE"
);
},
{
closed = 1;
nodes = (
"219 46 LINE",
"219 467 LINE",
"115 467 LINE",
"115 46 LINE"
);
},
{
closed = 1;
nodes = (
"357 216 LINE",
"357 299 LINE",
"155 299 LINE",
"155 216 LINE"
);
},
{
closed = 1;
nodes = (
"392 156 LINE",
"392 359 LINE",
"309 359 LINE",
"309 156 LINE"
);
},
{
closed = 1;
nodes = (
"554 337 LINE",
"554 520 LINE",
"26 520 LINE",
"26 437 LINE",
"461 437 LINE",
"461 337 LINE"
);
}
);
width = 610;
},
{
anchors = (
{
name = bottom;
position = "{307, 10}";
},
{
name = ogonek;
position = "{505, 10}";
},
{
name = top;
position = "{307, 490}";
}
);
background = {
paths = (
{
closed = 1;
nodes = (
"796 0 LINE",
"796 184 LINE",
"779 184 LINE",
"779 23 LINE",
"204 23 LINE",
"204 0 LINE"
);
},
{
closed = 1;
nodes = (
"591 258 LINE",
"591 281 LINE",
"353 281 LINE",
"353 258 LINE"
);
},
{
closed = 1;
nodes = (
"601 145 LINE",
"601 382 LINE",
"583 382 LINE",
"583 145 LINE"
);
},
{
closed = 1;
nodes = (
"778 491 LINE",
"778 333 LINE",
"796 333 LINE",
"796 514 LINE",
"204 514 LINE",
"204 491 LINE"
);
},
{
closed = 1;
nodes = (
"356 13 LINE",
"356 501 LINE",
"338 501 LINE",
"338 13 LINE"
);
}
);
};
layerId = "751C6B1B-F263-4325-91C2-F6642B60D73C";
name = SemiLight;
paths = (
{
closed = 1;
nodes = (
"517 0 LINE",
"517 136 LINE",
"493 136 LINE",
"493 23 LINE",
"30 23 LINE",
"30 0 LINE"
);
},
{
closed = 1;
nodes = (
"168 13 LINE",
"168 507 LINE",
"143 507 LINE",
"143 13 LINE"
);
},
{
closed = 1;
nodes = (
"348 261 LINE",
"348 284 LINE",
"165 284 LINE",
"165 261 LINE"
);
},
{
closed = 1;
nodes = (
"361 178 LINE",
"361 367 LINE",
"336 367 LINE",
"336 178 LINE"
);
},
{
closed = 1;
nodes = (
"517 384 LINE",
"517 520 LINE",
"30 520 LINE",
"30 497 LINE",
"492 497 LINE",
"492 384 LINE"
);
}
);
width = 577;
}
);
leftKerningGroup = H;
leftMetricsKey = "=H";
rightKerningGroup = E;
unicode = 0045;
},
{
color = 10;
glyphname = F;
lastChange = "2015-11-10 19:21:47 +0000";
layers = (
{
anchors = (
{
name = bottom;
position = "{300, 0}";
},
{
name = top;
position = "{300, 520}";
}
);
layerId = "5072282B-E254-4F9F-BB63-C24552B293A4";
name = Bold;
paths = (
{
closed = 1;
nodes = (
"553 332 LINE",
"553 520 LINE",
"26 520 LINE",
"26 437 LINE",
"460 437 LINE",
"460 332 LINE"
);
},
{
closed = 1;
nodes = (
"315 0 LINE",
"315 83 LINE",
"26 83 LINE",
"26 0 LINE"
);
},
{
closed = 1;
nodes = (
"220 46 LINE",
"220 472 LINE",
"116 472 LINE",
"116 46 LINE"
);
},
{
closed = 1;
nodes = (
"356 211 LINE",
"356 294 LINE",
"156 294 LINE",
"156 211 LINE"
);
},
{
closed = 1;
nodes = (
"391 151 LINE",
"391 354 LINE",
"308 354 LINE",
"308 151 LINE"
);
}
);
width = 562;
},
{
anchors = (
{
name = bottom;
position = "{280, 0}";
},
{
name = top;
position = "{280, 490}";
}
);
layerId = "751C6B1B-F263-4325-91C2-F6642B60D73C";
name = SemiLight;
paths = (
{
closed = 1;
nodes = (
"537 384 LINE",
"537 520 LINE",
"30 520 LINE",
"30 497 LINE",
"512 497 LINE",
"512 384 LINE"
);
},
{
closed = 1;
nodes = (
"286 0 LINE",
"286 23 LINE",
"30 23 LINE",
"30 0 LINE"
);
},
{
closed = 1;
nodes = (
"168 13 LINE",
"168 507 LINE",
"143 507 LINE",
"143 13 LINE"
);
},
{
closed = 1;
nodes = (
"368 241 LINE",
"368 264 LINE",
"165 264 LINE",
"165 241 LINE"
);
},
{
closed = 1;
nodes = (
"381 158 LINE",
"381 347 LINE",
"356 347 LINE",
"356 158 LINE"
);
}
);
width = 542;
}
);
leftKerningGroup = H;
leftMetricsKey = "=H";
rightKerningGroup = F;
unicode = 0046;
},
{
color = 10;
glyphname = G;
lastChange = "2015-11-10 19:21:47 +0000";
layers = (
{
anchors = (
{
name = bottom;
position = "{309, -10}";
},
{
name = top;
position = "{309, 530}";
}
);
layerId = "5072282B-E254-4F9F-BB63-C24552B293A4";
name = Bold;
paths = (
{
closed = 1;
nodes = (
"463 -11 OFFCURVE",
"570 103 OFFCURVE",
"570 249 CURVE SMOOTH",
"570 275 LINE",
"274 275 LINE",
"274 192 LINE",
"462 192 LINE",
"455 131 OFFCURVE",
"399 72 OFFCURVE",
"309 72 CURVE SMOOTH",
"214 72 OFFCURVE",
"139 153 OFFCURVE",
"139 260 CURVE SMOOTH",
"139 367 OFFCURVE",
"217 448 OFFCURVE",
"314 448 CURVE SMOOTH",
"398 448 OFFCURVE",
"455 398 OFFCURVE",
"484 347 CURVE",
"552 351 LINE",
"552 520 LINE",
"458 520 LINE",
"458 422 LINE",
"505 408 LINE",
"467 477 OFFCURVE",
"393 530 OFFCURVE",
"288 530 CURVE SMOOTH",
"145 530 OFFCURVE",
"30 414 OFFCURVE",
"30 260 CURVE SMOOTH",
"30 105 OFFCURVE",
"151 -11 OFFCURVE",
"305 -11 CURVE SMOOTH"
);
}
);
width = 607;
},
{
anchors = (
{
name = bottom;
position = "{299, -10}";
},
{
name = top;
position = "{299, 530}";
}
);
background = {
paths = (
{
closed = 1;
nodes = (
"442 -11 OFFCURVE",
"534 95 OFFCURVE",
"534 245 CURVE SMOOTH",
"534 254 LINE",
"282 254 LINE",
"282 231 LINE",
"509 231 LINE",
"507 113 OFFCURVE",
"435 12 OFFCURVE",
"301 12 CURVE SMOOTH",
"174 12 OFFCURVE",
"75 111 OFFCURVE",
"75 260 CURVE SMOOTH",
"75 409 OFFCURVE",
"179 507 OFFCURVE",
"301 507 CURVE SMOOTH",
"408 507 OFFCURVE",
"469 454 OFFCURVE",
"509 370 CURVE",
"521 371 LINE",
"521 520 LINE",
"498 520 LINE",
"498 413 LINE",
"501 419 LINE",
"470 476 OFFCURVE",
"405 530 OFFCURVE",
"301 530 CURVE SMOOTH",
"171 530 OFFCURVE",
"50 427 OFFCURVE",
"50 260 CURVE SMOOTH",
"50 93 OFFCURVE",
"164 -11 OFFCURVE",
"301 -11 CURVE SMOOTH"
);
}
);
};
layerId = "751C6B1B-F263-4325-91C2-F6642B60D73C";
name = SemiLight;
paths = (
{
closed = 1;
nodes = (
"442 -11 OFFCURVE",
"534 95 OFFCURVE",
"534 235 CURVE SMOOTH",
"534 244 LINE",
"282 244 LINE",
"282 221 LINE",
"509 221 LINE",
"507 113 OFFCURVE",
"435 12 OFFCURVE",
"301 12 CURVE SMOOTH",
"174 12 OFFCURVE",
"75 111 OFFCURVE",
"75 260 CURVE SMOOTH",
"75 409 OFFCURVE",
"179 507 OFFCURVE",
"301 507 CURVE SMOOTH",
"408 507 OFFCURVE",
"469 454 OFFCURVE",
"509 370 CURVE",
"521 371 LINE",
"521 520 LINE",
"498 520 LINE",
"498 413 LINE",
"507 413 LINE",
"485 458 OFFCURVE",
"415 530 OFFCURVE",
"301 530 CURVE SMOOTH",
"171 530 OFFCURVE",
"50 427 OFFCURVE",
"50 260 CURVE SMOOTH",
"50 93 OFFCURVE",
"164 -11 OFFCURVE",
"301 -11 CURVE SMOOTH"
);
}
);
width = 584;
}
);
leftKerningGroup = O;
leftMetricsKey = "=O";
rightKerningGroup = G;
unicode = 0047;
},
{
color = 4;
glyphname = H;
lastChange = "2015-11-10 19:53:55 +0000";
layers = (
{
anchors = (
{
name = bottom;
position = "{358, 0}";
},
{
name = center;
position = "{358, 255}";
},
{
name = top;
position = "{358, 520}";
}
);
layerId = "5072282B-E254-4F9F-BB63-C24552B293A4";
name = Bold;
paths = (
{
closed = 1;
nodes = (
"569 223 LINE",
"569 306 LINE",
"151 306 LINE",
"151 223 LINE"
);
},
{
closed = 1;
nodes = (
"310 0 LINE",
"310 83 LINE",
"26 83 LINE",
"26 0 LINE"
);
},
{
closed = 1;
nodes = (
"221 46 LINE",
"221 472 LINE",
"116 472 LINE",
"116 46 LINE"
);
},
{
closed = 1;
nodes = (
"310 437 LINE",
"310 520 LINE",
"26 520 LINE",
"26 437 LINE"
);
},
{
closed = 1;
nodes = (
"693 0 LINE",
"693 83 LINE",
"409 83 LINE",
"409 0 LINE"
);
},
{
closed = 1;
nodes = (
"603 48 LINE",
"603 475 LINE",
"498 475 LINE",
"498 48 LINE"
);
},
{
closed = 1;
nodes = (
"693 437 LINE",
"693 520 LINE",
"409 520 LINE",
"409 437 LINE"
);
}
);
width = 718;
},
{
anchors = (
{
name = bottom;
position = "{360, 0}";
},
{
name = center;
position = "{360, 245}";
},
{
name = top;
position = "{360, 490}";
}
);
layerId = "751C6B1B-F263-4325-91C2-F6642B60D73C";
name = SemiLight;
paths = (
{
closed = 1;
nodes = (
"543 252 LINE",
"543 275 LINE",
"178 275 LINE",
"178 252 LINE"
);
},
{
closed = 1;
nodes = (
"183 35 LINE",
"183 485 LINE",
"159 485 LINE",
"159 35 LINE"
);
},
{
closed = 1;
nodes = (
"562 35 LINE",
"562 485 LINE",
"537 485 LINE",
"537 35 LINE"
);
}
);
width = 718;
}
);
leftKerningGroup = H;
rightKerningGroup = H;
unicode = 0048;
},
{
color = 10;
glyphname = Hbar;
lastChange = "2015-11-10 19:21:47 +0000";
layers = (
{
anchors = (
{
name = bottom;
position = "{359, 0}";
},
{
name = center;
position = "{359, 255}";
},
{
name = top;
position = "{359, 520}";
}
);
layerId = "5072282B-E254-4F9F-BB63-C24552B293A4";
name = Bold;
paths = (
{
closed = 1;
nodes = (
"669 318 LINE",
"669 391 LINE",
"51 391 LINE",
"51 318 LINE"
);
},
{
closed = 1;
nodes = (
"310 0 LINE",
"310 83 LINE",
"26 83 LINE",
"26 0 LINE"
);
},
{
closed = 1;
nodes = (
"220 46 LINE",
"220 472 LINE",
"116 472 LINE",
"116 46 LINE"
);
},
{
closed = 1;
nodes = (
"693 0 LINE",
"693 83 LINE",
"408 83 LINE",
"408 0 LINE"
);
},
{
closed = 1;
nodes = (
"569 198 LINE",
"569 273 LINE",
"151 273 LINE",
"151 198 LINE"
);
},
{
closed = 1;
nodes = (
"310 437 LINE",
"310 520 LINE",
"26 520 LINE",
"26 437 LINE"
);
},
{
closed = 1;
nodes = (
"603 48 LINE",
"603 475 LINE",
"498 475 LINE",
"498 48 LINE"
);
},
{
closed = 1;
nodes = (
"693 437 LINE",
"693 520 LINE",
"408 520 LINE",
"408 437 LINE"
);
}
);
width = 719;
},
{
anchors = (
{
name = bottom;
position = "{371, 0}";
},
{
name = center;
position = "{371, 255}";
},
{
name = top;
position = "{371, 520}";
}
);
layerId = "751C6B1B-F263-4325-91C2-F6642B60D73C";
name = SemiLight;
paths = (
{
closed = 1;
nodes = (
"668 365 LINE",
"668 387 LINE",
"58 387 LINE",
"58 365 LINE"
);
},
{
closed = 1;
nodes = (
"280 0 LINE",
"280 23 LINE",
"30 23 LINE",
"30 0 LINE"
);
},
{
closed = 1;
nodes = (
"167 13 LINE",
"167 509 LINE",
"143 509 LINE",
"143 13 LINE"
);
},
{
closed = 1;
nodes = (
"690 0 LINE",
"690 23 LINE",
"439 23 LINE",
"439 0 LINE"
);
},
{
closed = 1;
nodes = (
"558 238 LINE",
"558 261 LINE",
"162 261 LINE",
"162 238 LINE"
);
},
{
closed = 1;
nodes = (
"280 497 LINE",
"280 520 LINE",
"30 520 LINE",
"30 497 LINE"
);
},
{
closed = 1;
nodes = (
"577 13 LINE",
"577 509 LINE",
"552 509 LINE",
"552 13 LINE"
);
},
{
closed = 1;
nodes = (
"690 497 LINE",
"690 520 LINE",
"439 520 LINE",
"439 497 LINE"
);
}
);
width = 720;
}
);
leftKerningGroup = H;
leftMetricsKey = "=H";
rightKerningGroup = H;
rightMetricsKey = "=H";
unicode = 0126;
},
{
color = 10;
glyphname = I;
lastChange = "2015-11-10 19:21:47 +0000";
layers = (
{
anchors = (
{
name = bottom;
position = "{169, 0}";
},
{
name = ogonek;
position = "{289, 0}";
},
{
name = top;
position = "{169, 520}";
}
);
layerId = "5072282B-E254-4F9F-BB63-C24552B293A4";
name = Bold;
paths = (
{
closed = 1;
nodes = (
"221 49 LINE",
"221 472 LINE",
"116 472 LINE",
"116 49 LINE"
);
},
{
closed = 1;
nodes = (
"311 0 LINE",
"311 83 LINE",
"26 83 LINE",
"26 0 LINE"
);
},
{
closed = 1;
nodes = (
"311 437 LINE",
"311 520 LINE",
"26 520 LINE",
"26 437 LINE"
);
}
);
width = 337;
},
{
anchors = (
{
name = bottom;
position = "{152, 0}";
},
{
name = ogonek;
position = "{280, 0}";
},
{
name = top;
position = "{152, 490}";
}
);
layerId = "751C6B1B-F263-4325-91C2-F6642B60D73C";
name = SemiLight;
paths = (
{
closed = 1;
nodes = (
"168 13 LINE",
"168 509 LINE",
"143 509 LINE",
"143 13 LINE"
);
},
{
closed = 1;
nodes = (
"281 0 LINE",
"281 23 LINE",
"30 23 LINE",
"30 0 LINE"
);
},
{
closed = 1;
nodes = (
"281 497 LINE",
"281 520 LINE",
"30 520 LINE",
"30 497 LINE"
);
}
);
width = 311;
}
);
leftKerningGroup = H;
leftMetricsKey = "=H";
rightKerningGroup = H;
rightMetricsKey = "=H";
unicode = 0049;
},
{
color = 10;
glyphname = J;
lastChange = "2015-11-10 19:21:47 +0000";
layers = (
{
anchors = (
{
name = bottom;
position = "{161, -10}";
},
{
name = top;
position = "{281, 520}";
}
);
layerId = "5072282B-E254-4F9F-BB63-C24552B293A4";
name = Bold;
paths = (
{
closed = 1;
nodes = (
"260 -10 OFFCURVE",
"343 62 OFFCURVE",
"343 177 CURVE SMOOTH",
"343 475 LINE",
"239 475 LINE",
"240 183 LINE SMOOTH",
"240 114 OFFCURVE",
"202 79 OFFCURVE",
"155 77 CURVE SMOOTH",
"115 76 OFFCURVE",
"79 98 OFFCURVE",
"53 120 CURVE",
"7 43 LINE",
"40 16 OFFCURVE",
"93 -10 OFFCURVE",
"160 -10 CURVE SMOOTH"
);
},
{
closed = 1;
nodes = (
"433 437 LINE",
"433 520 LINE",
"108 520 LINE",
"108 437 LINE"
);
}
);
width = 439;
},
{
anchors = (
{
name = bottom;
position = "{173, 0}";
},
{
name = top;
position = "{173, 520}";
}
);
layerId = "751C6B1B-F263-4325-91C2-F6642B60D73C";
name = SemiLight;
paths = (
{
closed = 1;
nodes = (
"267 -10 OFFCURVE",
"332 54 OFFCURVE",
"332 169 CURVE SMOOTH",
"332 507 LINE",
"306 507 LINE",
"306 164 LINE SMOOTH",
"306 64 OFFCURVE",
"250 13 OFFCURVE",
"174 13 CURVE SMOOTH",
"107 13 OFFCURVE",
"54 46 OFFCURVE",
"20 73 CURVE",
"5 53 LINE",
"43 24 OFFCURVE",
"100 -10 OFFCURVE",
"174 -10 CURVE SMOOTH"
);
},
{
closed = 1;
nodes = (
"445 497 LINE",
"445 520 LINE",
"162 520 LINE",
"162 497 LINE"
);
}
);
width = 450;
}
);
leftKerningGroup = J;
rightKerningGroup = U;
rightMetricsKey = "=U";
unicode = 004A;
},
{
color = 10;
glyphname = K;
lastChange = "2015-11-10 19:21:47 +0000";
layers = (
{
anchors = (
{
name = bottom;
position = "{357, 0}";
},
{
name = top;
position = "{357, 520}";
}
);
layerId = "5072282B-E254-4F9F-BB63-C24552B293A4";
name = Bold;
paths = (
{
closed = 1;
nodes = (
"599 454 LINE",
"481 454 LINE",
"160 192 LINE",
"161 92 LINE"
);
},
{
closed = 1;
nodes = (
"305 0 LINE SMOOTH",
"305 83 LINE SMOOTH",
"26 83 LINE SMOOTH",
"26 0 LINE SMOOTH"
);
},
{
closed = 1;
nodes = (
"220 46 LINE SMOOTH",
"220 472 LINE SMOOTH",
"116 472 LINE SMOOTH",
"116 46 LINE SMOOTH"
);
},
{
closed = 1;
nodes = (
"649 0 LINE SMOOTH",
"649 83 LINE SMOOTH",
"394 83 LINE SMOOTH",
"394 0 LINE SMOOTH"
);
},
{
closed = 1;
nodes = (
"611 61 LINE",
"366 326 LINE",
"285 276 LINE",
"479 61 LINE"
);
},
{
closed = 1;
nodes = (
"305 437 LINE SMOOTH",
"305 520 LINE SMOOTH",
"26 520 LINE SMOOTH",
"26 437 LINE SMOOTH"
);
},
{
closed = 1;
nodes = (
"639 437 LINE SMOOTH",
"639 520 LINE SMOOTH",
"384 520 LINE SMOOTH",
"384 437 LINE SMOOTH"
);
}
);
width = 646;
},
{
anchors = (
{
name = bottom;
position = "{346, 0}";
},
{
name = top;
position = "{346, 520}";
}
);
layerId = "751C6B1B-F263-4325-91C2-F6642B60D73C";
name = SemiLight;
paths = (
{
closed = 1;
nodes = (
"583 507 LINE",
"550 507 LINE",
"155 168 LINE",
"155 140 LINE"
);
},
{
closed = 1;
nodes = (
"281 0 LINE SMOOTH",
"281 23 LINE SMOOTH",
"30 23 LINE SMOOTH",
"30 0 LINE SMOOTH"
);
},
{
closed = 1;
nodes = (
"168 13 LINE SMOOTH",
"168 507 LINE SMOOTH",
"143 507 LINE SMOOTH",
"143 13 LINE SMOOTH"
);
},
{
closed = 1;
nodes = (
"647 0 LINE SMOOTH",
"647 23 LINE SMOOTH",
"425 23 LINE SMOOTH",
"425 0 LINE SMOOTH"
);
},
{
closed = 1;
nodes = (
"569 10 LINE",
"326 294 LINE",
"310 278 LINE",
"540 10 LINE"
);
},
{
closed = 1;
nodes = (
"281 497 LINE SMOOTH",
"281 520 LINE SMOOTH",
"30 520 LINE SMOOTH",
"30 497 LINE SMOOTH"
);
},
{
closed = 1;
nodes = (
"647 497 LINE SMOOTH",
"647 520 LINE SMOOTH",
"425 520 LINE SMOOTH",
"425 497 LINE SMOOTH"
);
}
);
width = 647;
}
);
leftKerningGroup = H;
leftMetricsKey = "=H";
rightKerningGroup = K;
unicode = 004B;
},
{
color = 10;
glyphname = L;
lastChange = "2015-11-10 19:21:47 +0000";
layers = (
{
anchors = (
{
name = bottom;
position = "{269, 0}";
},
{
name = center;
position = "{269, 245}";
},
{
name = top;
position = "{269, 520}";
},
{
name = topright;
position = "{471, 490}";
}
);
layerId = "5072282B-E254-4F9F-BB63-C24552B293A4";
name = Bold;
paths = (
{
closed = 1;
nodes = (
"539 0 LINE",
"539 203 LINE",
"440 203 LINE",
"440 83 LINE",
"26 83 LINE",
"26 0 LINE"
);
},
{
closed = 1;
nodes = (
"220 46 LINE",
"220 467 LINE",
"116 467 LINE",
"116 46 LINE"
);
},
{
closed = 1;
nodes = (
"310 437 LINE",
"310 520 LINE",
"26 520 LINE",
"26 437 LINE"
);
}
);
width = 539;
},
{
anchors = (
{
name = bottom;
position = "{223, 0}";
},
{
name = center;
position = "{223, 245}";
},
{
name = top;
position = "{223, 490}";
},
{
name = topright;
position = "{435, 490}";
}
);
layerId = "751C6B1B-F263-4325-91C2-F6642B60D73C";
name = SemiLight;
paths = (
{
closed = 1;
nodes = (
"517 0 LINE",
"517 136 LINE",
"493 136 LINE",
"493 23 LINE",
"30 23 LINE",
"30 0 LINE"
);
},
{
closed = 1;
nodes = (
"168 13 LINE",
"168 507 LINE",
"143 507 LINE",
"143 13 LINE"
);
},
{
closed = 1;
nodes = (
"281 497 LINE",
"281 520 LINE",
"30 520 LINE",
"30 497 LINE"
);
}
);
width = 522;
}
);
leftKerningGroup = H;
leftMetricsKey = "=H";
rightKerningGroup = L;
unicode = 004C;
},
{
color = 4;
glyphname = M;
lastChange = "2015-11-10 19:54:03 +0000";
layers = (
{
anchors = (
{
name = bottom;
position = "{420, -2}";
},
{
name = top;
position = "{418, 490}";
}
);
layerId = "5072282B-E254-4F9F-BB63-C24552B293A4";
name = Bold;
paths = (
{
closed = 1;
nodes = (
"431 -3 LINE",
"455 73 LINE",
"231 520 LINE",
"123 520 LINE",
"390 -3 LINE"
);
},
{
closed = 1;
nodes = (
"297 0 LINE",
"297 83 LINE",
"26 83 LINE",
"26 0 LINE"
);
},
{
closed = 1;
nodes = (
"215 46 LINE",
"215 269 LINE",
"215 344 OFFCURVE",
"193 469 OFFCURVE",
"182 520 CURVE",
"116 520 LINE",
"116 46 LINE"
);
},
{
closed = 1;
nodes = (
"212 437 LINE",
"212 520 LINE",
"26 520 LINE",
"26 437 LINE"
);
},
{
closed = 1;
nodes = (
"815 0 LINE",
"815 83 LINE",
"539 83 LINE",
"539 0 LINE"
);
},
{
closed = 1;
nodes = (
"446 -3 LINE",
"713 520 LINE",
"611 520 LINE",
"390 73 LINE",
"408 -3 LINE"
);
},
{
closed = 1;
nodes = (
"724 46 LINE",
"724 520 LINE",
"661 520 LINE",
"647 469 OFFCURVE",
"620 344 OFFCURVE",
"620 269 CURVE",
"620 46 LINE"
);
},
{
closed = 1;
nodes = (
"815 437 LINE",
"815 520 LINE",
"624 520 LINE",
"624 437 LINE"
);
}
);
width = 841;
},
{
anchors = (
{
name = bottom;
position = "{409, -25}";
},
{
name = top;
position = "{407, 480}";
}
);
layerId = "751C6B1B-F263-4325-91C2-F6642B60D73C";
name = SemiLight;
paths = (
{
closed = 1;
nodes = (
"186 35 LINE",
"187 501 LINE",
"161 501 LINE",
"161 35 LINE"
);
},
{
closed = 1;
nodes = (
"430 34 LINE",
"187 501 LINE",
"161 499 LINE",
"408 25 LINE",
"424 25 LINE"
);
},
{
closed = 1;
nodes = (
"674 501 LINE",
"648 501 LINE",
"649 35 LINE",
"674 35 LINE"
);
},
{
closed = 1;
nodes = (
"427 25 LINE",
"673 499 LINE",
"648 501 LINE",
"406 34 LINE",
"411 25 LINE"
);
}
);
width = 841;
}
);
leftKerningGroup = M;
leftMetricsKey = "=H";
rightKerningGroup = M;
rightMetricsKey = "=H";
unicode = 004D;
},
{
color = 10;
glyphname = N;
lastChange = "2015-11-10 19:21:47 +0000";
layers = (
{
anchors = (
{
name = bottom;
position = "{372, 20}";
},
{
name = top;
position = "{372, 490}";
}
);
layerId = "5072282B-E254-4F9F-BB63-C24552B293A4";
name = Bold;
paths = (
{
closed = 1;
nodes = (
"612 -4 LINE",
"612 507 LINE",
"516 507 LINE",
"516 175 LINE",
"217 520 LINE",
"87 520 LINE",
"557 -5 LINE"
);
},
{
closed = 1;
nodes = (
"310 0 LINE",
"310 83 LINE",
"26 83 LINE",
"26 0 LINE"
);
},
{
closed = 1;
nodes = (
"217 12 LINE",
"217 520 LINE",
"116 520 LINE",
"116 12 LINE"
);
},
{
closed = 1;
nodes = (
"214 437 LINE",
"217 520 LINE",
"26 520 LINE",
"26 437 LINE"
);
},
{
closed = 1;
nodes = (
"702 437 LINE",
"702 520 LINE",
"426 520 LINE",
"426 437 LINE"
);
}
);
width = 707;
},
{
anchors = (
{
name = bottom;
position = "{380, 0}";
},
{
name = top;
position = "{380, 490}";
}
);
background = {
paths = (
{
closed = 1;
nodes = (
"558 242 LINE",
"558 265 LINE",
"162 265 LINE",
"162 242 LINE"
);
},
{
closed = 1;
nodes = (
"271 0 LINE",
"271 23 LINE",
"30 23 LINE",
"30 0 LINE"
);
},
{
closed = 1;
nodes = (
"167 13 LINE",
"167 509 LINE",
"143 509 LINE",
"143 13 LINE"
);
},
{
closed = 1;
nodes = (
"271 497 LINE",
"271 520 LINE",
"30 520 LINE",
"30 497 LINE"
);
},
{
closed = 1;
nodes = (
"689 0 LINE",
"689 23 LINE",
"448 23 LINE",
"448 0 LINE"
);
},
{
closed = 1;
nodes = (
"577 13 LINE",
"577 509 LINE",
"552 509 LINE",
"552 13 LINE"
);
},
{
closed = 1;
nodes = (
"689 497 LINE",
"689 520 LINE",
"448 520 LINE",
"448 497 LINE"
);
}
);
};
layerId = "751C6B1B-F263-4325-91C2-F6642B60D73C";
name = SemiLight;
paths = (
{
closed = 1;
nodes = (
"582 -5 LINE",
"582 507 LINE",
"557 507 LINE",
"557 57 LINE",
"168 520 LINE",
"133 520 LINE",
"577 -5 LINE"
);
},
{
closed = 1;
nodes = (
"272 0 LINE",
"272 23 LINE",
"30 23 LINE",
"30 0 LINE"
);
},
{
closed = 1;
nodes = (
"168 12 LINE",
"168 520 LINE",
"143 520 LINE",
"143 12 LINE"
);
},
{
closed = 1;
nodes = (
"168 497 LINE",
"168 520 LINE",
"30 520 LINE",
"30 497 LINE"
);
},
{
closed = 1;
nodes = (
"695 497 LINE",
"695 520 LINE",
"444 520 LINE",
"444 497 LINE"
);
}
);
width = 705;
}
);
leftKerningGroup = H;
leftMetricsKey = "=H";
rightKerningGroup = H;
unicode = 004E;
},
{
color = 10;
glyphname = O;
lastChange = "2015-11-10 19:21:47 +0000";
layers = (
{
anchors = (
{
name = bottom;
position = "{306, -10}";
},
{
name = center;
position = "{308, 245}";
},
{
name = ogonek;
position = "{348, -10}";
},
{
name = top;
position = "{307, 531}";
},
{
name = topright;
position = "{545, 490}";
}
);
layerId = "5072282B-E254-4F9F-BB63-C24552B293A4";
name = Bold;
paths = (
{
closed = 1;
nodes = (
"467 -10 OFFCURVE",
"586 106 OFFCURVE",
"586 260 CURVE",
"586 414 OFFCURVE",
"467 530 OFFCURVE",
"308 530 CURVE",
"149 530 OFFCURVE",
"30 414 OFFCURVE",
"30 260 CURVE",
"30 106 OFFCURVE",
"149 -10 OFFCURVE",
"308 -10 CURVE"
);
},
{
closed = 1;
nodes = (
"203 75 OFFCURVE",
"139 156 OFFCURVE",
"139 260 CURVE",
"139 362 OFFCURVE",
"203 445 OFFCURVE",
"307 445 CURVE",
"411 445 OFFCURVE",
"475 364 OFFCURVE",
"475 260 CURVE",
"475 158 OFFCURVE",
"411 75 OFFCURVE",
"307 75 CURVE"
);
}
);
width = 615;
},
{
anchors = (
{
name = bottom;
position = "{303, -27}";
},
{
name = center;
position = "{303, 245}";
},
{
name = ogonek;
position = "{303, -15}";
},
{
name = top;
position = "{303, 517}";
},
{
name = topright;
position = "{540, 490}";
}
);
layerId = "751C6B1B-F263-4325-91C2-F6642B60D73C";
name = SemiLight;
paths = (
{
closed = 1;
nodes = (
"441 -10 OFFCURVE",
"556 89 OFFCURVE",
"556 260 CURVE",
"556 431 OFFCURVE",
"441 530 OFFCURVE",
"303 530 CURVE",
"164 530 OFFCURVE",
"50 431 OFFCURVE",
"50 260 CURVE",
"50 89 OFFCURVE",
"164 -10 OFFCURVE",
"303 -10 CURVE"
);
},
{
closed = 1;
nodes = (
"174 14 OFFCURVE",
"74 107 OFFCURVE",
"74 260 CURVE",
"74 413 OFFCURVE",
"174 506 OFFCURVE",
"303 506 CURVE",
"431 506 OFFCURVE",
"532 413 OFFCURVE",
"532 260 CURVE",
"532 107 OFFCURVE",
"431 14 OFFCURVE",
"303 14 CURVE"
);
}
);
width = 606;
}
);
leftKerningGroup = O;
rightKerningGroup = O;
unicode = 004F;
},
{
color = 10;
glyphname = Oslash;
lastChange = "2015-11-10 19:21:47 +0000";
layers = (
{
components = (
{
name = O;
}
);
layerId = "5072282B-E254-4F9F-BB63-C24552B293A4";
name = Bold;
paths = (
{
closed = 1;
nodes = (
"252 37 LINE",
"250 51 LINE",
"425 450 LINE",
"437 456 LINE",
"492 581 LINE",
"404 581 LINE",
"362 486 LINE",
"364 472 LINE",
"184 62 LINE",
"170 52 LINE",
"121 -59 LINE",
"209 -59 LINE"
);
}
);
width = 615;
},
{
components = (
{
name = O;
}
);
layerId = "751C6B1B-F263-4325-91C2-F6642B60D73C";
name = SemiLight;
paths = (
{
closed = 1;
nodes = (
"219 11 LINE",
"222 19 LINE",
"397 498 LINE",
"400 506 LINE",
"427 581 LINE",
"402 581 LINE",
"377 513 LINE",
"374 506 LINE",
"201 28 LINE",
"198 21 LINE",
"169 -59 LINE",
"194 -59 LINE"
);
}
);
width = 606;
}
);
leftKerningGroup = O;
rightKerningGroup = O;
unicode = 00D8;
},
{
color = 10;
glyphname = OE;
lastChange = "2015-11-10 19:21:47 +0000";
layers = (
{
anchors = (
{
name = bottom;
position = "{485, 0}";
},
{
name = center;
position = "{485, 260}";
},
{
name = ogonek;
position = "{820, 0}";
},
{
name = top;
position = "{485, 520}";
}
);
layerId = "5072282B-E254-4F9F-BB63-C24552B293A4";
name = Bold;
paths = (
{
closed = 1;
nodes = (
"821 0 LINE",
"821 180 LINE",
"728 180 LINE",
"728 83 LINE",
"346 83 LINE SMOOTH",
"253 83 OFFCURVE",
"139 116 OFFCURVE",
"139 260 CURVE SMOOTH",
"139 405 OFFCURVE",
"253 437 OFFCURVE",
"346 437 CURVE SMOOTH",
"728 437 LINE",
"728 339 LINE",
"821 339 LINE",
"821 520 LINE",
"322 520 LINE SMOOTH",
"173 520 OFFCURVE",
"30 442 OFFCURVE",
"30 260 CURVE SMOOTH",
"30 78 OFFCURVE",
"173 0 OFFCURVE",
"322 0 CURVE SMOOTH"
);
},
{
closed = 1;
nodes = (
"496 46 LINE",
"496 467 LINE",
"392 467 LINE",
"392 46 LINE"
);
},
{
closed = 1;
nodes = (
"628 216 LINE",
"628 299 LINE",
"432 299 LINE",
"432 216 LINE"
);
},
{
closed = 1;
nodes = (
"663 156 LINE",
"663 359 LINE",
"580 359 LINE",
"580 156 LINE"
);
}
);
width = 875;
},
{
anchors = (
{
name = bottom;
position = "{456, 0}";
},
{
name = center;
position = "{456, 245}";
},
{
name = ogonek;
position = "{758, 0}";
},
{
name = top;
position = "{456, 520}";
}
);
layerId = "751C6B1B-F263-4325-91C2-F6642B60D73C";
name = SemiLight;
paths = (
{
closed = 1;
nodes = (
"758 0 LINE",
"758 136 LINE",
"734 136 LINE",
"734 23 LINE",
"340 23 LINE SMOOTH",
"177 23 OFFCURVE",
"75 111 OFFCURVE",
"75 255 CURVE SMOOTH",
"75 399 OFFCURVE",
"177 497 OFFCURVE",
"340 497 CURVE SMOOTH",
"733 497 LINE",
"733 384 LINE",
"758 384 LINE",
"758 520 LINE",
"340 520 LINE SMOOTH",
"167 520 OFFCURVE",
"50 416 OFFCURVE",
"50 255 CURVE SMOOTH",
"50 94 OFFCURVE",
"167 0 OFFCURVE",
"340 0 CURVE SMOOTH"
);
},
{
closed = 1;
nodes = (
"439 13 LINE",
"439 507 LINE",
"414 507 LINE",
"414 13 LINE"
);
},
{
closed = 1;
nodes = (
"599 261 LINE",
"599 284 LINE",
"436 284 LINE",
"436 261 LINE"
);
},
{
closed = 1;
nodes = (
"612 178 LINE",
"612 367 LINE",
"587 367 LINE",
"587 178 LINE"
);
}
);
width = 818;
}
);
leftKerningGroup = O;
leftMetricsKey = "=O";
rightKerningGroup = E;
rightMetricsKey = "=E";
unicode = 0152;
},
{
color = 10;
glyphname = P;
lastChange = "2015-11-10 19:21:47 +0000";
layers = (
{
anchors = (
{
name = bottom;
position = "{284, 0}";
},
{
name = top;
position = "{284, 520}";
}
);
layerId = "5072282B-E254-4F9F-BB63-C24552B293A4";
name = Bold;
paths = (
{
closed = 1;
nodes = (
"348 183 LINE SMOOTH",
"472 183 OFFCURVE",
"553 249 OFFCURVE",
"553 355 CURVE SMOOTH",
"553 457 OFFCURVE",
"472 520 OFFCURVE",
"348 520 CURVE SMOOTH",
"26 520 LINE",
"26 437 LINE",
"340 437 LINE SMOOTH",
"396 437 OFFCURVE",
"450 420 OFFCURVE",
"450 355 CURVE SMOOTH",
"450 281 OFFCURVE",
"392 266 OFFCURVE",
"341 266 CURVE SMOOTH",
"185 266 LINE",
"185 183 LINE"
);
},
{
closed = 1;
nodes = (
"316 0 LINE",
"316 83 LINE",
"26 83 LINE",
"26 0 LINE"
);
},
{
closed = 1;
nodes = (
"221 46 LINE",
"221 475 LINE",
"116 475 LINE",
"116 46 LINE"
);
}
);
width = 566;
},
{
anchors = (
{
name = bottom;
position = "{273, 0}";
},
{
name = top;
position = "{273, 490}";
}
);
layerId = "751C6B1B-F263-4325-91C2-F6642B60D73C";
name = SemiLight;
paths = (
{
closed = 1;
nodes = (
"327 214 LINE SMOOTH",
"444 214 OFFCURVE",
"528 259 OFFCURVE",
"528 366 CURVE SMOOTH",
"528 475 OFFCURVE",
"456 520 OFFCURVE",
"339 520 CURVE SMOOTH",
"30 520 LINE",
"30 497 LINE",
"333 497 LINE SMOOTH",
"435 497 OFFCURVE",
"503 465 OFFCURVE",
"503 365 CURVE SMOOTH",
"503 273 OFFCURVE",
"421 240 OFFCURVE",
"322 238 CURVE SMOOTH",
"160 235 LINE",
"160 212 LINE"
);
},
{
closed = 1;
nodes = (
"286 0 LINE",
"286 23 LINE",
"30 23 LINE",
"30 0 LINE"
);
},
{
closed = 1;
nodes = (
"168 13 LINE",
"168 507 LINE",
"143 507 LINE",
"143 13 LINE"
);
}
);
width = 553;
}
);
leftKerningGroup = H;
leftMetricsKey = "=H";
rightKerningGroup = P;
unicode = 0050;
},
{
color = 10;
glyphname = Thorn;
lastChange = "2015-11-10 19:21:47 +0000";
layers = (
{
layerId = "5072282B-E254-4F9F-BB63-C24552B293A4";
name = Bold;
paths = (
{
closed = 1;
nodes = (
"363 135 LINE SMOOTH",
"462 135 OFFCURVE",
"534 175 OFFCURVE",
"534 259 CURVE SMOOTH",
"534 344 OFFCURVE",
"462 383 OFFCURVE",
"363 383 CURVE SMOOTH",
"186 383 LINE",
"186 307 LINE",
"347 307 LINE SMOOTH",
"391 307 OFFCURVE",
"429 297 OFFCURVE",
"429 259 CURVE SMOOTH",
"429 217 OFFCURVE",
"388 208 OFFCURVE",
"347 208 CURVE SMOOTH",
"185 208 LINE",
"185 134 LINE"
);
},
{
closed = 1;
nodes = (
"311 0 LINE",
"311 83 LINE",
"26 83 LINE",
"26 0 LINE"
);
},
{
closed = 1;
nodes = (
"222 46 LINE",
"222 475 LINE",
"116 475 LINE",
"116 46 LINE"
);
},
{
closed = 1;
nodes = (
"311 437 LINE",
"311 520 LINE",
"26 520 LINE",
"26 437 LINE"
);
}
);
width = 543;
},
{
layerId = "751C6B1B-F263-4325-91C2-F6642B60D73C";
name = SemiLight;
paths = (
{
closed = 1;
nodes = (
"347 142 LINE SMOOTH",
"444 142 OFFCURVE",
"508 182 OFFCURVE",
"508 258 CURVE SMOOTH",
"508 334 OFFCURVE",
"444 376 OFFCURVE",
"347 376 CURVE SMOOTH",
"151 376 LINE",
"151 353 LINE",
"347 353 LINE SMOOTH",
"429 353 OFFCURVE",
"483 320 OFFCURVE",
"483 259 CURVE SMOOTH",
"483 198 OFFCURVE",
"429 165 OFFCURVE",
"347 165 CURVE SMOOTH",
"151 165 LINE",
"151 142 LINE"
);
},
{
closed = 1;
nodes = (
"286 0 LINE",
"286 23 LINE",
"30 23 LINE",
"30 0 LINE"
);
},
{
closed = 1;
nodes = (
"168 13 LINE",
"168 508 LINE",
"143 508 LINE",
"143 13 LINE"
);
},
{
closed = 1;
nodes = (
"286 497 LINE",
"286 520 LINE",
"30 520 LINE",
"30 497 LINE"
);
}
);
width = 538;
}
);
leftKerningGroup = H;
leftMetricsKey = "=I";
rightKerningGroup = Thorn;
unicode = 00DE;
},
{
color = 10;
glyphname = Q;
lastChange = "2015-11-10 19:21:47 +0000";
layers = (
{
anchors = (
{
name = bottom;
position = "{306, -10}";
},
{
name = top;
position = "{306, 530}";
}
);
layerId = "5072282B-E254-4F9F-BB63-C24552B293A4";
name = Bold;
paths = (
{
closed = 1;
nodes = (
"467 -10 OFFCURVE",
"586 106 OFFCURVE",
"586 260 CURVE",
"586 414 OFFCURVE",
"467 530 OFFCURVE",
"308 530 CURVE",
"149 530 OFFCURVE",
"30 414 OFFCURVE",
"30 260 CURVE",
"30 106 OFFCURVE",
"149 -10 OFFCURVE",
"308 -10 CURVE"
);
},
{
closed = 1;
nodes = (
"603 -153 OFFCURVE",
"642 -96 OFFCURVE",
"657 -37 CURVE",
"584 -12 LINE",
"575 -50 OFFCURVE",
"559 -70 OFFCURVE",
"527 -70 CURVE SMOOTH",
"492 -70 OFFCURVE",
"471 -43 OFFCURVE",
"427 52 CURVE",
"385 142 LINE",
"332 255 OFFCURVE",
"264 279 OFFCURVE",
"166 279 CURVE SMOOTH",
"134 279 LINE",
"134 204 LINE",
"166 204 LINE SMOOTH",
"239 204 OFFCURVE",
"265 175 OFFCURVE",
"298 106 CURVE",
"339 20 LINE",
"398 -104 OFFCURVE",
"447 -153 OFFCURVE",
"527 -153 CURVE SMOOTH"
);
},
{
closed = 1;
nodes = (
"201 69 OFFCURVE",
"136 152 OFFCURVE",
"136 260 CURVE",
"136 367 OFFCURVE",
"201 451 OFFCURVE",
"307 451 CURVE",
"413 451 OFFCURVE",
"478 368 OFFCURVE",
"478 260 CURVE",
"478 153 OFFCURVE",
"413 69 OFFCURVE",
"307 69 CURVE"
);
}
);
width = 624;
},
{
anchors = (
{
name = bottom;
position = "{301, -10}";
},
{
name = top;
position = "{301, 530}";
}
);
layerId = "751C6B1B-F263-4325-91C2-F6642B60D73C";
name = SemiLight;
paths = (
{
closed = 1;
nodes = (
"441 -10 OFFCURVE",
"556 89 OFFCURVE",
"556 260 CURVE",
"556 431 OFFCURVE",
"441 530 OFFCURVE",
"303 530 CURVE",
"164 530 OFFCURVE",
"50 431 OFFCURVE",
"50 260 CURVE",
"50 89 OFFCURVE",
"164 -10 OFFCURVE",
"303 -10 CURVE"
);
},
{
closed = 1;
nodes = (
"593 -158 OFFCURVE",
"627 -96 OFFCURVE",
"637 -31 CURVE",
"616 -26 LINE",
"608 -84 OFFCURVE",
"580 -135 OFFCURVE",
"520 -135 CURVE SMOOTH",
"459 -135 OFFCURVE",
"427 -73 OFFCURVE",
"373 42 CURVE",
"359 73 LINE",
"296 208 OFFCURVE",
"236 253 OFFCURVE",
"120 253 CURVE SMOOTH",
"64 253 LINE",
"64 230 LINE",
"120 230 LINE SMOOTH",
"231 230 OFFCURVE",
"281 183 OFFCURVE",
"334 67 CURVE",
"349 34 LINE",
"410 -96 OFFCURVE",
"450 -158 OFFCURVE",
"520 -158 CURVE SMOOTH"
);
},
{
closed = 1;
nodes = (
"174 14 OFFCURVE",
"74 107 OFFCURVE",
"74 260 CURVE",
"74 413 OFFCURVE",
"174 506 OFFCURVE",
"303 506 CURVE",
"431 506 OFFCURVE",
"532 413 OFFCURVE",
"532 260 CURVE",
"532 107 OFFCURVE",
"431 14 OFFCURVE",
"303 14 CURVE"
);
}
);
width = 608;
}
);
leftKerningGroup = O;
leftMetricsKey = "=O";
rightKerningGroup = O;
unicode = 0051;
},
{
color = 10;
glyphname = Q.alt;
lastChange = "2015-11-10 19:21:47 +0000";
layers = (
{
anchors = (
{
name = bottom;
position = "{306, -10}";
},
{
name = top;
position = "{306, 530}";
}
);
layerId = "5072282B-E254-4F9F-BB63-C24552B293A4";
name = Bold;
paths = (
{
closed = 1;
nodes = (
"884 -221 OFFCURVE",
"951 -192 OFFCURVE",
"997 -159 CURVE",
"958 -86 LINE",
"914 -116 OFFCURVE",
"867 -135 OFFCURVE",
"806 -135 CURVE SMOOTH",
"712 -135 OFFCURVE",
"640 -78 OFFCURVE",
"536 59 CURVE SMOOTH",
"403 234 OFFCURVE",
"325 278 OFFCURVE",
"132 278 CURVE SMOOTH",
"92 278 LINE",
"92 203 LINE",
"134 203 LINE SMOOTH",
"280 203 OFFCURVE",
"343 166 OFFCURVE",
"452 19 CURVE SMOOTH",
"591 -169 OFFCURVE",
"681 -221 OFFCURVE",
"806 -221 CURVE SMOOTH"
);
},
{
closed = 1;
nodes = (
"467 -10 OFFCURVE",
"586 106 OFFCURVE",
"586 260 CURVE",
"586 414 OFFCURVE",
"467 530 OFFCURVE",
"308 530 CURVE",
"149 530 OFFCURVE",
"30 414 OFFCURVE",
"30 260 CURVE",
"30 106 OFFCURVE",
"149 -10 OFFCURVE",
"308 -10 CURVE"
);
},
{
closed = 1;
nodes = (
"201 69 OFFCURVE",
"136 152 OFFCURVE",
"136 260 CURVE",
"136 367 OFFCURVE",
"201 451 OFFCURVE",
"307 451 CURVE",
"413 451 OFFCURVE",
"478 368 OFFCURVE",
"478 260 CURVE",
"478 153 OFFCURVE",
"413 69 OFFCURVE",
"307 69 CURVE"
);
}
);
width = 624;
},
{
anchors = (
{
name = bottom;
position = "{301, -10}";
},
{
name = top;
position = "{301, 530}";
}
);
layerId = "751C6B1B-F263-4325-91C2-F6642B60D73C";
name = SemiLight;
paths = (
{
closed = 1;
nodes = (
"893 -188 OFFCURVE",
"950 -165 OFFCURVE",
"993 -136 CURVE",
"981 -117 LINE",
"941 -144 OFFCURVE",
"885 -165 OFFCURVE",
"820 -165 CURVE SMOOTH",
"707 -165 OFFCURVE",
"610 -104 OFFCURVE",
"475 61 CURVE SMOOTH",
"331 237 OFFCURVE",
"241 253 OFFCURVE",
"90 253 CURVE SMOOTH",
"64 253 LINE",
"64 230 LINE",
"90 230 LINE SMOOTH",
"241 230 OFFCURVE",
"319 213 OFFCURVE",
"448 55 CURVE SMOOTH",
"594 -123 OFFCURVE",
"697 -188 OFFCURVE",
"820 -188 CURVE SMOOTH"
);
},
{
closed = 1;
nodes = (
"441 -10 OFFCURVE",
"556 89 OFFCURVE",
"556 260 CURVE",
"556 431 OFFCURVE",
"441 530 OFFCURVE",
"303 530 CURVE",
"164 530 OFFCURVE",
"50 431 OFFCURVE",
"50 260 CURVE",
"50 89 OFFCURVE",
"164 -10 OFFCURVE",
"303 -10 CURVE"
);
},
{
closed = 1;
nodes = (
"174 14 OFFCURVE",
"74 107 OFFCURVE",
"74 260 CURVE",
"74 413 OFFCURVE",
"174 506 OFFCURVE",
"303 506 CURVE",
"431 506 OFFCURVE",
"532 413 OFFCURVE",
"532 260 CURVE",
"532 107 OFFCURVE",
"431 14 OFFCURVE",
"303 14 CURVE"
);
}
);
width = 617;
}
);
leftKerningGroup = Q.alt;
leftMetricsKey = "=O";
rightKerningGroup = Q.alt;
},
{
color = 10;
glyphname = R;
lastChange = "2015-11-10 19:21:47 +0000";
layers = (
{
anchors = (
{
name = bottom;
position = "{355, 0}";
},
{
name = top;
position = "{315, 520}";
}
);
layerId = "5072282B-E254-4F9F-BB63-C24552B293A4";
name = Bold;
paths = (
{
closed = 1;
nodes = (
"356 221 LINE SMOOTH",
"476 221 OFFCURVE",
"549 279 OFFCURVE",
"549 371 CURVE SMOOTH",
"549 464 OFFCURVE",
"468 520 OFFCURVE",
"348 520 CURVE SMOOTH",
"26 520 LINE",
"26 437 LINE",
"350 437 LINE SMOOTH",
"399 437 OFFCURVE",
"444 420 OFFCURVE",
"444 371 CURVE SMOOTH",
"444 319 OFFCURVE",
"396 299 OFFCURVE",
"350 299 CURVE SMOOTH",
"185 299 LINE",
"185 221 LINE"
);
},
{
closed = 1;
nodes = (
"307 0 LINE",
"307 83 LINE",
"26 83 LINE",
"26 0 LINE"
);
},
{
closed = 1;
nodes = (
"221 46 LINE",
"221 472 LINE",
"116 472 LINE",
"116 46 LINE"
);
},
{
closed = 1;
nodes = (
"571 -11 OFFCURVE",
"619 51 OFFCURVE",
"619 127 CURVE SMOOTH",
"619 153 LINE",
"528 153 LINE",
"528 125 LINE SMOOTH",
"528 98 OFFCURVE",
"516 77 OFFCURVE",
"494 77 CURVE SMOOTH",
"471 77 OFFCURVE",
"461 90 OFFCURVE",
"441 136 CURVE SMOOTH",
"407 213 OFFCURVE",
"365 238 OFFCURVE",
"311 238 CURVE SMOOTH",
"215 238 LINE",
"215 221 LINE",
"252 221 LINE SMOOTH",
"289 221 OFFCURVE",
"315 180 OFFCURVE",
"340 122 CURVE SMOOTH",
"366 62 OFFCURVE",
"398 -11 OFFCURVE",
"494 -11 CURVE SMOOTH"
);
}
);
width = 633;
},
{
anchors = (
{
name = bottom;
position = "{335, 0}";
},
{
name = top;
position = "{295, 520}";
}
);
layerId = "751C6B1B-F263-4325-91C2-F6642B60D73C";
name = SemiLight;
paths = (
{
closed = 1;
nodes = (
"352 241 LINE SMOOTH",
"466 241 OFFCURVE",
"525 309 OFFCURVE",
"525 378 CURVE SMOOTH",
"525 457 OFFCURVE",
"465 520 OFFCURVE",
"352 520 CURVE SMOOTH",
"30 520 LINE",
"30 497 LINE",
"352 497 LINE SMOOTH",
"451 497 OFFCURVE",
"500 441 OFFCURVE",
"500 378 CURVE SMOOTH",
"500 317 OFFCURVE",
"448 262 OFFCURVE",
"352 262 CURVE SMOOTH",
"163 262 LINE",
"163 241 LINE"
);
},
{
closed = 1;
nodes = (
"281 0 LINE",
"281 23 LINE",
"30 22 LINE",
"30 -1 LINE"
);
},
{
closed = 1;
nodes = (
"168 13 LINE",
"168 507 LINE",
"143 507 LINE",
"143 13 LINE"
);
},
{
closed = 1;
nodes = (
"568 -10 OFFCURVE",
"597 44 OFFCURVE",
"597 95 CURVE SMOOTH",
"597 116 LINE",
"572 116 LINE",
"572 95 LINE SMOOTH",
"572 55 OFFCURVE",
"554 13 OFFCURVE",
"509 13 CURVE SMOOTH",
"461 13 OFFCURVE",
"443 52 OFFCURVE",
"400 150 CURVE SMOOTH",
"358 246 OFFCURVE",
"293 253 OFFCURVE",
"205 253 CURVE SMOOTH",
"163 253 LINE",
"163 239 LINE",
"237 239 LINE SMOOTH",
"301 239 OFFCURVE",
"348 214 OFFCURVE",
"379 137 CURVE SMOOTH",
"420 35 OFFCURVE",
"455 -10 OFFCURVE",
"509 -10 CURVE SMOOTH"
);
}
);
width = 607;
}
);
leftKerningGroup = H;
leftMetricsKey = "=H";
rightKerningGroup = R;
unicode = 0052;
},
{
color = 10;
glyphname = R.alt;
lastChange = "2015-11-10 19:21:47 +0000";
layers = (
{
anchors = (
{
name = bottom;
position = "{351, 0}";
},
{
name = top;
position = "{311, 520}";
}
);
layerId = "5072282B-E254-4F9F-BB63-C24552B293A4";
name = Bold;
paths = (
{
closed = 1;
nodes = (
"921 -192 OFFCURVE",
"1001 -156 OFFCURVE",
"1058 -112 CURVE",
"1014 -39 LINE",
"964 -77 OFFCURVE",
"904 -103 OFFCURVE",
"828 -103 CURVE SMOOTH",
"730 -103 OFFCURVE",
"634 -64 OFFCURVE",
"530 72 CURVE SMOOTH",
"441 189 OFFCURVE",
"398 233 OFFCURVE",
"326 233 CURVE SMOOTH",
"202 233 LINE",
"202 216 LINE",
"254 216 LINE SMOOTH",
"311 216 OFFCURVE",
"327 168 OFFCURVE",
"436 29 CURVE SMOOTH",
"543 -105 OFFCURVE",
"661 -192 OFFCURVE",
"813 -192 CURVE SMOOTH"
);
},
{
closed = 1;
nodes = (
"311 0 LINE",
"311 83 LINE",
"26 83 LINE",
"26 0 LINE"
);
},
{
closed = 1;
nodes = (
"221 46 LINE",
"221 472 LINE",
"116 472 LINE",
"116 46 LINE"
);
},
{
closed = 1;
nodes = (
"356 216 LINE SMOOTH",
"485 216 OFFCURVE",
"549 289 OFFCURVE",
"549 368 CURVE SMOOTH",
"549 457 OFFCURVE",
"484 520 OFFCURVE",
"356 520 CURVE SMOOTH",
"26 520 LINE",
"26 437 LINE",
"350 437 LINE SMOOTH",
"399 437 OFFCURVE",
"444 420 OFFCURVE",
"444 368 CURVE SMOOTH",
"444 309 OFFCURVE",
"396 294 OFFCURVE",
"350 294 CURVE SMOOTH",
"185 294 LINE",
"185 216 LINE"
);
}
);
width = 589;
},
{
anchors = (
{
name = bottom;
position = "{325, 0}";
},
{
name = top;
position = "{285, 520}";
}
);
layerId = "751C6B1B-F263-4325-91C2-F6642B60D73C";
name = SemiLight;
paths = (
{
closed = 1;
nodes = (
"867 -188 OFFCURVE",
"924 -163 OFFCURVE",
"962 -136 CURVE",
"950 -117 LINE",
"915 -142 OFFCURVE",
"859 -165 OFFCURVE",
"797 -165 CURVE SMOOTH",
"691 -165 OFFCURVE",
"612 -118 OFFCURVE",
"502 70 CURVE SMOOTH",
"408 230 OFFCURVE",
"365 253 OFFCURVE",
"277 253 CURVE SMOOTH",
"203 253 LINE",
"203 241 LINE",
"277 241 LINE SMOOTH",
"341 241 OFFCURVE",
"385 224 OFFCURVE",
"480 60 CURVE SMOOTH",
"594 -138 OFFCURVE",
"678 -188 OFFCURVE",
"797 -188 CURVE SMOOTH"
);
},
{
closed = 1;
nodes = (
"281 0 LINE",
"281 23 LINE",
"30 22 LINE",
"30 -1 LINE"
);
},
{
closed = 1;
nodes = (
"168 13 LINE",
"168 507 LINE",
"143 507 LINE",
"143 13 LINE"
);
},
{
closed = 1;
nodes = (
"352 241 LINE SMOOTH",
"466 241 OFFCURVE",
"525 309 OFFCURVE",
"525 378 CURVE SMOOTH",
"525 457 OFFCURVE",
"465 520 OFFCURVE",
"352 520 CURVE SMOOTH",
"30 520 LINE",
"30 497 LINE",
"352 497 LINE SMOOTH",
"451 497 OFFCURVE",
"500 441 OFFCURVE",
"500 378 CURVE SMOOTH",
"500 317 OFFCURVE",
"448 262 OFFCURVE",
"352 262 CURVE SMOOTH",
"163 262 LINE",
"163 241 LINE"
);
}
);
width = 597;
}
);
leftKerningGroup = R.alt;
leftMetricsKey = "=H";
rightKerningGroup = R.alt;
},
{
color = 4;
glyphname = S;
lastChange = "2015-11-10 19:55:44 +0000";
layers = (
{
anchors = (
{
name = bottom;
position = "{309, -10}";
},
{
name = top;
position = "{289, 530}";
}
);
layerId = "5072282B-E254-4F9F-BB63-C24552B293A4";
name = Bold;
paths = (
{
closed = 1;
nodes = (
"461 -10 OFFCURVE",
"536 45 OFFCURVE",
"536 135 CURVE SMOOTH",
"536 232 OFFCURVE",
"448 274 OFFCURVE",
"328 307 CURVE SMOOTH",
"218 337 OFFCURVE",
"174 354 OFFCURVE",
"174 390 CURVE SMOOTH",
"174 426 OFFCURVE",
"206 447 OFFCURVE",
"257 447 CURVE SMOOTH",
"334 447 OFFCURVE",
"410 399 OFFCURVE",
"449 337 CURVE",
"509 341 LINE",
"509 520 LINE",
"416 520 LINE",
"416 402 LINE",
"467 398 LINE",
"413 475 OFFCURVE",
"340 530 OFFCURVE",
"241 530 CURVE SMOOTH",
"139 530 OFFCURVE",
"65 470 OFFCURVE",
"65 381 CURVE SMOOTH",
"65 302 OFFCURVE",
"119 245 OFFCURVE",
"245 213 CURVE SMOOTH",
"377 179 OFFCURVE",
"427 160 OFFCURVE",
"427 122 CURVE SMOOTH",
"427 89 OFFCURVE",
"396 71 OFFCURVE",
"351 71 CURVE SMOOTH",
"275 71 OFFCURVE",
"184 116 OFFCURVE",
"127 188 CURVE",
"64 184 LINE",
"64 1 LINE",
"158 1 LINE",
"158 117 LINE",
"100 123 LINE",
"168 49 OFFCURVE",
"251 -10 OFFCURVE",
"357 -10 CURVE SMOOTH"
);
}
);
width = 575;
},
{
anchors = (
{
name = bottom;
position = "{294, -10}";
},
{
name = top;
position = "{274, 530}";
}
);
layerId = "751C6B1B-F263-4325-91C2-F6642B60D73C";
name = SemiLight;
paths = (
{
closed = 1;
nodes = (
"404 218 OFFCURVE",
"467 186 OFFCURVE",
"467 129 CURVE SMOOTH",
"467 69 OFFCURVE",
"410 38 OFFCURVE",
"330 38 CURVE SMOOTH",
"248 38 OFFCURVE",
"174 67 OFFCURVE",
"110 120 CURVE",
"94 101 LINE",
"160 45 OFFCURVE",
"242 15 OFFCURVE",
"330 15 CURVE SMOOTH",
"428 15 OFFCURVE",
"492 58 OFFCURVE",
"492 129 CURVE SMOOTH",
"492 196 OFFCURVE",
"430 233 OFFCURVE",
"304 268 CURVE SMOOTH",
"203 296 OFFCURVE",
"134 324 OFFCURVE",
"134 384 CURVE SMOOTH",
"134 444 OFFCURVE",
"188 478 OFFCURVE",
"266 478 CURVE SMOOTH",
"352 478 OFFCURVE",
"412 444 OFFCURVE",
"451 412 CURVE",
"465 431 LINE",
"424 465 OFFCURVE",
"356 501 OFFCURVE",
"266 501 CURVE SMOOTH",
"172 501 OFFCURVE",
"109 455 OFFCURVE",
"109 384 CURVE SMOOTH",
"109 314 OFFCURVE",
"180 275 OFFCURVE",
"294 246 CURVE SMOOTH"
);
}
);
width = 575;
}
);
leftKerningGroup = S;
rightKerningGroup = S;
unicode = 0053;
},
{
color = 10;
glyphname = Germandbls;
lastChange = "2015-11-10 19:21:47 +0000";
layers = (
{
layerId = "5072282B-E254-4F9F-BB63-C24552B293A4";
name = Bold;
paths = (
{
closed = 1;
nodes = (
"349 0 LINE",
"349 117 LINE",
"301 123 LINE",
"360 29 OFFCURVE",
"411 -10 OFFCURVE",
"491 -10 CURVE SMOOTH",
"577 -10 OFFCURVE",
"657 48 OFFCURVE",
"657 139 CURVE SMOOTH",
"657 227 OFFCURVE",
"589 284 OFFCURVE",
"510 330 CURVE",
"639 496 LINE",
"571 551 LINE",
"371 288 LINE",
"524 226 OFFCURVE",
"548 176 OFFCURVE",
"548 139 CURVE SMOOTH",
"548 100 OFFCURVE",
"515 71 OFFCURVE",
"471 71 CURVE SMOOTH",
"422 71 OFFCURVE",
"364 107 OFFCURVE",
"318 188 CURVE",
"255 184 LINE",
"255 0 LINE"
);
},
{
closed = 1;
nodes = (
"171 535 OFFCURVE",
"88 467 OFFCURVE",
"88 324 CURVE SMOOTH",
"88 83 LINE",
"5 83 LINE",
"5 0 LINE",
"191 0 LINE",
"191 326 LINE SMOOTH",
"191 412 OFFCURVE",
"238 448 OFFCURVE",
"303 448 CURVE SMOOTH",
"373 448 OFFCURVE",
"432 410 OFFCURVE",
"493 354 CURVE",
"550 417 LINE",
"461 496 OFFCURVE",
"384 535 OFFCURVE",
"300 535 CURVE SMOOTH"
);
}
);
width = 682;
},
{
background = {
paths = (
{
closed = 1;
nodes = (
"495 238 LINE",
"810 215 OFFCURVE",
"874 160 OFFCURVE",
"874 98 CURVE SMOOTH",
"874 37 OFFCURVE",
"803 3 OFFCURVE",
"719 3 CURVE SMOOTH",
"605 3 OFFCURVE",
"477 64 OFFCURVE",
"381 168 CURVE",
"381 0 LINE",
"404 0 LINE",
"404 130 LINE",
"389 130 LINE",
"462 55 OFFCURVE",
"581 -20 OFFCURVE",
"718 -20 CURVE SMOOTH",
"819 -20 OFFCURVE",
"898 24 OFFCURVE",
"898 98 CURVE SMOOTH",
"898 182 OFFCURVE",
"802 234 OFFCURVE",
"548 253 CURVE",
"866 499 LINE",
"853 518 LINE"
);
},
{
closed = 1;
nodes = (
"212 0 LINE",
"212 23 LINE",
"13 23 LINE",
"13 0 LINE"
);
},
{
closed = 1;
nodes = (
"725 400 LINE",
"660 458 OFFCURVE",
"568 518 OFFCURVE",
"445 518 CURVE SMOOTH",
"290 518 OFFCURVE",
"195 424 OFFCURVE",
"195 286 CURVE SMOOTH",
"195 0 LINE",
"220 0 LINE",
"220 288 LINE SMOOTH",
"220 410 OFFCURVE",
"307 495 OFFCURVE",
"443 495 CURVE SMOOTH",
"564 495 OFFCURVE",
"641 441 OFFCURVE",
"706 385 CURVE"
);
}
);
};
layerId = "751C6B1B-F263-4325-91C2-F6642B60D73C";
name = SemiLight;
paths = (
{
closed = 1;
nodes = (
"250 0 LINE",
"250 111 LINE",
"233 122 LINE",
"276 38 OFFCURVE",
"355 -10 OFFCURVE",
"434 -10 CURVE SMOOTH",
"514 -10 OFFCURVE",
"578 39 OFFCURVE",
"578 109 CURVE SMOOTH",
"578 183 OFFCURVE",
"515 232 OFFCURVE",
"359 262 CURVE",
"549 513 LINE",
"532 525 LINE",
"323 248 LINE",
"504 215 OFFCURVE",
"554 166 OFFCURVE",
"554 109 CURVE SMOOTH",
"554 52 OFFCURVE",
"498 13 OFFCURVE",
"434 13 CURVE SMOOTH",
"357 13 OFFCURVE",
"287 61 OFFCURVE",
"233 149 CURVE",
"227 148 LINE",
"227 0 LINE"
);
},
{
closed = 1;
nodes = (
"177 532 OFFCURVE",
"113 466 OFFCURVE",
"113 353 CURVE SMOOTH",
"113 23 LINE",
"0 23 LINE",
"0 0 LINE",
"138 0 LINE",
"138 355 LINE SMOOTH",
"138 457 OFFCURVE",
"196 509 OFFCURVE",
"273 509 CURVE SMOOTH",
"336 509 OFFCURVE",
"401 478 OFFCURVE",
"468 414 CURVE",
"484 432 LINE",
"415 498 OFFCURVE",
"346 532 OFFCURVE",
"273 532 CURVE SMOOTH"
);
}
);
width = 608;
}
);
leftKerningGroup = Germandbls;
rightKerningGroup = Germandbls;
unicode = 1E9E;
},
{
color = 10;
glyphname = T;
lastChange = "2015-11-10 19:21:47 +0000";
layers = (
{
anchors = (
{
name = bottom;
position = "{287, 0}";
},
{
name = center;
position = "{287, 245}";
},
{
name = top;
position = "{287, 520}";
}
);
layerId = "5072282B-E254-4F9F-BB63-C24552B293A4";
name = Bold;
paths = (
{
closed = 1;
nodes = (
"108 332 LINE",
"108 437 LINE",
"469 437 LINE",
"469 332 LINE",
"562 332 LINE",
"562 520 LINE",
"15 520 LINE",
"15 332 LINE"
);
},
{
closed = 1;
nodes = (
"430 0 LINE",
"430 83 LINE",
"146 83 LINE",
"146 0 LINE"
);
},
{
closed = 1;
nodes = (
"341 53 LINE",
"341 474 LINE",
"237 474 LINE",
"237 53 LINE"
);
}
);
width = 578;
},
{
anchors = (
{
name = bottom;
position = "{270, 0}";
},
{
name = center;
position = "{270, 245}";
},
{
name = top;
position = "{270, 490}";
}
);
layerId = "751C6B1B-F263-4325-91C2-F6642B60D73C";
name = SemiLight;
paths = (
{
closed = 1;
nodes = (
"50 384 LINE",
"50 497 LINE",
"499 497 LINE",
"499 384 LINE",
"524 384 LINE",
"524 520 LINE",
"25 520 LINE",
"25 384 LINE"
);
},
{
closed = 1;
nodes = (
"405 0 LINE",
"405 23 LINE",
"144 23 LINE",
"144 0 LINE"
);
},
{
closed = 1;
nodes = (
"287 13 LINE",
"287 507 LINE",
"262 507 LINE",
"262 13 LINE"
);
}
);
width = 549;
}
);
leftKerningGroup = T;
rightKerningGroup = T;
unicode = 0054;
},
{
color = 10;
glyphname = U;
lastChange = "2015-11-10 19:21:47 +0000";
layers = (
{
anchors = (
{
name = bottom;
position = "{338, -10}";
},
{
name = ogonek;
position = "{347, -9}";
},
{
name = top;
position = "{338, 515}";
},
{
name = topright;
position = "{657, 490}";
}
);
layerId = "5072282B-E254-4F9F-BB63-C24552B293A4";
name = Bold;
paths = (
{
closed = 1;
nodes = (
"475 -10 OFFCURVE",
"577 79 OFFCURVE",
"577 204 CURVE SMOOTH",
"577 475 LINE",
"472 475 LINE",
"474 210 LINE SMOOTH",
"474 131 OFFCURVE",
"414 77 OFFCURVE",
"336 77 CURVE SMOOTH",
"257 77 OFFCURVE",
"200 130 OFFCURVE",
"200 209 CURVE SMOOTH",
"201 475 LINE",
"95 475 LINE",
"95 204 LINE SMOOTH",
"95 79 OFFCURVE",
"192 -10 OFFCURVE",
"336 -10 CURVE SMOOTH"
);
},
{
closed = 1;
nodes = (
"287 437 LINE",
"287 520 LINE",
"5 520 LINE",
"5 437 LINE"
);
},
{
closed = 1;
nodes = (
"667 437 LINE",
"667 520 LINE",
"387 520 LINE",
"387 437 LINE"
);
}
);
width = 671;
},
{
anchors = (
{
name = bottom;
position = "{337, -10}";
},
{
name = ogonek;
position = "{346, -9}";
},
{
name = top;
position = "{342, 490}";
},
{
name = topright;
position = "{658, 490}";
}
);
background = {
paths = (
{
closed = 1;
nodes = (
"533 242 LINE",
"533 265 LINE",
"137 265 LINE",
"137 242 LINE"
);
},
{
closed = 1;
nodes = (
"246 0 LINE",
"246 23 LINE",
"5 23 LINE",
"5 0 LINE"
);
},
{
closed = 1;
nodes = (
"142 13 LINE",
"142 509 LINE",
"118 509 LINE",
"118 13 LINE"
);
},
{
closed = 1;
nodes = (
"246 497 LINE",
"246 520 LINE",
"5 520 LINE",
"5 497 LINE"
);
},
{
closed = 1;
nodes = (
"664 0 LINE",
"664 23 LINE",
"423 23 LINE",
"423 0 LINE"
);
},
{
closed = 1;
nodes = (
"552 13 LINE",
"552 509 LINE",
"527 509 LINE",
"527 13 LINE"
);
},
{
closed = 1;
nodes = (
"664 497 LINE",
"664 520 LINE",
"423 520 LINE",
"423 497 LINE"
);
}
);
};
layerId = "751C6B1B-F263-4325-91C2-F6642B60D73C";
name = SemiLight;
paths = (
{
closed = 1;
nodes = (
"475 -10 OFFCURVE",
"555 79 OFFCURVE",
"555 194 CURVE SMOOTH",
"555 507 LINE",
"529 507 LINE",
"529 189 LINE SMOOTH",
"529 89 OFFCURVE",
"453 13 OFFCURVE",
"337 13 CURVE SMOOTH",
"220 13 OFFCURVE",
"144 89 OFFCURVE",
"144 190 CURVE SMOOTH",
"144 507 LINE",
"118 507 LINE",
"118 194 LINE SMOOTH",
"118 79 OFFCURVE",
"199 -10 OFFCURVE",
"337 -10 CURVE SMOOTH"
);
},
{
closed = 1;
nodes = (
"257 497 LINE",
"257 520 LINE",
"5 520 LINE",
"5 497 LINE"
);
},
{
closed = 1;
nodes = (
"668 497 LINE",
"668 520 LINE",
"416 520 LINE",
"416 497 LINE"
);
}
);
width = 673;
}
);
leftKerningGroup = U;
rightKerningGroup = U;
unicode = 0055;
},
{
color = 10;
glyphname = V;
lastChange = "2015-11-10 19:21:47 +0000";
layers = (
{
anchors = (
{
name = bottom;
position = "{336, 0}";
},
{
name = top;
position = "{336, 490}";
}
);
layerId = "5072282B-E254-4F9F-BB63-C24552B293A4";
name = Bold;
paths = (
{
closed = 1;
nodes = (
"0 520 LINE",
"0 437 LINE",
"267 437 LINE",
"267 520 LINE"
);
},
{
closed = 1;
nodes = (
"406 520 LINE",
"406 437 LINE",
"673 437 LINE",
"673 520 LINE"
);
},
{
closed = 1;
nodes = (
"363 -10 LINE",
"624 507 LINE",
"519 507 LINE",
"339 125 LINE",
"159 507 LINE",
"49 507 LINE",
"309 -10 LINE"
);
}
);
width = 673;
},
{
anchors = (
{
name = bottom;
position = "{323, 0}";
},
{
name = top;
position = "{323, 490}";
}
);
layerId = "751C6B1B-F263-4325-91C2-F6642B60D73C";
name = SemiLight;
paths = (
{
closed = 1;
nodes = (
"0 520 LINE",
"0 497 LINE",
"227 497 LINE",
"227 520 LINE"
);
},
{
closed = 1;
nodes = (
"409 520 LINE",
"409 497 LINE",
"646 497 LINE",
"646 520 LINE"
);
},
{
closed = 1;
nodes = (
"327 -10 LINE",
"552 507 LINE",
"523 507 LINE",
"324 40 LINE",
"124 507 LINE",
"95 507 LINE",
"319 -10 LINE"
);
}
);
width = 646;
}
);
leftKerningGroup = V;
rightKerningGroup = V;
unicode = 0056;
},
{
color = 10;
glyphname = W;
lastChange = "2015-11-10 19:21:47 +0000";
layers = (
{
anchors = (
{
name = bottom;
position = "{439, 0}";
},
{
name = top;
position = "{439, 520}";
}
);
layerId = "5072282B-E254-4F9F-BB63-C24552B293A4";
name = Bold;
paths = (
{
closed = 1;
nodes = (
"315 -10 LINE",
"559 507 LINE",
"461 507 LINE",
"297 129 LINE",
"152 507 LINE",
"39 507 LINE",
"261 -10 LINE"
);
},
{
closed = 1;
nodes = (
"252 437 LINE",
"252 520 LINE",
"5 520 LINE",
"5 437 LINE"
);
},
{
closed = 1;
nodes = (
"618 -10 LINE",
"861 507 LINE",
"763 507 LINE",
"599 129 LINE",
"459 446 LINE",
"408 333 LINE",
"564 -10 LINE"
);
},
{
closed = 1;
nodes = (
"582 437 LINE",
"582 520 LINE",
"315 520 LINE",
"315 437 LINE"
);
},
{
closed = 1;
nodes = (
"894 437 LINE",
"894 520 LINE",
"627 520 LINE",
"627 437 LINE"
);
}
);
width = 899;
},
{
anchors = (
{
name = bottom;
position = "{459, 0}";
},
{
name = top;
position = "{459, 520}";
}
);
background = {
anchors = (
{
name = top;
position = "{462, 520}";
}
);
};
layerId = "751C6B1B-F263-4325-91C2-F6642B60D73C";
name = SemiLight;
paths = (
{
closed = 1;
nodes = (
"307 -10 LINE",
"572 507 LINE",
"546 507 LINE",
"307 40 LINE",
"144 507 LINE",
"115 507 LINE",
"299 -10 LINE"
);
},
{
closed = 1;
nodes = (
"247 497 LINE",
"247 520 LINE",
"20 520 LINE",
"20 497 LINE"
);
},
{
closed = 1;
nodes = (
"612 -10 LINE",
"797 507 LINE",
"770 507 LINE",
"607 40 LINE",
"369 507 LINE",
"340 507 LINE",
"604 -10 LINE"
);
},
{
closed = 1;
nodes = (
"631 497 LINE",
"631 520 LINE",
"275 520 LINE",
"275 497 LINE"
);
},
{
closed = 1;
nodes = (
"891 497 LINE",
"891 520 LINE",
"654 520 LINE",
"654 497 LINE"
);
}
);
width = 911;
}
);
leftKerningGroup = W;
rightKerningGroup = W;
unicode = 0057;
},
{
color = 10;
glyphname = X;
lastChange = "2015-11-10 19:21:47 +0000";
layers = (
{
anchors = (
{
name = bottom;
position = "{315, 0}";
},
{
name = top;
position = "{315, 490}";
}
);
layerId = "5072282B-E254-4F9F-BB63-C24552B293A4";
name = Bold;
paths = (
{
closed = 1;
nodes = (
"621 0 LINE",
"621 83 LINE",
"358 83 LINE",
"358 0 LINE"
);
},
{
closed = 1;
nodes = (
"273 0 LINE",
"273 83 LINE",
"10 83 LINE",
"10 0 LINE"
);
},
{
closed = 1;
nodes = (
"579 67 LINE",
"362 287 LINE",
"351 287 LINE",
"194 454 LINE",
"51 454 LINE",
"274 228 LINE",
"286 228 LINE",
"436 67 LINE"
);
},
{
closed = 1;
nodes = (
"179 67 LINE",
"336 234 LINE",
"351 234 LINE",
"567 454 LINE",
"446 454 LINE",
"296 293 LINE",
"280 293 LINE",
"57 67 LINE"
);
},
{
closed = 1;
nodes = (
"274 437 LINE",
"274 520 LINE SMOOTH",
"10 520 LINE",
"10 437 LINE"
);
},
{
closed = 1;
nodes = (
"621 437 LINE",
"621 520 LINE",
"357 520 LINE SMOOTH",
"357 437 LINE"
);
}
);
width = 630;
},
{
anchors = (
{
name = bottom;
position = "{305, 0}";
},
{
name = top;
position = "{305, 490}";
}
);
background = {
anchors = (
{
name = bottom;
position = "{310, 0}";
},
{
name = top;
position = "{310, 490}";
}
);
paths = (
{
closed = 1;
nodes = (
"509 12 LINE",
"119 507 LINE",
"82 507 LINE",
"472 12 LINE"
);
},
{
closed = 1;
nodes = (
"236 0 LINE",
"236 23 LINE",
"0 23 LINE",
"0 0 LINE"
);
},
{
closed = 1;
nodes = (
"605 0 LINE",
"605 23 LINE",
"369 23 LINE",
"369 0 LINE"
);
},
{
closed = 1;
nodes = (
"133 12 LINE",
"310 240 LINE",
"314 240 LINE",
"523 507 LINE",
"488 507 LINE",
"299 263 LINE",
"295 263 LINE",
"98 12 LINE"
);
},
{
closed = 1;
nodes = (
"237 497 LINE",
"237 520 LINE SMOOTH",
"0 520 LINE",
"0 497 LINE"
);
},
{
closed = 1;
nodes = (
"605 497 LINE",
"605 520 LINE",
"368 520 LINE SMOOTH",
"368 497 LINE"
);
}
);
};
layerId = "751C6B1B-F263-4325-91C2-F6642B60D73C";
name = SemiLight;
paths = (
{
closed = 1;
nodes = (
"605 0 LINE",
"605 23 LINE",
"369 23 LINE",
"369 0 LINE"
);
},
{
closed = 1;
nodes = (
"236 0 LINE",
"236 23 LINE",
"0 23 LINE",
"0 0 LINE"
);
},
{
closed = 1;
nodes = (
"509 12 LINE",
"314 263 LINE",
"310 263 LINE",
"119 507 LINE",
"82 507 LINE",
"291 240 LINE",
"295 240 LINE",
"472 12 LINE"
);
},
{
closed = 1;
nodes = (
"133 12 LINE",
"312 239 LINE",
"316 245 LINE",
"523 507 LINE",
"488 507 LINE",
"296 264 LINE",
"292 258 LINE",
"98 12 LINE"
);
},
{
closed = 1;
nodes = (
"237 497 LINE",
"237 520 LINE SMOOTH",
"0 520 LINE",
"0 497 LINE"
);
},
{
closed = 1;
nodes = (
"605 497 LINE",
"605 520 LINE",
"368 520 LINE SMOOTH",
"368 497 LINE"
);
}
);
width = 605;
}
);
leftKerningGroup = X;
rightKerningGroup = X;
unicode = 0058;
},
{
color = 10;
glyphname = Y;
lastChange = "2015-11-10 19:21:47 +0000";
layers = (
{
anchors = (
{
name = bottom;
position = "{312, 0}";
},
{
name = top;
position = "{312, 515}";
}
);
layerId = "5072282B-E254-4F9F-BB63-C24552B293A4";
name = Bold;
paths = (
{
closed = 1;
nodes = (
"337 175 LINE",
"562 460 LINE",
"447 460 LINE",
"317 275 LINE",
"178 461 LINE",
"54 461 LINE",
"283 175 LINE"
);
},
{
closed = 1;
nodes = (
"457 0 LINE",
"457 83 LINE",
"167 83 LINE",
"167 0 LINE"
);
},
{
closed = 1;
nodes = (
"365 41 LINE",
"365 242 LINE",
"259 242 LINE",
"259 41 LINE"
);
},
{
closed = 1;
nodes = (
"246 437 LINE",
"246 520 LINE",
"9 520 LINE",
"9 437 LINE"
);
},
{
closed = 1;
nodes = (
"614 437 LINE",
"614 520 LINE",
"377 520 LINE",
"377 437 LINE"
);
}
);
width = 622;
},
{
anchors = (
{
name = bottom;
position = "{309, 0}";
},
{
name = top;
position = "{309, 490}";
}
);
layerId = "751C6B1B-F263-4325-91C2-F6642B60D73C";
name = SemiLight;
paths = (
{
closed = 1;
nodes = (
"319 178 LINE",
"530 510 LINE",
"502 510 LINE",
"311 207 LINE",
"117 511 LINE",
"88 511 LINE",
"301 178 LINE"
);
},
{
closed = 1;
nodes = (
"441 0 LINE",
"441 23 LINE",
"180 23 LINE",
"180 0 LINE"
);
},
{
closed = 1;
nodes = (
"323 0 LINE",
"323 204 LINE",
"298 204 LINE",
"298 0 LINE"
);
},
{
closed = 1;
nodes = (
"232 497 LINE",
"232 520 LINE",
"5 520 LINE",
"5 497 LINE"
);
},
{
closed = 1;
nodes = (
"615 497 LINE",
"615 520 LINE",
"389 520 LINE",
"389 497 LINE"
);
}
);
width = 620;
}
);
leftKerningGroup = Y;
rightKerningGroup = Y;
unicode = 0059;
},
{
color = 10;
glyphname = Z;
lastChange = "2015-11-10 19:21:47 +0000";
layers = (
{
anchors = (
{
name = bottom;
position = "{308, 0}";
},
{
name = top;
position = "{308, 520}";
}
);
layerId = "5072282B-E254-4F9F-BB63-C24552B293A4";
name = Bold;
paths = (
{
closed = 1;
nodes = (
"536 0 LINE",
"536 188 LINE",
"443 188 LINE",
"443 83 LINE",
"122 83 LINE",
"87 29 LINE",
"92 21 LINE",
"142 32 LINE",
"532 447 LINE",
"532 520 LINE",
"50 520 LINE",
"50 332 LINE",
"143 332 LINE",
"143 437 LINE",
"463 437 LINE",
"497 494 LINE",
"493 499 LINE",
"443 488 LINE",
"53 73 LINE",
"53 0 LINE"
);
}
);
width = 581;
},
{
anchors = (
{
name = bottom;
position = "{272, 0}";
},
{
name = top;
position = "{272, 520}";
}
);
layerId = "751C6B1B-F263-4325-91C2-F6642B60D73C";
name = SemiLight;
paths = (
{
closed = 1;
nodes = (
"488 0 LINE",
"488 136 LINE",
"463 136 LINE",
"463 23 LINE",
"92 23 LINE",
"72 20 LINE",
"72 21 LINE",
"92 32 LINE",
"484 507 LINE",
"484 520 LINE",
"40 520 LINE",
"40 384 LINE",
"65 384 LINE",
"65 497 LINE",
"435 497 LINE",
"455 500 LINE",
"455 499 LINE",
"435 488 LINE",
"43 13 LINE",
"43 0 LINE"
);
}
);
width = 518;
}
);
leftKerningGroup = Z;
rightKerningGroup = Z;
unicode = 005A;
},
{
color = 10;
glyphname = a;
lastChange = "2015-11-10 19:21:47 +0000";
layers = (
{
anchors = (
{
name = bottom;
position = "{165, -10}";
},
{
name = ogonek;
position = "{458, 9}";
},
{
name = top;
position = "{233, 367}";
}
);
layerId = "5072282B-E254-4F9F-BB63-C24552B293A4";
name = Bold;
paths = (
{
closed = 1;
nodes = (
"77 248 LINE",
"129 270 OFFCURVE",
"174 283 OFFCURVE",
"219 283 CURVE SMOOTH",
"266 283 OFFCURVE",
"306 266 OFFCURVE",
"306 225 CURVE SMOOTH",
"306 95 LINE SMOOTH",
"306 30 OFFCURVE",
"346 -6 OFFCURVE",
"394 -6 CURVE SMOOTH",
"424 -6 OFFCURVE",
"449 3 OFFCURVE",
"462 10 CURVE",
"442 80 LINE",
"437 78 OFFCURVE",
"430 75 OFFCURVE",
"422 75 CURVE SMOOTH",
"409 75 OFFCURVE",
"400 84 OFFCURVE",
"400 104 CURVE SMOOTH",
"400 221 LINE SMOOTH",
"400 310 OFFCURVE",
"342 366 OFFCURVE",
"233 366 CURVE SMOOTH",
"168 366 OFFCURVE",
"119 351 OFFCURVE",
"55 323 CURVE"
);
},
{
closed = 1;
nodes = (
"221 -11 OFFCURVE",
"276 18 OFFCURVE",
"321 61 CURVE",
"323 126 LINE",
"276 89 OFFCURVE",
"230 70 OFFCURVE",
"193 70 CURVE SMOOTH",
"163 70 OFFCURVE",
"144 84 OFFCURVE",
"144 105 CURVE SMOOTH",
"144 134 OFFCURVE",
"175 147 OFFCURVE",
"207 147 CURVE SMOOTH",
"243 147 OFFCURVE",
"278 143 OFFCURVE",
"323 131 CURVE",
"323 193 LINE",
"279 207 OFFCURVE",
"233 218 OFFCURVE",
"182 218 CURVE SMOOTH",
"108 218 OFFCURVE",
"35 177 OFFCURVE",
"35 101 CURVE SMOOTH",
"35 26 OFFCURVE",
"98 -11 OFFCURVE",
"164 -11 CURVE SMOOTH"
);
}
);
width = 477;
},
{
anchors = (
{
name = bottom;
position = "{175, -10}";
},
{
name = ogonek;
position = "{427, 7}";
},
{
name = top;
position = "{224, 377}";
}
);
background = {
paths = (
{
closed = 1;
nodes = (
"205 -11 OFFCURVE",
"268 18 OFFCURVE",
"313 61 CURVE",
"315 126 LINE",
"265 87 OFFCURVE",
"207 70 OFFCURVE",
"175 70 CURVE SMOOTH",
"145 70 OFFCURVE",
"126 79 OFFCURVE",
"126 105 CURVE SMOOTH",
"126 140 OFFCURVE",
"167 147 OFFCURVE",
"204 147 CURVE SMOOTH",
"235 147 OFFCURVE",
"268 143 OFFCURVE",
"315 131 CURVE",
"315 193 LINE",
"271 209 OFFCURVE",
"228 218 OFFCURVE",
"177 218 CURVE SMOOTH",
"98 218 OFFCURVE",
"17 180 OFFCURVE",
"17 101 CURVE SMOOTH",
"17 23 OFFCURVE",
"82 -11 OFFCURVE",
"146 -11 CURVE SMOOTH"
);
},
{
closed = 1;
nodes = (
"59 248 LINE",
"111 270 OFFCURVE",
"161 283 OFFCURVE",
"206 283 CURVE SMOOTH",
"253 283 OFFCURVE",
"294 266 OFFCURVE",
"294 225 CURVE SMOOTH",
"294 90 LINE SMOOTH",
"294 27 OFFCURVE",
"334 -6 OFFCURVE",
"386 -6 CURVE SMOOTH",
"404 -6 OFFCURVE",
"420 -3 OFFCURVE",
"435 1 CURVE",
"435 82 LINE",
"428 79 OFFCURVE",
"423 78 OFFCURVE",
"416 78 CURVE SMOOTH",
"404 78 OFFCURVE",
"392 84 OFFCURVE",
"392 110 CURVE SMOOTH",
"392 221 LINE SMOOTH",
"392 310 OFFCURVE",
"334 366 OFFCURVE",
"225 366 CURVE SMOOTH",
"158 366 OFFCURVE",
"101 351 OFFCURVE",
"37 323 CURVE"
);
}
);
};
layerId = "751C6B1B-F263-4325-91C2-F6642B60D73C";
name = SemiLight;
paths = (
{
closed = 1;
nodes = (
"72 306 LINE",
"118 327 OFFCURVE",
"166 343 OFFCURVE",
"224 343 CURVE SMOOTH",
"281 343 OFFCURVE",
"331 317 OFFCURVE",
"331 233 CURVE SMOOTH",
"331 73 LINE SMOOTH",
"331 23 OFFCURVE",
"350 -5 OFFCURVE",
"387 -5 CURVE SMOOTH",
"404 -5 OFFCURVE",
"418 1 OFFCURVE",
"427 7 CURVE",
"419 28 LINE",
"411 23 OFFCURVE",
"401 18 OFFCURVE",
"389 18 CURVE SMOOTH",
"366 18 OFFCURVE",
"355 37 OFFCURVE",
"355 73 CURVE SMOOTH",
"355 233 LINE SMOOTH",
"355 333 OFFCURVE",
"294 367 OFFCURVE",
"224 367 CURVE SMOOTH",
"166 367 OFFCURVE",
"112 350 OFFCURVE",
"65 329 CURVE"
);
},
{
closed = 1;
nodes = (
"229 -10 OFFCURVE",
"291 25 OFFCURVE",
"346 67 CURVE",
"346 90 LINE",
"291 46 OFFCURVE",
"232 13 OFFCURVE",
"175 13 CURVE SMOOTH",
"120 13 OFFCURVE",
"70 43 OFFCURVE",
"70 100 CURVE SMOOTH",
"70 161 OFFCURVE",
"130 191 OFFCURVE",
"194 190 CURVE SMOOTH",
"245 189 OFFCURVE",
"291 180 OFFCURVE",
"346 160 CURVE",
"346 183 LINE",
"295 201 OFFCURVE",
"250 213 OFFCURVE",
"194 213 CURVE SMOOTH",
"107 213 OFFCURVE",
"45 168 OFFCURVE",
"45 100 CURVE SMOOTH",
"45 29 OFFCURVE",
"106 -10 OFFCURVE",
"175 -10 CURVE SMOOTH"
);
}
);
width = 452;
}
);
leftKerningGroup = a;
rightKerningGroup = n;
unicode = 0061;
},
{
color = 10;
glyphname = a.alt;
lastChange = "2015-11-10 19:21:47 +0000";
layers = (
{
anchors = (
{
name = bottom;
position = "{163, -11}";
},
{
name = ogonek;
position = "{445, 5}";
},
{
name = top;
position = "{219, 367}";
}
);
layerId = "5072282B-E254-4F9F-BB63-C24552B293A4";
name = Bold;
paths = (
{
closed = 1;
nodes = (
"449 -6 OFFCURVE",
"489 27 OFFCURVE",
"489 86 CURVE SMOOTH",
"489 133 LINE",
"438 133 LINE",
"438 85 LINE SMOOTH",
"438 71 OFFCURVE",
"433 59 OFFCURVE",
"419 59 CURVE SMOOTH",
"405 59 OFFCURVE",
"400 71 OFFCURVE",
"400 85 CURVE SMOOTH",
"400 221 LINE SMOOTH",
"400 310 OFFCURVE",
"342 366 OFFCURVE",
"233 366 CURVE SMOOTH",
"168 366 OFFCURVE",
"119 351 OFFCURVE",
"55 323 CURVE",
"77 248 LINE",
"129 270 OFFCURVE",
"174 283 OFFCURVE",
"219 283 CURVE SMOOTH",
"266 283 OFFCURVE",
"306 266 OFFCURVE",
"306 225 CURVE SMOOTH",
"306 86 LINE SMOOTH",
"306 31 OFFCURVE",
"341 -6 OFFCURVE",
"399 -6 CURVE SMOOTH"
);
},
{
closed = 1;
nodes = (
"221 -11 OFFCURVE",
"276 18 OFFCURVE",
"321 61 CURVE",
"323 126 LINE",
"276 89 OFFCURVE",
"230 70 OFFCURVE",
"193 70 CURVE SMOOTH",
"163 70 OFFCURVE",
"144 84 OFFCURVE",
"144 105 CURVE SMOOTH",
"144 134 OFFCURVE",
"175 147 OFFCURVE",
"207 147 CURVE SMOOTH",
"243 147 OFFCURVE",
"278 143 OFFCURVE",
"323 131 CURVE",
"323 193 LINE",
"279 207 OFFCURVE",
"233 218 OFFCURVE",
"182 218 CURVE SMOOTH",
"108 218 OFFCURVE",
"35 177 OFFCURVE",
"35 101 CURVE SMOOTH",
"35 26 OFFCURVE",
"98 -11 OFFCURVE",
"164 -11 CURVE SMOOTH"
);
}
);
width = 484;
},
{
anchors = (
{
name = bottom;
position = "{170, -10}";
},
{
name = ogonek;
position = "{411, -13}";
},
{
name = top;
position = "{210, 377}";
}
);
background = {
paths = (
{
closed = 1;
nodes = (
"452 -5 OFFCURVE",
"481 28 OFFCURVE",
"481 70 CURVE SMOOTH",
"481 89 LINE",
"458 89 LINE",
"458 70 LINE SMOOTH",
"458 39 OFFCURVE",
"444 19 OFFCURVE",
"412 19 CURVE SMOOTH",
"383 19 OFFCURVE",
"364 37 OFFCURVE",
"364 70 CURVE SMOOTH",
"364 256 LINE",
"364 321 OFFCURVE",
"320 377 OFFCURVE",
"225 377 CURVE",
"182 377 OFFCURVE",
"128 369 OFFCURVE",
"59 350 CURVE",
"59 326 LINE",
"128 346 OFFCURVE",
"182 353 OFFCURVE",
"225 353 CURVE",
"307 353 OFFCURVE",
"340 305 OFFCURVE",
"340 256 CURVE",
"340 70 LINE SMOOTH",
"340 26 OFFCURVE",
"367 -5 OFFCURVE",
"411 -5 CURVE SMOOTH"
);
},
{
closed = 1;
nodes = (
"222 -10 OFFCURVE",
"283 9 OFFCURVE",
"350 77 CURVE",
"350 96 LINE",
"283 35 OFFCURVE",
"220 14 OFFCURVE",
"171 14 CURVE SMOOTH",
"131 14 OFFCURVE",
"69 39 OFFCURVE",
"69 107 CURVE SMOOTH",
"69 168 OFFCURVE",
"129 201 OFFCURVE",
"187 201 CURVE SMOOTH",
"229 201 OFFCURVE",
"283 197 OFFCURVE",
"350 175 CURVE",
"350 194 LINE",
"287 214 OFFCURVE",
"244 225 OFFCURVE",
"187 225 CURVE SMOOTH",
"122 225 OFFCURVE",
"45 185 OFFCURVE",
"45 107 CURVE SMOOTH",
"45 22 OFFCURVE",
"116 -10 OFFCURVE",
"171 -10 CURVE SMOOTH"
);
}
);
};
layerId = "751C6B1B-F263-4325-91C2-F6642B60D73C";
name = SemiLight;
paths = (
{
closed = 1;
nodes = (
"434 -5 OFFCURVE",
"459 26 OFFCURVE",
"459 68 CURVE SMOOTH",
"459 87 LINE",
"436 87 LINE",
"436 68 LINE SMOOTH",
"436 39 OFFCURVE",
"422 18 OFFCURVE",
"396 18 CURVE SMOOTH",
"371 18 OFFCURVE",
"355 37 OFFCURVE",
"355 70 CURVE SMOOTH",
"355 233 LINE SMOOTH",
"355 333 OFFCURVE",
"294 367 OFFCURVE",
"224 367 CURVE SMOOTH",
"166 367 OFFCURVE",
"112 350 OFFCURVE",
"65 329 CURVE",
"72 306 LINE",
"118 327 OFFCURVE",
"166 343 OFFCURVE",
"224 343 CURVE SMOOTH",
"281 343 OFFCURVE",
"331 317 OFFCURVE",
"331 233 CURVE SMOOTH",
"331 70 LINE SMOOTH",
"331 26 OFFCURVE",
"357 -5 OFFCURVE",
"396 -5 CURVE SMOOTH"
);
},
{
closed = 1;
nodes = (
"229 -10 OFFCURVE",
"291 25 OFFCURVE",
"346 67 CURVE",
"346 90 LINE",
"291 46 OFFCURVE",
"232 13 OFFCURVE",
"175 13 CURVE SMOOTH",
"120 13 OFFCURVE",
"70 43 OFFCURVE",
"70 100 CURVE SMOOTH",
"70 161 OFFCURVE",
"130 191 OFFCURVE",
"194 190 CURVE SMOOTH",
"245 189 OFFCURVE",
"291 180 OFFCURVE",
"346 160 CURVE",
"346 183 LINE",
"295 201 OFFCURVE",
"250 213 OFFCURVE",
"194 213 CURVE SMOOTH",
"107 213 OFFCURVE",
"45 168 OFFCURVE",
"45 100 CURVE SMOOTH",
"45 29 OFFCURVE",
"106 -10 OFFCURVE",
"175 -10 CURVE SMOOTH"
);
}
);
width = 464;
}
);
leftKerningGroup = a.alt;
rightKerningGroup = a.alt;
},
{
color = 10;
glyphname = a.alt2;
lastChange = "2015-11-10 19:21:47 +0000";
layers = (
{
anchors = (
{
name = bottom;
position = "{208, -12}";
},
{
name = ogonek;
position = "{491, 9}";
},
{
name = top;
position = "{206, 367}";
}
);
layerId = "5072282B-E254-4F9F-BB63-C24552B293A4";
name = Bold;
paths = (
{
closed = 1;
nodes = (
"297 -11 OFFCURVE",
"350 53 OFFCURVE",
"388 92 CURVE",
"388 165 LINE",
"346 123 OFFCURVE",
"292 74 OFFCURVE",
"235 73 CURVE SMOOTH",
"173 72 OFFCURVE",
"134 115 OFFCURVE",
"134 176 CURVE SMOOTH",
"134 239 OFFCURVE",
"178 285 OFFCURVE",
"245 285 CURVE SMOOTH",
"300 285 OFFCURVE",
"354 241 OFFCURVE",
"388 198 CURVE",
"388 265 LINE",
"355 307 OFFCURVE",
"307 367 OFFCURVE",
"220 367 CURVE SMOOTH",
"106 367 OFFCURVE",
"25 286 OFFCURVE",
"25 176 CURVE SMOOTH",
"25 67 OFFCURVE",
"107 -11 OFFCURVE",
"207 -11 CURVE SMOOTH"
);
},
{
closed = 1;
nodes = (
"454 -6 OFFCURVE",
"474 2 OFFCURVE",
"492 10 CURVE",
"472 80 LINE",
"466 78 OFFCURVE",
"462 76 OFFCURVE",
"454 76 CURVE SMOOTH",
"442 76 OFFCURVE",
"430 82 OFFCURVE",
"430 105 CURVE SMOOTH",
"430 367 LINE",
"331 348 LINE",
"331 95 LINE SMOOTH",
"331 32 OFFCURVE",
"371 -6 OFFCURVE",
"424 -6 CURVE SMOOTH"
);
}
);
width = 491;
},
{
anchors = (
{
name = bottom;
position = "{214, -10}";
},
{
name = ogonek;
position = "{448, -2}";
},
{
name = top;
position = "{214, 367}";
}
);
background = {
paths = (
{
closed = 1;
nodes = (
"382 83 LINE SMOOTH",
"382 39 OFFCURVE",
"412 8 OFFCURVE",
"456 8 CURVE SMOOTH",
"497 8 OFFCURVE",
"523 45 OFFCURVE",
"523 83 CURVE SMOOTH",
"523 102 LINE",
"501 102 LINE",
"501 83 LINE SMOOTH",
"501 55 OFFCURVE",
"490 32 OFFCURVE",
"457 32 CURVE SMOOTH",
"428 32 OFFCURVE",
"407 50 OFFCURVE",
"407 83 CURVE SMOOTH",
"407 221 LINE",
"382 221 LINE"
);
}
);
};
layerId = "751C6B1B-F263-4325-91C2-F6642B60D73C";
name = SemiLight;
paths = (
{
closed = 1;
nodes = (
"280 -10 OFFCURVE",
"335 31 OFFCURVE",
"372 67 CURVE",
"372 94 LINE",
"330 52 OFFCURVE",
"280 14 OFFCURVE",
"211 13 CURVE SMOOTH",
"133 12 OFFCURVE",
"70 72 OFFCURVE",
"70 171 CURVE SMOOTH",
"70 272 OFFCURVE",
"140 345 OFFCURVE",
"223 345 CURVE SMOOTH",
"290 345 OFFCURVE",
"338 311 OFFCURVE",
"379 268 CURVE",
"379 291 LINE",
"338 333 OFFCURVE",
"290 367 OFFCURVE",
"223 367 CURVE SMOOTH",
"129 367 OFFCURVE",
"45 290 OFFCURVE",
"45 170 CURVE SMOOTH",
"45 59 OFFCURVE",
"120 -10 OFFCURVE",
"211 -10 CURVE SMOOTH"
);
},
{
closed = 1;
nodes = (
"431 -10 OFFCURVE",
"445 -5 OFFCURVE",
"455 2 CURVE",
"449 24 LINE",
"442 18 OFFCURVE",
"429 14 OFFCURVE",
"416 14 CURVE SMOOTH",
"396 14 OFFCURVE",
"383 29 OFFCURVE",
"383 68 CURVE SMOOTH",
"383 357 LINE",
"359 352 LINE",
"359 68 LINE SMOOTH",
"359 18 OFFCURVE",
"378 -10 OFFCURVE",
"415 -10 CURVE SMOOTH"
);
}
);
width = 485;
}
);
leftKerningGroup = a.alt2;
leftMetricsKey = "=d";
rightKerningGroup = a.alt2;
rightMetricsKey = d.alt;
},
{
color = 10;
glyphname = ae;
lastChange = "2015-11-10 19:21:47 +0000";
layers = (
{
anchors = (
{
name = bottom;
position = "{353, -10}";
},
{
name = ogonek;
position = "{693, 55}";
},
{
name = top;
position = "{348, 367}";
}
);
layerId = "5072282B-E254-4F9F-BB63-C24552B293A4";
name = Bold;
paths = (
{
closed = 1;
nodes = (
"590 -11 OFFCURVE",
"650 19 OFFCURVE",
"693 55 CURVE",
"656 126 LINE",
"619 94 OFFCURVE",
"575 72 OFFCURVE",
"524 72 CURVE SMOOTH",
"468 72 OFFCURVE",
"400 109 OFFCURVE",
"400 183 CURVE SMOOTH",
"400 253 OFFCURVE",
"462 292 OFFCURVE",
"510 292 CURVE SMOOTH",
"548 292 OFFCURVE",
"575 274 OFFCURVE",
"575 247 CURVE SMOOTH",
"575 220 OFFCURVE",
"549 199 OFFCURVE",
"499 199 CURVE SMOOTH",
"456 199 OFFCURVE",
"403 206 OFFCURVE",
"340 223 CURVE",
"339 170 LINE",
"401 149 OFFCURVE",
"456 131 OFFCURVE",
"525 131 CURVE SMOOTH",
"593 131 OFFCURVE",
"681 163 OFFCURVE",
"681 244 CURVE SMOOTH",
"681 314 OFFCURVE",
"621 367 OFFCURVE",
"527 367 CURVE SMOOTH",
"434 367 OFFCURVE",
"352 313 OFFCURVE",
"332 218 CURVE",
"384 221 LINE",
"385 310 OFFCURVE",
"337 366 OFFCURVE",
"233 366 CURVE SMOOTH",
"168 366 OFFCURVE",
"119 351 OFFCURVE",
"55 323 CURVE",
"77 248 LINE",
"129 270 OFFCURVE",
"174 283 OFFCURVE",
"219 283 CURVE SMOOTH",
"266 283 OFFCURVE",
"311 266 OFFCURVE",
"311 225 CURVE SMOOTH",
"311 175 LINE",
"311 58 OFFCURVE",
"407 -11 OFFCURVE",
"516 -11 CURVE SMOOTH"
);
},
{
closed = 1;
nodes = (
"231 -11 OFFCURVE",
"291 18 OFFCURVE",
"345 78 CURVE",
"323 126 LINE",
"276 89 OFFCURVE",
"230 70 OFFCURVE",
"193 70 CURVE SMOOTH",
"163 70 OFFCURVE",
"144 84 OFFCURVE",
"144 105 CURVE SMOOTH",
"144 134 OFFCURVE",
"175 147 OFFCURVE",
"207 147 CURVE SMOOTH",
"243 147 OFFCURVE",
"278 143 OFFCURVE",
"323 131 CURVE",
"323 193 LINE",
"279 207 OFFCURVE",
"233 218 OFFCURVE",
"182 218 CURVE SMOOTH",
"108 218 OFFCURVE",
"35 177 OFFCURVE",
"35 101 CURVE SMOOTH",
"35 26 OFFCURVE",
"98 -11 OFFCURVE",
"164 -11 CURVE SMOOTH"
);
}
);
width = 708;
},
{
anchors = (
{
name = bottom;
position = "{359, -10}";
},
{
name = ogonek;
position = "{658, 49}";
},
{
name = top;
position = "{354, 367}";
}
);
layerId = "751C6B1B-F263-4325-91C2-F6642B60D73C";
name = SemiLight;
paths = (
{
closed = 1;
nodes = (
"577 -10 OFFCURVE",
"620 16 OFFCURVE",
"658 49 CURVE",
"644 67 LINE",
"610 36 OFFCURVE",
"573 14 OFFCURVE",
"514 13 CURVE SMOOTH",
"433 12 OFFCURVE",
"355 72 OFFCURVE",
"355 167 CURVE SMOOTH",
"355 282 OFFCURVE",
"441 343 OFFCURVE",
"518 343 CURVE SMOOTH",
"581 343 OFFCURVE",
"632 315 OFFCURVE",
"632 260 CURVE SMOOTH",
"632 205 OFFCURVE",
"572 176 OFFCURVE",
"511 176 CURVE SMOOTH",
"454 176 OFFCURVE",
"402 184 OFFCURVE",
"350 194 CURVE",
"351 173 LINE",
"402 163 OFFCURVE",
"454 153 OFFCURVE",
"511 153 CURVE SMOOTH",
"587 153 OFFCURVE",
"657 192 OFFCURVE",
"657 260 CURVE SMOOTH",
"657 326 OFFCURVE",
"594 366 OFFCURVE",
"518 366 CURVE SMOOTH",
"445 366 OFFCURVE",
"364 320 OFFCURVE",
"344 217 CURVE",
"351 217 LINE",
"351 333 OFFCURVE",
"295 367 OFFCURVE",
"219 367 CURVE SMOOTH",
"163 367 OFFCURVE",
"112 350 OFFCURVE",
"65 329 CURVE",
"72 306 LINE",
"118 327 OFFCURVE",
"163 343 OFFCURVE",
"219 343 CURVE SMOOTH",
"285 343 OFFCURVE",
"332 317 OFFCURVE",
"332 207 CURVE SMOOTH",
"332 177 LINE",
"332 51 OFFCURVE",
"423 -10 OFFCURVE",
"514 -10 CURVE SMOOTH"
);
},
{
closed = 1;
nodes = (
"249 -10 OFFCURVE",
"301 25 OFFCURVE",
"367 80 CURVE",
"358 98 LINE",
"301 49 OFFCURVE",
"244 13 OFFCURVE",
"175 13 CURVE SMOOTH",
"120 13 OFFCURVE",
"70 43 OFFCURVE",
"70 100 CURVE SMOOTH",
"70 161 OFFCURVE",
"130 191 OFFCURVE",
"194 190 CURVE SMOOTH",
"245 189 OFFCURVE",
"295 182 OFFCURVE",
"346 173 CURVE",
"346 194 LINE",
"295 203 OFFCURVE",
"250 213 OFFCURVE",
"194 213 CURVE SMOOTH",
"107 213 OFFCURVE",
"45 168 OFFCURVE",
"45 100 CURVE SMOOTH",
"45 29 OFFCURVE",
"106 -10 OFFCURVE",
"175 -10 CURVE SMOOTH"
);
}
);
width = 708;
}
);
leftKerningGroup = a;
leftMetricsKey = "=a";
rightKerningGroup = e;
rightMetricsKey = "=e";
unicode = 00E6;
},
{
color = 10;
glyphname = b;
lastChange = "2015-11-10 19:21:47 +0000";
layers = (
{
anchors = (
{
name = bottom;
position = "{292, -10}";
},
{
name = top;
position = "{292, 367}";
}
);
layerId = "5072282B-E254-4F9F-BB63-C24552B293A4";
name = Bold;
paths = (
{
closed = 1;
nodes = (
"151 442 LINE",
"151 520 LINE",
"-16 520 LINE",
"-16 442 LINE"
);
},
{
closed = 1;
nodes = (
"221 367 OFFCURVE",
"141 298 OFFCURVE",
"106 194 CURVE",
"106 121 LINE",
"141 217 OFFCURVE",
"208 282 OFFCURVE",
"264 283 CURVE SMOOTH",
"321 284 OFFCURVE",
"360 241 OFFCURVE",
"360 180 CURVE SMOOTH",
"360 117 OFFCURVE",
"316 71 OFFCURVE",
"249 71 CURVE SMOOTH",
"194 71 OFFCURVE",
"140 115 OFFCURVE",
"106 158 CURVE",
"106 91 LINE",
"139 49 OFFCURVE",
"187 -11 OFFCURVE",
"274 -11 CURVE SMOOTH",
"388 -11 OFFCURVE",
"469 70 OFFCURVE",
"469 180 CURVE SMOOTH",
"469 289 OFFCURVE",
"392 367 OFFCURVE",
"297 367 CURVE SMOOTH"
);
},
{
closed = 1;
nodes = (
"159 -11 LINE",
"159 520 LINE",
"60 520 LINE",
"60 -11 LINE"
);
}
);
width = 494;
},
{
anchors = (
{
name = bottom;
position = "{272, 0}";
},
{
name = top;
position = "{272, 377}";
}
);
background = {
paths = (
{
closed = 1;
nodes = (
"200 367 OFFCURVE",
"145 326 OFFCURVE",
"108 290 CURVE",
"108 263 LINE",
"150 305 OFFCURVE",
"200 343 OFFCURVE",
"269 344 CURVE SMOOTH",
"347 345 OFFCURVE",
"410 285 OFFCURVE",
"410 186 CURVE SMOOTH",
"410 85 OFFCURVE",
"340 12 OFFCURVE",
"257 12 CURVE SMOOTH",
"190 12 OFFCURVE",
"142 46 OFFCURVE",
"101 89 CURVE",
"101 66 LINE",
"142 24 OFFCURVE",
"190 -10 OFFCURVE",
"257 -10 CURVE SMOOTH",
"351 -10 OFFCURVE",
"435 67 OFFCURVE",
"435 187 CURVE SMOOTH",
"435 298 OFFCURVE",
"360 367 OFFCURVE",
"269 367 CURVE SMOOTH"
);
}
);
};
layerId = "751C6B1B-F263-4325-91C2-F6642B60D73C";
name = SemiLight;
paths = (
{
closed = 1;
nodes = (
"121 497 LINE",
"121 520 LINE",
"5 520 LINE",
"5 497 LINE"
);
},
{
closed = 1;
nodes = (
"200 367 OFFCURVE",
"145 326 OFFCURVE",
"108 290 CURVE",
"108 263 LINE",
"150 305 OFFCURVE",
"200 343 OFFCURVE",
"269 344 CURVE SMOOTH",
"347 345 OFFCURVE",
"410 285 OFFCURVE",
"410 186 CURVE SMOOTH",
"410 85 OFFCURVE",
"340 12 OFFCURVE",
"257 12 CURVE SMOOTH",
"190 12 OFFCURVE",
"142 46 OFFCURVE",
"101 89 CURVE",
"101 66 LINE",
"142 24 OFFCURVE",
"190 -10 OFFCURVE",
"257 -10 CURVE SMOOTH",
"351 -10 OFFCURVE",
"435 67 OFFCURVE",
"435 187 CURVE SMOOTH",
"435 298 OFFCURVE",
"360 367 OFFCURVE",
"269 367 CURVE SMOOTH"
);
},
{
closed = 1;
nodes = (
"121 0 LINE",
"121 519 LINE",
"97 519 LINE",
"97 0 LINE"
);
}
);
width = 480;
}
);
leftKerningGroup = h;
rightKerningGroup = o;
rightMetricsKey = "=o";
unicode = 0062;
},
{
color = 10;
glyphname = c;
lastChange = "2015-11-10 19:21:47 +0000";
layers = (
{
anchors = (
{
name = bottom;
position = "{218, -10}";
},
{
name = top;
position = "{219, 367}";
}
);
layerId = "5072282B-E254-4F9F-BB63-C24552B293A4";
name = Bold;
paths = (
{
closed = 1;
nodes = (
"292 -10 OFFCURVE",
"350 16 OFFCURVE",
"393 60 CURVE",
"346 127 LINE",
"311 96 OFFCURVE",
"279 76 OFFCURVE",
"231 76 CURVE SMOOTH",
"180 76 OFFCURVE",
"134 116 OFFCURVE",
"134 178 CURVE SMOOTH",
"134 244 OFFCURVE",
"182 284 OFFCURVE",
"235 284 CURVE SMOOTH",
"282 284 OFFCURVE",
"310 261 OFFCURVE",
"334 226 CURVE",
"382 229 LINE",
"382 357 LINE",
"313 357 LINE",
"313 285 LINE",
"349 280 LINE",
"319 328 OFFCURVE",
"283 367 OFFCURVE",
"210 367 CURVE SMOOTH",
"118 367 OFFCURVE",
"25 291 OFFCURVE",
"25 178 CURVE SMOOTH",
"25 66 OFFCURVE",
"117 -13 OFFCURVE",
"231 -11 CURVE SMOOTH"
);
}
);
width = 418;
},
{
anchors = (
{
name = bottom;
position = "{216, -10}";
},
{
name = top;
position = "{227, 367}";
}
);
background = {
paths = (
{
closed = 1;
nodes = (
"358 67 LINE",
"324 36 OFFCURVE",
"287 14 OFFCURVE",
"228 13 CURVE SMOOTH",
"147 12 OFFCURVE",
"70 72 OFFCURVE",
"70 167 CURVE SMOOTH",
"70 282 OFFCURVE",
"155 343 OFFCURVE",
"232 343 CURVE SMOOTH",
"300 343 OFFCURVE",
"346 311 OFFCURVE",
"346 257 CURVE SMOOTH",
"346 204 OFFCURVE",
"285 180 OFFCURVE",
"229 180 CURVE SMOOTH",
"169 180 OFFCURVE",
"115 197 OFFCURVE",
"64 215 CURVE",
"65 192 LINE",
"115 174 OFFCURVE",
"169 157 OFFCURVE",
"229 157 CURVE SMOOTH",
"300 157 OFFCURVE",
"371 191 OFFCURVE",
"371 257 CURVE SMOOTH",
"371 322 OFFCURVE",
"313 366 OFFCURVE",
"232 366 CURVE SMOOTH",
"144 366 OFFCURVE",
"45 299 OFFCURVE",
"45 167 CURVE SMOOTH",
"45 51 OFFCURVE",
"137 -10 OFFCURVE",
"228 -10 CURVE SMOOTH",
"291 -10 OFFCURVE",
"335 14 OFFCURVE",
"373 47 CURVE"
);
}
);
};
layerId = "751C6B1B-F263-4325-91C2-F6642B60D73C";
name = SemiLight;
paths = (
{
closed = 1;
nodes = (
"302 -10 OFFCURVE",
"347 23 OFFCURVE",
"383 60 CURVE",
"367 77 LINE",
"334 42 OFFCURVE",
"292 12 OFFCURVE",
"226 13 CURVE SMOOTH",
"151 14 OFFCURVE",
"70 74 OFFCURVE",
"70 174 CURVE SMOOTH",
"70 273 OFFCURVE",
"137 344 OFFCURVE",
"226 344 CURVE SMOOTH",
"298 344 OFFCURVE",
"346 309 OFFCURVE",
"373 237 CURVE",
"385 238 LINE",
"385 357 LINE",
"362 357 LINE",
"362 271 LINE",
"374 264 LINE",
"352 325 OFFCURVE",
"300 366 OFFCURVE",
"226 367 CURVE SMOOTH",
"125 368 OFFCURVE",
"45 285 OFFCURVE",
"45 174 CURVE SMOOTH",
"45 54 OFFCURVE",
"141 -10 OFFCURVE",
"226 -10 CURVE SMOOTH"
);
}
);
width = 430;
}
);
leftKerningGroup = o;
leftMetricsKey = "=o";
rightKerningGroup = c;
unicode = 0063;
},
{
color = 10;
glyphname = d;
lastChange = "2015-11-10 19:21:47 +0000";
layers = (
{
anchors = (
{
name = bottom;
position = "{207, -10}";
},
{
name = center;
position = "{207, 179}";
},
{
name = top;
position = "{207, 367}";
},
{
name = topright;
position = "{490, 357}";
}
);
layerId = "5072282B-E254-4F9F-BB63-C24552B293A4";
name = Bold;
paths = (
{
closed = 1;
nodes = (
"297 -11 OFFCURVE",
"350 53 OFFCURVE",
"388 92 CURVE",
"388 165 LINE",
"346 123 OFFCURVE",
"292 74 OFFCURVE",
"235 73 CURVE SMOOTH",
"173 72 OFFCURVE",
"134 115 OFFCURVE",
"134 176 CURVE SMOOTH",
"134 239 OFFCURVE",
"178 285 OFFCURVE",
"245 285 CURVE SMOOTH",
"300 285 OFFCURVE",
"354 241 OFFCURVE",
"388 198 CURVE",
"388 265 LINE",
"355 307 OFFCURVE",
"307 367 OFFCURVE",
"220 367 CURVE SMOOTH",
"106 367 OFFCURVE",
"25 286 OFFCURVE",
"25 176 CURVE SMOOTH",
"25 67 OFFCURVE",
"107 -11 OFFCURVE",
"207 -11 CURVE SMOOTH"
);
},
{
closed = 1;
nodes = (
"456 -7 OFFCURVE",
"480 2 OFFCURVE",
"493 9 CURVE",
"474 80 LINE",
"469 77 OFFCURVE",
"462 75 OFFCURVE",
"453 75 CURVE SMOOTH",
"441 75 OFFCURVE",
"431 82 OFFCURVE",
"431 103 CURVE SMOOTH",
"431 520 LINE",
"332 520 LINE",
"332 94 LINE SMOOTH",
"332 29 OFFCURVE",
"371 -7 OFFCURVE",
"428 -7 CURVE SMOOTH"
);
},
{
closed = 1;
nodes = (
"421 442 LINE",
"421 520 LINE",
"257 520 LINE",
"257 442 LINE"
);
}
);
width = 503;
},
{
anchors = (
{
name = bottom;
position = "{209, -20}";
},
{
name = center;
position = "{209, 179}";
},
{
name = top;
position = "{209, 377}";
},
{
name = topright;
position = "{373, 357}";
}
);
background = {
paths = (
{
closed = 1;
nodes = (
"328 330 OFFCURVE",
"284 365 OFFCURVE",
"211 365 CURVE",
"135 365 OFFCURVE",
"45 305 OFFCURVE",
"45 174 CURVE",
"45 46 OFFCURVE",
"115 -20 OFFCURVE",
"203 -20 CURVE SMOOTH",
"272 -20 OFFCURVE",
"326 22 OFFCURVE",
"372 74 CURVE",
"372 94 LINE",
"322 42 OFFCURVE",
"261 4 OFFCURVE",
"203 4 CURVE SMOOTH",
"129 4 OFFCURVE",
"70 69 OFFCURVE",
"70 174 CURVE",
"70 285 OFFCURVE",
"146 342 OFFCURVE",
"211 342 CURVE",
"274 342 OFFCURVE",
"326 307 OFFCURVE",
"375 270 CURVE",
"375 290 LINE"
);
}
);
};
layerId = "751C6B1B-F263-4325-91C2-F6642B60D73C";
name = SemiLight;
paths = (
{
closed = 1;
nodes = (
"280 -10 OFFCURVE",
"335 31 OFFCURVE",
"372 67 CURVE",
"372 94 LINE",
"330 52 OFFCURVE",
"280 14 OFFCURVE",
"211 13 CURVE SMOOTH",
"133 12 OFFCURVE",
"70 72 OFFCURVE",
"70 171 CURVE SMOOTH",
"70 272 OFFCURVE",
"140 345 OFFCURVE",
"223 345 CURVE SMOOTH",
"290 345 OFFCURVE",
"338 311 OFFCURVE",
"379 268 CURVE",
"379 291 LINE",
"338 333 OFFCURVE",
"290 367 OFFCURVE",
"223 367 CURVE SMOOTH",
"129 367 OFFCURVE",
"45 290 OFFCURVE",
"45 170 CURVE SMOOTH",
"45 59 OFFCURVE",
"120 -10 OFFCURVE",
"211 -10 CURVE SMOOTH"
);
},
{
closed = 1;
nodes = (
"431 -10 OFFCURVE",
"445 -5 OFFCURVE",
"455 2 CURVE",
"449 24 LINE",
"442 18 OFFCURVE",
"429 14 OFFCURVE",
"416 14 CURVE SMOOTH",
"396 14 OFFCURVE",
"383 29 OFFCURVE",
"383 68 CURVE SMOOTH",
"383 520 LINE",
"359 520 LINE",
"359 68 LINE SMOOTH",
"359 18 OFFCURVE",
"378 -10 OFFCURVE",
"415 -10 CURVE SMOOTH"
);
},
{
closed = 1;
nodes = (
"383 497 LINE",
"383 520 LINE",
"267 520 LINE",
"267 497 LINE"
);
}
);
width = 485;
}
);
leftKerningGroup = o;
leftMetricsKey = "=o";
rightKerningGroup = l;
unicode = 0064;
},
{
color = 10;
glyphname = d.alt;
lastChange = "2015-11-10 19:21:47 +0000";
layers = (
{
anchors = (
{
name = bottom;
position = "{208, -10}";
},
{
name = center;
position = "{208, 179}";
},
{
name = top;
position = "{218, 367}";
},
{
name = topright;
position = "{522, 357}";
}
);
layerId = "5072282B-E254-4F9F-BB63-C24552B293A4";
name = Bold;
paths = (
{
closed = 1;
nodes = (
"297 -11 OFFCURVE",
"350 53 OFFCURVE",
"388 92 CURVE",
"388 165 LINE",
"346 123 OFFCURVE",
"292 74 OFFCURVE",
"235 73 CURVE SMOOTH",
"173 72 OFFCURVE",
"134 115 OFFCURVE",
"134 176 CURVE SMOOTH",
"134 239 OFFCURVE",
"178 285 OFFCURVE",
"245 285 CURVE SMOOTH",
"300 285 OFFCURVE",
"354 241 OFFCURVE",
"388 198 CURVE",
"388 265 LINE",
"355 307 OFFCURVE",
"307 367 OFFCURVE",
"220 367 CURVE SMOOTH",
"106 367 OFFCURVE",
"25 286 OFFCURVE",
"25 176 CURVE SMOOTH",
"25 67 OFFCURVE",
"107 -11 OFFCURVE",
"207 -11 CURVE SMOOTH"
);
},
{
closed = 1;
nodes = (
"485 -10 OFFCURVE",
"519 23 OFFCURVE",
"519 82 CURVE SMOOTH",
"519 129 LINE",
"468 129 LINE",
"468 81 LINE SMOOTH",
"468 67 OFFCURVE",
"463 55 OFFCURVE",
"449 55 CURVE SMOOTH",
"435 55 OFFCURVE",
"431 67 OFFCURVE",
"431 81 CURVE SMOOTH",
"431 520 LINE",
"332 520 LINE",
"332 82 LINE SMOOTH",
"332 27 OFFCURVE",
"372 -10 OFFCURVE",
"429 -10 CURVE SMOOTH"
);
},
{
closed = 1;
nodes = (
"421 442 LINE",
"421 520 LINE",
"257 520 LINE",
"257 442 LINE"
);
}
);
width = 513;
},
{
anchors = (
{
name = bottom;
position = "{204, -20}";
},
{
name = center;
position = "{184, 179}";
},
{
name = top;
position = "{214, 377}";
},
{
name = topright;
position = "{498, 357}";
}
);
background = {
paths = (
{
closed = 1;
nodes = (
"272 -20 OFFCURVE",
"326 22 OFFCURVE",
"372 74 CURVE",
"372 94 LINE",
"322 42 OFFCURVE",
"261 4 OFFCURVE",
"203 4 CURVE SMOOTH",
"129 4 OFFCURVE",
"70 69 OFFCURVE",
"70 174 CURVE",
"70 285 OFFCURVE",
"146 342 OFFCURVE",
"211 342 CURVE",
"274 342 OFFCURVE",
"326 307 OFFCURVE",
"375 270 CURVE",
"375 290 LINE",
"328 330 OFFCURVE",
"284 365 OFFCURVE",
"211 365 CURVE",
"135 365 OFFCURVE",
"45 305 OFFCURVE",
"45 174 CURVE",
"45 46 OFFCURVE",
"115 -20 OFFCURVE",
"203 -20 CURVE SMOOTH"
);
},
{
closed = 1;
nodes = (
"470 -20 OFFCURVE",
"499 13 OFFCURVE",
"499 55 CURVE SMOOTH",
"499 74 LINE",
"477 74 LINE",
"477 55 LINE SMOOTH",
"477 24 OFFCURVE",
"462 4 OFFCURVE",
"430 4 CURVE SMOOTH",
"401 4 OFFCURVE",
"383 21 OFFCURVE",
"383 55 CURVE SMOOTH",
"383 520 LINE",
"359 520 LINE",
"359 55 LINE SMOOTH",
"359 11 OFFCURVE",
"385 -20 OFFCURVE",
"429 -20 CURVE SMOOTH"
);
},
{
closed = 1;
nodes = (
"383 495 LINE",
"383 520 LINE",
"267 520 LINE",
"267 495 LINE"
);
},
{
closed = 0;
nodes = (
"551 70 LINE SMOOTH",
"551 26 OFFCURVE",
"577 -5 OFFCURVE",
"616 -5 CURVE SMOOTH",
"654 -5 OFFCURVE",
"679 26 OFFCURVE",
"679 68 CURVE SMOOTH",
"679 87 LINE",
"656 87 LINE",
"656 68 LINE SMOOTH",
"656 39 OFFCURVE",
"642 18 OFFCURVE",
"616 18 CURVE SMOOTH",
"591 18 OFFCURVE",
"575 37 OFFCURVE",
"575 70 CURVE SMOOTH"
);
}
);
};
layerId = "751C6B1B-F263-4325-91C2-F6642B60D73C";
name = SemiLight;
paths = (
{
closed = 1;
nodes = (
"280 -10 OFFCURVE",
"335 31 OFFCURVE",
"372 67 CURVE",
"372 94 LINE",
"330 52 OFFCURVE",
"280 14 OFFCURVE",
"211 13 CURVE SMOOTH",
"133 12 OFFCURVE",
"70 72 OFFCURVE",
"70 171 CURVE SMOOTH",
"70 272 OFFCURVE",
"140 345 OFFCURVE",
"223 345 CURVE SMOOTH",
"290 345 OFFCURVE",
"338 311 OFFCURVE",
"379 268 CURVE",
"379 291 LINE",
"338 333 OFFCURVE",
"290 367 OFFCURVE",
"223 367 CURVE SMOOTH",
"129 367 OFFCURVE",
"45 290 OFFCURVE",
"45 170 CURVE SMOOTH",
"45 59 OFFCURVE",
"120 -10 OFFCURVE",
"211 -10 CURVE SMOOTH"
);
},
{
closed = 1;
nodes = (
"462 -5 OFFCURVE",
"487 26 OFFCURVE",
"487 68 CURVE SMOOTH",
"487 87 LINE",
"464 87 LINE",
"464 68 LINE SMOOTH",
"464 39 OFFCURVE",
"450 18 OFFCURVE",
"424 18 CURVE SMOOTH",
"399 18 OFFCURVE",
"383 37 OFFCURVE",
"383 70 CURVE SMOOTH",
"383 520 LINE",
"359 520 LINE",
"359 70 LINE SMOOTH",
"359 26 OFFCURVE",
"385 -5 OFFCURVE",
"424 -5 CURVE SMOOTH"
);
},
{
closed = 1;
nodes = (
"383 497 LINE",
"383 520 LINE",
"267 520 LINE",
"267 497 LINE"
);
}
);
width = 492;
}
);
leftKerningGroup = d.alt;
leftMetricsKey = "=d";
rightKerningGroup = d.alt;
rightMetricsKey = a.alt;
},
{
color = 10;
glyphname = eth;
lastChange = "2015-11-10 19:21:47 +0000";
layers = (
{
layerId = "5072282B-E254-4F9F-BB63-C24552B293A4";
name = Bold;
paths = (
{
closed = 1;
nodes = (
"335 -18 OFFCURVE",
"439 62 OFFCURVE",
"439 206 CURVE SMOOTH",
"439 377 OFFCURVE",
"312 519 OFFCURVE",
"116 591 CURVE",
"81 507 LINE",
"247 444 OFFCURVE",
"335 341 OFFCURVE",
"335 201 CURVE SMOOTH",
"335 99 OFFCURVE",
"275 58 OFFCURVE",
"216 58 CURVE SMOOTH",
"167 58 OFFCURVE",
"129 94 OFFCURVE",
"129 145 CURVE SMOOTH",
"129 195 OFFCURVE",
"173 234 OFFCURVE",
"230 234 CURVE SMOOTH",
"279 234 OFFCURVE",
"342 209 OFFCURVE",
"376 165 CURVE",
"379 235 LINE",
"331 287 OFFCURVE",
"275 311 OFFCURVE",
"205 311 CURVE SMOOTH",
"101 311 OFFCURVE",
"20 238 OFFCURVE",
"20 145 CURVE SMOOTH",
"20 48 OFFCURVE",
"102 -20 OFFCURVE",
"215 -19 CURVE SMOOTH"
);
},
{
closed = 1;
nodes = (
"333 570 LINE",
"273 615 LINE",
"115 395 LINE",
"175 351 LINE"
);
}
);
width = 464;
},
{
layerId = "751C6B1B-F263-4325-91C2-F6642B60D73C";
name = SemiLight;
paths = (
{
closed = 1;
nodes = (
"321 -20 OFFCURVE",
"409 72 OFFCURVE",
"409 214 CURVE SMOOTH",
"409 397 OFFCURVE",
"284 531 OFFCURVE",
"95 572 CURVE",
"88 548 LINE",
"276 508 OFFCURVE",
"385 380 OFFCURVE",
"385 214 CURVE SMOOTH",
"385 84 OFFCURVE",
"304 4 OFFCURVE",
"205 4 CURVE SMOOTH",
"114 4 OFFCURVE",
"50 66 OFFCURVE",
"50 146 CURVE SMOOTH",
"50 228 OFFCURVE",
"112 292 OFFCURVE",
"202 292 CURVE SMOOTH",
"283 292 OFFCURVE",
"350 252 OFFCURVE",
"393 194 CURVE",
"393 219 LINE",
"351 274 OFFCURVE",
"283 315 OFFCURVE",
"202 315 CURVE SMOOTH",
"107 315 OFFCURVE",
"25 249 OFFCURVE",
"25 145 CURVE SMOOTH",
"25 45 OFFCURVE",
"108 -20 OFFCURVE",
"205 -20 CURVE SMOOTH"
);
},
{
closed = 1;
nodes = (
"317 582 LINE",
"301 595 LINE",
"154 378 LINE",
"171 366 LINE"
);
}
);
width = 444;
}
);
leftKerningGroup = eth;
rightKerningGroup = eth;
unicode = 00F0;
},
{
color = 10;
glyphname = e;
lastChange = "2015-11-10 19:21:47 +0000";
layers = (
{
anchors = (
{
name = bottom;
position = "{240, -13}";
},
{
name = ogonek;
position = "{417, 55}";
},
{
name = top;
position = "{233, 371}";
}
);
layerId = "5072282B-E254-4F9F-BB63-C24552B293A4";
name = Bold;
paths = (
{
closed = 1;
nodes = (
"380 126 LINE",
"343 94 OFFCURVE",
"299 72 OFFCURVE",
"248 72 CURVE SMOOTH",
"192 72 OFFCURVE",
"129 109 OFFCURVE",
"129 183 CURVE SMOOTH",
"129 253 OFFCURVE",
"186 292 OFFCURVE",
"234 292 CURVE SMOOTH",
"272 292 OFFCURVE",
"299 270 OFFCURVE",
"299 247 CURVE SMOOTH",
"299 223 OFFCURVE",
"273 199 OFFCURVE",
"223 199 CURVE SMOOTH",
"175 199 OFFCURVE",
"107 209 OFFCURVE",
"59 248 CURVE",
"58 195 LINE",
"104 160 OFFCURVE",
"175 131 OFFCURVE",
"249 131 CURVE SMOOTH",
"312 131 OFFCURVE",
"405 163 OFFCURVE",
"405 244 CURVE SMOOTH",
"405 314 OFFCURVE",
"333 367 OFFCURVE",
"234 367 CURVE SMOOTH",
"128 367 OFFCURVE",
"25 298 OFFCURVE",
"25 175 CURVE SMOOTH",
"25 58 OFFCURVE",
"126 -11 OFFCURVE",
"240 -11 CURVE SMOOTH",
"314 -11 OFFCURVE",
"374 19 OFFCURVE",
"417 55 CURVE"
);
}
);
width = 432;
},
{
anchors = (
{
name = bottom;
position = "{226, -20}";
},
{
name = ogonek;
position = "{372, 49}";
},
{
name = top;
position = "{226, 387}";
}
);
background = {
paths = (
{
closed = 1;
nodes = (
"105 -10 OFFCURVE",
"22 63 OFFCURVE",
"22 178 CURVE",
"22 293 OFFCURVE",
"105 366 OFFCURVE",
"207 367 CURVE",
"309 366 OFFCURVE",
"392 293 OFFCURVE",
"392 178 CURVE",
"392 63 OFFCURVE",
"309 -10 OFFCURVE",
"207 -11 CURVE"
);
},
{
closed = 1;
nodes = (
"114 344 OFFCURVE",
"48 277 OFFCURVE",
"48 178 CURVE",
"48 79 OFFCURVE",
"114 12 OFFCURVE",
"207 12 CURVE",
"300 12 OFFCURVE",
"366 79 OFFCURVE",
"366 178 CURVE",
"366 277 OFFCURVE",
"300 344 OFFCURVE",
"207 344 CURVE"
);
}
);
};
layerId = "751C6B1B-F263-4325-91C2-F6642B60D73C";
name = SemiLight;
paths = (
{
closed = 1;
nodes = (
"358 67 LINE",
"324 36 OFFCURVE",
"287 14 OFFCURVE",
"228 13 CURVE SMOOTH",
"147 12 OFFCURVE",
"70 72 OFFCURVE",
"70 167 CURVE SMOOTH",
"70 282 OFFCURVE",
"155 343 OFFCURVE",
"232 343 CURVE SMOOTH",
"298 343 OFFCURVE",
"346 309 OFFCURVE",
"346 257 CURVE SMOOTH",
"346 204 OFFCURVE",
"285 180 OFFCURVE",
"229 180 CURVE SMOOTH",
"169 180 OFFCURVE",
"115 195 OFFCURVE",
"64 213 CURVE",
"65 192 LINE",
"115 174 OFFCURVE",
"169 157 OFFCURVE",
"229 157 CURVE SMOOTH",
"300 157 OFFCURVE",
"371 191 OFFCURVE",
"371 257 CURVE SMOOTH",
"371 320 OFFCURVE",
"311 366 OFFCURVE",
"232 366 CURVE SMOOTH",
"144 366 OFFCURVE",
"45 299 OFFCURVE",
"45 167 CURVE SMOOTH",
"45 51 OFFCURVE",
"137 -10 OFFCURVE",
"228 -10 CURVE SMOOTH",
"291 -10 OFFCURVE",
"334 16 OFFCURVE",
"372 49 CURVE"
);
}
);
width = 422;
}
);
leftKerningGroup = o;
leftMetricsKey = "=o";
rightKerningGroup = e;
unicode = 0065;
},
{
color = 10;
glyphname = f;
lastChange = "2015-11-10 19:21:47 +0000";
layers = (
{
anchors = (
{
name = bottom;
position = "{152, 0}";
},
{
name = top;
position = "{152, 557}";
}
);
layerId = "5072282B-E254-4F9F-BB63-C24552B293A4";
name = Bold;
paths = (
{
closed = 1;
nodes = (
"25 0 LINE",
"282 0 LINE",
"282 78 LINE",
"25 78 LINE"
);
},
{
closed = 1;
nodes = (
"100 41 LINE",
"197 41 LINE",
"197 406 LINE",
"197 441 OFFCURVE",
"224 468 OFFCURVE",
"270 468 CURVE SMOOTH",
"309 468 OFFCURVE",
"335 455 OFFCURVE",
"371 436 CURVE",
"406 515 LINE",
"360 536 OFFCURVE",
"319 555 OFFCURVE",
"258 555 CURVE SMOOTH",
"163 555 OFFCURVE",
"100 497 OFFCURVE",
"100 404 CURVE"
);
},
{
closed = 1;
nodes = (
"306 357 LINE",
"25 357 LINE",
"25 279 LINE",
"306 279 LINE"
);
}
);
width = 336;
},
{
anchors = (
{
name = bottom;
position = "{143, 0}";
},
{
name = top;
position = "{143, 357}";
}
);
background = {
paths = (
{
closed = 1;
nodes = (
"7 0 LINE",
"263 0 LINE",
"263 83 LINE",
"7 83 LINE"
);
},
{
closed = 1;
nodes = (
"81 0 LINE",
"178 0 LINE",
"178 406 LINE SMOOTH",
"178 441 OFFCURVE",
"205 468 OFFCURVE",
"251 468 CURVE SMOOTH",
"290 468 OFFCURVE",
"316 455 OFFCURVE",
"352 436 CURVE",
"387 515 LINE",
"341 536 OFFCURVE",
"300 555 OFFCURVE",
"239 555 CURVE SMOOTH",
"144 555 OFFCURVE",
"81 497 OFFCURVE",
"81 404 CURVE SMOOTH"
);
},
{
closed = 1;
nodes = (
"287 357 LINE",
"7 357 LINE",
"7 274 LINE",
"287 274 LINE"
);
}
);
};
layerId = "751C6B1B-F263-4325-91C2-F6642B60D73C";
name = SemiLight;
paths = (
{
closed = 1;
nodes = (
"25 0 LINE",
"239 0 LINE",
"239 23 LINE",
"25 23 LINE"
);
},
{
closed = 1;
nodes = (
"117 0 LINE",
"142 0 LINE",
"142 418 LINE",
"142 505 OFFCURVE",
"186 532 OFFCURVE",
"237 532 CURVE SMOOTH",
"275 532 OFFCURVE",
"315 518 OFFCURVE",
"342 504 CURVE",
"352 525 LINE",
"323 538 OFFCURVE",
"282 555 OFFCURVE",
"237 555 CURVE SMOOTH",
"167 555 OFFCURVE",
"117 514 OFFCURVE",
"117 416 CURVE"
);
},
{
closed = 1;
nodes = (
"263 357 LINE",
"25 357 LINE",
"25 334 LINE",
"263 334 LINE"
);
}
);
width = 302;
}
);
leftKerningGroup = f;
leftMetricsKey = "=n";
rightKerningGroup = f;
unicode = 0066;
},
{
color = 10;
glyphname = f.alt;
lastChange = "2015-11-10 19:21:47 +0000";
layers = (
{
anchors = (
{
name = bottom;
position = "{192, 0}";
},
{
name = top;
position = "{192, 557}";
}
);
layerId = "5072282B-E254-4F9F-BB63-C24552B293A4";
name = Bold;
paths = (
{
closed = 1;
nodes = (
"41 408 OFFCURVE",
"68 380 OFFCURVE",
"100 358 CURVE",
"100 41 LINE",
"199 41 LINE",
"199 348 LINE",
"168 364 OFFCURVE",
"144 388 OFFCURVE",
"144 413 CURVE SMOOTH",
"144 443 OFFCURVE",
"174 465 OFFCURVE",
"223 465 CURVE SMOOTH",
"258 465 OFFCURVE",
"292 456 OFFCURVE",
"324 442 CURVE",
"354 523 LINE",
"305 541 OFFCURVE",
"258 555 OFFCURVE",
"190 555 CURVE SMOOTH",
"107 555 OFFCURVE",
"41 510 OFFCURVE",
"41 451 CURVE SMOOTH"
);
},
{
closed = 1;
nodes = (
"25 357 LINE",
"25 279 LINE",
"284 279 LINE",
"284 357 LINE"
);
},
{
closed = 1;
nodes = (
"25 0 LINE",
"284 0 LINE",
"284 78 LINE",
"25 78 LINE"
);
}
);
width = 324;
},
{
anchors = (
{
name = bottom;
position = "{109, 0}";
},
{
name = top;
position = "{109, 357}";
}
);
layerId = "751C6B1B-F263-4325-91C2-F6642B60D73C";
name = SemiLight;
paths = (
{
closed = 1;
nodes = (
"57 426 OFFCURVE",
"81 387 OFFCURVE",
"117 348 CURVE",
"117 0 LINE",
"142 0 LINE",
"142 348 LINE",
"106 391 OFFCURVE",
"82 427 OFFCURVE",
"82 463 CURVE SMOOTH",
"82 504 OFFCURVE",
"121 532 OFFCURVE",
"169 532 CURVE SMOOTH",
"217 532 OFFCURVE",
"256 519 OFFCURVE",
"286 503 CURVE",
"297 523 LINE",
"264 540 OFFCURVE",
"219 555 OFFCURVE",
"170 555 CURVE SMOOTH",
"105 555 OFFCURVE",
"57 517 OFFCURVE",
"57 463 CURVE SMOOTH"
);
},
{
closed = 1;
nodes = (
"25 357 LINE",
"25 334 LINE",
"251 334 LINE",
"251 357 LINE"
);
},
{
closed = 1;
nodes = (
"25 0 LINE",
"239 0 LINE",
"239 23 LINE",
"25 23 LINE"
);
}
);
width = 287;
}
);
leftKerningGroup = f.alt;
leftMetricsKey = n;
rightKerningGroup = f.alt;
},
{
color = 10;
glyphname = g;
lastChange = "2015-11-10 19:21:47 +0000";
layers = (
{
anchors = (
{
name = bottom;
position = "{224, -162}";
},
{
name = top;
position = "{215, 371}";
}
);
layerId = "5072282B-E254-4F9F-BB63-C24552B293A4";
name = Bold;
paths = (
{
closed = 1;
nodes = (
"314 -163 OFFCURVE",
"423 -111 OFFCURVE",
"423 -26 CURVE SMOOTH",
"423 40 OFFCURVE",
"374 74 OFFCURVE",
"306 74 CURVE SMOOTH",
"242 74 OFFCURVE",
"205 66 OFFCURVE",
"153 66 CURVE SMOOTH",
"127 66 OFFCURVE",
"106 75 OFFCURVE",
"106 99 CURVE SMOOTH",
"106 121 OFFCURVE",
"135 142 OFFCURVE",
"158 153 CURVE",
"113 180 LINE",
"67 165 OFFCURVE",
"20 129 OFFCURVE",
"20 76 CURVE SMOOTH",
"20 22 OFFCURVE",
"73 -12 OFFCURVE",
"133 -12 CURVE SMOOTH",
"199 -12 OFFCURVE",
"244 -2 OFFCURVE",
"285 -2 CURVE SMOOTH",
"316 -2 OFFCURVE",
"333 -10 OFFCURVE",
"333 -31 CURVE SMOOTH",
"333 -63 OFFCURVE",
"266 -84 OFFCURVE",
"196 -84 CURVE SMOOTH",
"127 -84 OFFCURVE",
"93 -67 OFFCURVE",
"93 -38 CURVE SMOOTH",
"93 -13 OFFCURVE",
"110 9 OFFCURVE",
"124 16 CURVE",
"75 37 LINE",
"43 20 OFFCURVE",
"8 -13 OFFCURVE",
"8 -59 CURVE SMOOTH",
"8 -127 OFFCURVE",
"84 -163 OFFCURVE",
"182 -163 CURVE SMOOTH"
);
},
{
closed = 1;
nodes = (
"292 108 OFFCURVE",
"384 152 OFFCURVE",
"384 238 CURVE SMOOTH",
"384 324 OFFCURVE",
"297 367 OFFCURVE",
"216 367 CURVE SMOOTH",
"140 367 OFFCURVE",
"48 323 OFFCURVE",
"48 237 CURVE SMOOTH",
"48 151 OFFCURVE",
"135 108 OFFCURVE",
"216 108 CURVE SMOOTH"
);
},
{
closed = 1;
nodes = (
"173 177 OFFCURVE",
"144 201 OFFCURVE",
"144 237 CURVE SMOOTH",
"144 272 OFFCURVE",
"173 298 OFFCURVE",
"216 298 CURVE SMOOTH",
"259 298 OFFCURVE",
"288 274 OFFCURVE",
"288 238 CURVE SMOOTH",
"288 203 OFFCURVE",
"259 177 OFFCURVE",
"216 177 CURVE SMOOTH"
);
},
{
closed = 1;
nodes = (
"345 346 OFFCURVE",
"371 361 OFFCURVE",
"428 361 CURVE",
"428 446 LINE",
"363 443 OFFCURVE",
"300 411 OFFCURVE",
"286 335 CURVE",
"327 299 LINE"
);
}
);
width = 423;
},
{
anchors = (
{
name = bottom;
position = "{222, -169}";
},
{
name = top;
position = "{222, 387}";
}
);
background = {
paths = (
{
closed = 1;
nodes = (
"292 -169 OFFCURVE",
"420 -125 OFFCURVE",
"420 -34 CURVE SMOOTH",
"420 27 OFFCURVE",
"380 55 OFFCURVE",
"319 55 CURVE SMOOTH",
"259 55 OFFCURVE",
"200 22 OFFCURVE",
"128 22 CURVE SMOOTH",
"69 22 OFFCURVE",
"46 59 OFFCURVE",
"46 90 CURVE SMOOTH",
"46 132 OFFCURVE",
"93 155 OFFCURVE",
"128 167 CURVE",
"109 176 LINE",
"74 166 OFFCURVE",
"23 137 OFFCURVE",
"23 87 CURVE SMOOTH",
"23 52 OFFCURVE",
"43 0 OFFCURVE",
"126 0 CURVE SMOOTH",
"201 0 OFFCURVE",
"255 32 OFFCURVE",
"319 32 CURVE SMOOTH",
"370 32 OFFCURVE",
"396 13 OFFCURVE",
"396 -34 CURVE SMOOTH",
"396 -111 OFFCURVE",
"283 -147 OFFCURVE",
"198 -147 CURVE SMOOTH",
"101 -147 OFFCURVE",
"39 -104 OFFCURVE",
"39 -50 CURVE SMOOTH",
"39 -18 OFFCURVE",
"66 10 OFFCURVE",
"99 21 CURVE",
"81 30 LINE",
"54 20 OFFCURVE",
"15 -11 OFFCURVE",
"15 -53 CURVE SMOOTH",
"15 -119 OFFCURVE",
"87 -169 OFFCURVE",
"195 -169 CURVE SMOOTH"
);
},
{
closed = 1;
nodes = (
"292 118 OFFCURVE",
"369 159 OFFCURVE",
"369 248 CURVE SMOOTH",
"369 337 OFFCURVE",
"292 377 OFFCURVE",
"221 377 CURVE SMOOTH",
"150 377 OFFCURVE",
"73 336 OFFCURVE",
"73 247 CURVE SMOOTH",
"73 158 OFFCURVE",
"150 118 OFFCURVE",
"221 118 CURVE SMOOTH"
);
},
{
closed = 1;
nodes = (
"161 141 OFFCURVE",
"96 175 OFFCURVE",
"96 247 CURVE SMOOTH",
"96 317 OFFCURVE",
"161 354 OFFCURVE",
"221 354 CURVE SMOOTH",
"281 354 OFFCURVE",
"346 320 OFFCURVE",
"346 248 CURVE SMOOTH",
"346 178 OFFCURVE",
"281 141 OFFCURVE",
"221 141 CURVE SMOOTH"
);
},
{
closed = 1;
nodes = (
"428 456 LINE",
"363 453 OFFCURVE",
"320 401 OFFCURVE",
"306 345 CURVE",
"317 329 LINE",
"335 390 OFFCURVE",
"371 428 OFFCURVE",
"428 431 CURVE"
);
}
);
};
layerId = "751C6B1B-F263-4325-91C2-F6642B60D73C";
name = SemiLight;
paths = (
{
closed = 1;
nodes = (
"311 -169 OFFCURVE",
"421 -115 OFFCURVE",
"421 -24 CURVE SMOOTH",
"421 27 OFFCURVE",
"381 55 OFFCURVE",
"329 55 CURVE SMOOTH",
"264 55 OFFCURVE",
"200 22 OFFCURVE",
"138 22 CURVE SMOOTH",
"79 22 OFFCURVE",
"58 51 OFFCURVE",
"58 82 CURVE SMOOTH",
"58 119 OFFCURVE",
"88 145 OFFCURVE",
"128 164 CURVE",
"107 173 LINE",
"68 154 OFFCURVE",
"33 121 OFFCURVE",
"33 76 CURVE SMOOTH",
"33 41 OFFCURVE",
"60 -2 OFFCURVE",
"138 -2 CURVE SMOOTH",
"203 -2 OFFCURVE",
"260 32 OFFCURVE",
"324 32 CURVE SMOOTH",
"365 32 OFFCURVE",
"396 13 OFFCURVE",
"396 -24 CURVE SMOOTH",
"396 -101 OFFCURVE",
"301 -147 OFFCURVE",
"203 -147 CURVE SMOOTH",
"114 -147 OFFCURVE",
"50 -109 OFFCURVE",
"50 -55 CURVE SMOOTH",
"50 -18 OFFCURVE",
"77 10 OFFCURVE",
"109 21 CURVE",
"91 30 LINE",
"64 20 OFFCURVE",
"25 -11 OFFCURVE",
"25 -58 CURVE SMOOTH",
"25 -124 OFFCURVE",
"99 -169 OFFCURVE",
"200 -169 CURVE SMOOTH"
);
},
{
closed = 1;
nodes = (
"302 108 OFFCURVE",
"369 155 OFFCURVE",
"369 238 CURVE SMOOTH",
"369 322 OFFCURVE",
"292 367 OFFCURVE",
"221 367 CURVE SMOOTH",
"150 367 OFFCURVE",
"73 321 OFFCURVE",
"73 237 CURVE SMOOTH",
"73 153 OFFCURVE",
"149 108 OFFCURVE",
"221 108 CURVE SMOOTH"
);
},
{
closed = 1;
nodes = (
"162 131 OFFCURVE",
"98 165 OFFCURVE",
"98 237 CURVE SMOOTH",
"98 307 OFFCURVE",
"163 344 OFFCURVE",
"221 344 CURVE SMOOTH",
"279 344 OFFCURVE",
"344 310 OFFCURVE",
"344 238 CURVE SMOOTH",
"344 168 OFFCURVE",
"289 131 OFFCURVE",
"221 131 CURVE SMOOTH"
);
},
{
closed = 1;
nodes = (
"340 380 OFFCURVE",
"366 403 OFFCURVE",
"418 406 CURVE",
"418 431 LINE",
"358 428 OFFCURVE",
"322 391 OFFCURVE",
"303 335 CURVE",
"317 319 LINE"
);
}
);
width = 431;
}
);
leftKerningGroup = g;
rightKerningGroup = g;
unicode = 0067;
},
{
color = 10;
glyphname = g.alt;
lastChange = "2015-11-10 19:21:47 +0000";
layers = (
{
anchors = (
{
name = bottom;
position = "{240, -194}";
},
{
name = top;
position = "{239, 369}";
}
);
layerId = "5072282B-E254-4F9F-BB63-C24552B293A4";
name = Bold;
paths = (
{
closed = 1;
nodes = (
"331 -190 OFFCURVE",
"430 -133 OFFCURVE",
"430 -12 CURVE SMOOTH",
"430 367 LINE",
"331 348 LINE",
"331 -12 LINE SMOOTH",
"331 -75 OFFCURVE",
"280 -103 OFFCURVE",
"232 -103 CURVE SMOOTH",
"181 -103 OFFCURVE",
"137 -86 OFFCURVE",
"91 -60 CURVE",
"56 -139 LINE",
"112 -167 OFFCURVE",
"166 -190 OFFCURVE",
"241 -190 CURVE SMOOTH"
);
},
{
closed = 1;
nodes = (
"297 -11 OFFCURVE",
"350 53 OFFCURVE",
"388 92 CURVE",
"388 165 LINE",
"346 123 OFFCURVE",
"292 74 OFFCURVE",
"235 73 CURVE SMOOTH",
"173 72 OFFCURVE",
"134 115 OFFCURVE",
"134 176 CURVE SMOOTH",
"134 239 OFFCURVE",
"178 285 OFFCURVE",
"245 285 CURVE SMOOTH",
"300 285 OFFCURVE",
"354 241 OFFCURVE",
"388 198 CURVE",
"388 265 LINE",
"355 307 OFFCURVE",
"307 367 OFFCURVE",
"220 367 CURVE SMOOTH",
"106 367 OFFCURVE",
"25 286 OFFCURVE",
"25 176 CURVE SMOOTH",
"25 67 OFFCURVE",
"107 -11 OFFCURVE",
"207 -11 CURVE SMOOTH"
);
}
);
width = 475;
},
{
anchors = (
{
name = bottom;
position = "{222, -210}";
},
{
name = top;
position = "{222, 387}";
}
);
layerId = "751C6B1B-F263-4325-91C2-F6642B60D73C";
name = SemiLight;
paths = (
{
closed = 1;
nodes = (
"324 -190 OFFCURVE",
"384 -129 OFFCURVE",
"384 -32 CURVE SMOOTH",
"384 344 LINE",
"359 339 LINE",
"359 -33 LINE SMOOTH",
"359 -121 OFFCURVE",
"307 -167 OFFCURVE",
"231 -167 CURVE SMOOTH",
"174 -167 OFFCURVE",
"128 -147 OFFCURVE",
"77 -123 CURVE",
"70 -145 LINE",
"121 -169 OFFCURVE",
"168 -190 OFFCURVE",
"230 -190 CURVE SMOOTH"
);
},
{
closed = 1;
nodes = (
"280 -10 OFFCURVE",
"335 31 OFFCURVE",
"372 67 CURVE",
"372 94 LINE",
"330 52 OFFCURVE",
"280 14 OFFCURVE",
"211 13 CURVE SMOOTH",
"133 12 OFFCURVE",
"70 72 OFFCURVE",
"70 171 CURVE SMOOTH",
"70 272 OFFCURVE",
"140 345 OFFCURVE",
"223 345 CURVE SMOOTH",
"290 345 OFFCURVE",
"338 311 OFFCURVE",
"379 268 CURVE",
"379 291 LINE",
"338 333 OFFCURVE",
"290 367 OFFCURVE",
"223 367 CURVE SMOOTH",
"129 367 OFFCURVE",
"45 290 OFFCURVE",
"45 170 CURVE SMOOTH",
"45 59 OFFCURVE",
"120 -10 OFFCURVE",
"211 -10 CURVE SMOOTH"
);
}
);
width = 469;
}
);
leftKerningGroup = g.alt;
leftMetricsKey = "=q";
rightKerningGroup = g.alt;
},
{
color = 10;
glyphname = h;
lastChange = "2015-11-10 19:21:47 +0000";
layers = (
{
anchors = (
{
name = bottom;
position = "{288, 0}";
},
{
name = center;
position = "{288, 179}";
},
{
name = top;
position = "{288, 367}";
}
);
layerId = "5072282B-E254-4F9F-BB63-C24552B293A4";
name = Bold;
paths = (
{
closed = 1;
nodes = (
"473 0 LINE",
"473 197 LINE SMOOTH",
"473 309 OFFCURVE",
"430 366 OFFCURVE",
"343 366 CURVE SMOOTH",
"266 366 OFFCURVE",
"213 320 OFFCURVE",
"145 232 CURVE",
"145 154 LINE",
"199 231 OFFCURVE",
"250 278 OFFCURVE",
"302 278 CURVE SMOOTH",
"349 278 OFFCURVE",
"374 246 OFFCURVE",
"374 196 CURVE SMOOTH",
"374 0 LINE"
);
},
{
closed = 1;
nodes = (
"244 0 LINE",
"244 80 LINE",
"10 80 LINE",
"10 0 LINE"
);
},
{
closed = 1;
nodes = (
"538 0 LINE",
"538 80 LINE",
"314 80 LINE",
"314 0 LINE"
);
},
{
closed = 1;
nodes = (
"10 520 LINE",
"10 440 LINE",
"85 440 LINE",
"85 0 LINE",
"184 0 LINE",
"184 520 LINE"
);
}
);
width = 538;
},
{
anchors = (
{
name = bottom;
position = "{288, 0}";
},
{
name = center;
position = "{288, 179}";
},
{
name = top;
position = "{288, 387}";
}
);
background = {
paths = (
{
closed = 1;
nodes = (
"127 0 LINE",
"151 0 LINE",
"151 520 LINE",
"127 520 LINE"
);
},
{
closed = 1;
nodes = (
"35 23 LINE",
"35 0 LINE",
"227 0 LINE",
"227 23 LINE"
);
},
{
closed = 1;
nodes = (
"35 520 LINE",
"35 497 LINE",
"151 497 LINE",
"151 520 LINE"
);
},
{
closed = 1;
nodes = (
"265 367 OFFCURVE",
"205 305 OFFCURVE",
"138 218 CURVE",
"138 193 LINE",
"207 279 OFFCURVE",
"269 343 OFFCURVE",
"338 343 CURVE SMOOTH",
"400 343 OFFCURVE",
"432 303 OFFCURVE",
"432 233 CURVE SMOOTH",
"432 0 LINE",
"456 0 LINE",
"456 233 LINE SMOOTH",
"456 324 OFFCURVE",
"413 367 OFFCURVE",
"342 367 CURVE SMOOTH"
);
},
{
closed = 1;
nodes = (
"354 23 LINE",
"354 0 LINE",
"540 0 LINE",
"540 23 LINE"
);
}
);
};
layerId = "751C6B1B-F263-4325-91C2-F6642B60D73C";
name = SemiLight;
paths = (
{
closed = 1;
nodes = (
"432 0 LINE",
"432 234 LINE SMOOTH",
"432 324 OFFCURVE",
"385 367 OFFCURVE",
"316 367 CURVE SMOOTH",
"242 367 OFFCURVE",
"178 315 OFFCURVE",
"123 254 CURVE",
"123 231 LINE",
"179 294 OFFCURVE",
"248 344 OFFCURVE",
"311 344 CURVE SMOOTH",
"375 344 OFFCURVE",
"407 304 OFFCURVE",
"407 229 CURVE SMOOTH",
"407 0 LINE"
);
},
{
closed = 1;
nodes = (
"212 0 LINE",
"212 23 LINE",
"20 23 LINE",
"20 0 LINE"
);
},
{
closed = 1;
nodes = (
"514 0 LINE",
"514 23 LINE",
"332 23 LINE",
"332 0 LINE"
);
},
{
closed = 1;
nodes = (
"20 520 LINE",
"20 497 LINE",
"112 497 LINE",
"112 0 LINE",
"137 0 LINE",
"137 520 LINE"
);
}
);
width = 531;
}
);
leftKerningGroup = h;
rightKerningGroup = n;
rightMetricsKey = "=n";
unicode = 0068;
},
{
color = 10;
glyphname = hbar;
lastChange = "2015-11-10 19:21:47 +0000";
layers = (
{
anchors = (
{
name = bottom;
position = "{288, 0}";
},
{
name = center;
position = "{288, 179}";
},
{
name = top;
position = "{288, 367}";
}
);
layerId = "5072282B-E254-4F9F-BB63-C24552B293A4";
name = Bold;
paths = (
{
closed = 1;
nodes = (
"473 0 LINE",
"473 197 LINE SMOOTH",
"473 309 OFFCURVE",
"430 366 OFFCURVE",
"343 366 CURVE SMOOTH",
"266 366 OFFCURVE",
"213 320 OFFCURVE",
"145 232 CURVE",
"145 154 LINE",
"199 231 OFFCURVE",
"250 278 OFFCURVE",
"302 278 CURVE SMOOTH",
"349 278 OFFCURVE",
"374 246 OFFCURVE",
"374 196 CURVE SMOOTH",
"374 0 LINE"
);
},
{
closed = 1;
nodes = (
"244 0 LINE",
"244 80 LINE",
"10 80 LINE",
"10 0 LINE"
);
},
{
closed = 1;
nodes = (
"184 0 LINE",
"184 520 LINE",
"85 520 LINE",
"85 0 LINE"
);
},
{
closed = 1;
nodes = (
"538 0 LINE",
"538 80 LINE",
"314 80 LINE",
"314 0 LINE"
);
},
{
closed = 1;
nodes = (
"68 520 LINE",
"68 440 LINE",
"180 440 LINE",
"180 520 LINE"
);
},
{
closed = 1;
nodes = (
"340 403 LINE",
"340 467 LINE",
"13 467 LINE",
"13 403 LINE"
);
}
);
width = 539;
},
{
anchors = (
{
name = bottom;
position = "{288, 0}";
},
{
name = center;
position = "{288, 179}";
},
{
name = top;
position = "{288, 387}";
}
);
layerId = "751C6B1B-F263-4325-91C2-F6642B60D73C";
name = SemiLight;
paths = (
{
closed = 1;
nodes = (
"432 0 LINE",
"432 234 LINE SMOOTH",
"432 324 OFFCURVE",
"385 367 OFFCURVE",
"316 367 CURVE SMOOTH",
"242 367 OFFCURVE",
"178 315 OFFCURVE",
"123 254 CURVE",
"123 231 LINE",
"179 294 OFFCURVE",
"248 344 OFFCURVE",
"311 344 CURVE SMOOTH",
"375 344 OFFCURVE",
"407 304 OFFCURVE",
"407 229 CURVE SMOOTH",
"407 0 LINE"
);
},
{
closed = 1;
nodes = (
"212 0 LINE",
"212 23 LINE",
"20 23 LINE",
"20 0 LINE"
);
},
{
closed = 1;
nodes = (
"137 0 LINE",
"137 520 LINE",
"112 520 LINE",
"112 0 LINE"
);
},
{
closed = 1;
nodes = (
"514 0 LINE",
"514 23 LINE",
"332 23 LINE",
"332 0 LINE"
);
},
{
closed = 1;
nodes = (
"20 520 LINE",
"20 497 LINE",
"128 497 LINE",
"128 520 LINE"
);
},
{
closed = 1;
nodes = (
"448 434 LINE",
"448 456 LINE",
"38 456 LINE",
"38 434 LINE"
);
}
);
width = 550;
}
);
leftKerningGroup = h;
rightKerningGroup = n;
unicode = 0127;
},
{
color = 10;
glyphname = i;
lastChange = "2015-11-10 19:21:47 +0000";
layers = (
{
anchors = (
{
name = bottom;
position = "{132, 0}";
},
{
name = ogonek;
position = "{274, 0}";
},
{
name = top;
position = "{142, 357}";
}
);
layerId = "5072282B-E254-4F9F-BB63-C24552B293A4";
name = Bold;
paths = (
{
closed = 1;
nodes = (
"199 25 LINE",
"199 357 LINE",
"100 357 LINE",
"100 25 LINE"
);
},
{
closed = 1;
nodes = (
"274 0 LINE",
"274 78 LINE",
"25 78 LINE",
"25 0 LINE"
);
},
{
closed = 1;
nodes = (
"172 279 LINE",
"172 357 LINE",
"25 357 LINE",
"25 279 LINE"
);
},
{
closed = 1;
nodes = (
"182 422 OFFCURVE",
"210 445 OFFCURVE",
"210 475 CURVE",
"210 507 OFFCURVE",
"182 530 OFFCURVE",
"142 530 CURVE",
"104 530 OFFCURVE",
"74 507 OFFCURVE",
"74 475 CURVE",
"74 445 OFFCURVE",
"104 422 OFFCURVE",
"142 422 CURVE"
);
}
);
width = 279;
},
{
anchors = (
{
name = bottom;
position = "{120, 0}";
},
{
name = ogonek;
position = "{233, 0}";
},
{
name = top;
position = "{130, 357}";
}
);
layerId = "751C6B1B-F263-4325-91C2-F6642B60D73C";
name = SemiLight;
paths = (
{
closed = 1;
nodes = (
"142 0 LINE",
"142 357 LINE",
"117 357 LINE",
"117 0 LINE"
);
},
{
closed = 1;
nodes = (
"234 0 LINE",
"234 23 LINE",
"25 23 LINE",
"25 0 LINE"
);
},
{
closed = 1;
nodes = (
"142 334 LINE",
"142 357 LINE",
"25 357 LINE",
"25 334 LINE"
);
},
{
closed = 1;
nodes = (
"143 469 OFFCURVE",
"159 482 OFFCURVE",
"159 499 CURVE",
"159 517 OFFCURVE",
"143 530 OFFCURVE",
"119 530 CURVE",
"97 530 OFFCURVE",
"80 517 OFFCURVE",
"80 499 CURVE",
"80 482 OFFCURVE",
"97 469 OFFCURVE",
"119 469 CURVE"
);
}
);
width = 254;
}
);
leftKerningGroup = i;
leftMetricsKey = "=n";
rightKerningGroup = i;
unicode = 0069;
},
{
color = 10;
glyphname = idotless;
lastChange = "2015-11-10 19:21:47 +0000";
layers = (
{
anchors = (
{
name = bottom;
position = "{151, 0}";
},
{
name = ogonek;
position = "{273, 0}";
},
{
name = top;
position = "{140, 357}";
}
);
layerId = "5072282B-E254-4F9F-BB63-C24552B293A4";
name = Bold;
paths = (
{
closed = 1;
nodes = (
"199 25 LINE",
"199 357 LINE",
"100 357 LINE",
"100 25 LINE"
);
},
{
closed = 1;
nodes = (
"274 0 LINE",
"274 78 LINE",
"25 78 LINE",
"25 0 LINE"
);
},
{
closed = 1;
nodes = (
"172 279 LINE",
"172 357 LINE",
"25 357 LINE",
"25 279 LINE"
);
}
);
width = 279;
},
{
anchors = (
{
name = bottom;
position = "{120, 0}";
},
{
name = ogonek;
position = "{231, 0}";
},
{
name = top;
position = "{130, 357}";
}
);
layerId = "751C6B1B-F263-4325-91C2-F6642B60D73C";
name = SemiLight;
paths = (
{
closed = 1;
nodes = (
"142 0 LINE",
"142 357 LINE",
"117 357 LINE",
"117 0 LINE"
);
},
{
closed = 1;
nodes = (
"234 0 LINE",
"234 23 LINE",
"25 23 LINE",
"25 0 LINE"
);
},
{
closed = 1;
nodes = (
"142 334 LINE",
"142 357 LINE",
"25 357 LINE",
"25 334 LINE"
);
}
);
width = 254;
}
);
leftKerningGroup = idotless;
leftMetricsKey = "=i";
rightKerningGroup = idotless;
rightMetricsKey = "=i";
unicode = 0131;
},
{
color = 10;
glyphname = j;
lastChange = "2015-11-10 19:21:47 +0000";
layers = (
{
anchors = (
{
name = bottom;
position = "{143, 0}";
},
{
name = top;
position = "{143, 357}";
}
);
layerId = "5072282B-E254-4F9F-BB63-C24552B293A4";
name = Bold;
paths = (
{
closed = 1;
nodes = (
"130 -190 OFFCURVE",
"197 -131 OFFCURVE",
"197 -20 CURVE SMOOTH",
"197 357 LINE",
"100 357 LINE",
"100 -22 LINE SMOOTH",
"100 -75 OFFCURVE",
"74 -103 OFFCURVE",
"36 -103 CURVE SMOOTH",
"10 -103 OFFCURVE",
"-8 -97 OFFCURVE",
"-34 -88 CURVE",
"-58 -170 LINE",
"-33 -178 OFFCURVE",
"-8 -190 OFFCURVE",
"40 -190 CURVE SMOOTH"
);
},
{
closed = 1;
nodes = (
"172 279 LINE",
"172 357 LINE",
"25 357 LINE",
"25 279 LINE"
);
},
{
closed = 1;
nodes = (
"182 422 OFFCURVE",
"210 445 OFFCURVE",
"210 475 CURVE",
"210 507 OFFCURVE",
"182 530 OFFCURVE",
"142 530 CURVE",
"104 530 OFFCURVE",
"74 507 OFFCURVE",
"74 475 CURVE",
"74 445 OFFCURVE",
"104 422 OFFCURVE",
"142 422 CURVE"
);
}
);
width = 255;
},
{
anchors = (
{
name = bottom;
position = "{131, 0}";
},
{
name = top;
position = "{131, 357}";
}
);
layerId = "751C6B1B-F263-4325-91C2-F6642B60D73C";
name = SemiLight;
paths = (
{
closed = 1;
nodes = (
"102 -190 OFFCURVE",
"143 -145 OFFCURVE",
"143 -78 CURVE SMOOTH",
"143 357 LINE",
"118 357 LINE",
"118 -79 LINE SMOOTH",
"118 -137 OFFCURVE",
"85 -167 OFFCURVE",
"40 -167 CURVE SMOOTH",
"7 -167 OFFCURVE",
"-24 -156 OFFCURVE",
"-43 -146 CURVE",
"-50 -168 LINE",
"-31 -177 OFFCURVE",
"1 -190 OFFCURVE",
"39 -190 CURVE SMOOTH"
);
},
{
closed = 1;
nodes = (
"143 334 LINE",
"143 357 LINE",
"26 357 LINE",
"26 334 LINE"
);
},
{
closed = 1;
nodes = (
"143 469 OFFCURVE",
"159 482 OFFCURVE",
"159 499 CURVE",
"159 517 OFFCURVE",
"143 530 OFFCURVE",
"119 530 CURVE",
"97 530 OFFCURVE",
"80 517 OFFCURVE",
"80 499 CURVE",
"80 482 OFFCURVE",
"97 469 OFFCURVE",
"119 469 CURVE"
);
}
);
width = 244;
}
);
leftKerningGroup = j;
rightKerningGroup = j;
rightMetricsKey = g.alt;
unicode = 006A;
},
{
color = 10;
glyphname = jdotless;
lastChange = "2015-11-10 19:21:47 +0000";
layers = (
{
anchors = (
{
name = bottom;
position = "{126, 0}";
},
{
name = top;
position = "{115, 422}";
}
);
layerId = "5072282B-E254-4F9F-BB63-C24552B293A4";
name = Bold;
paths = (
{
closed = 1;
nodes = (
"130 -190 OFFCURVE",
"197 -131 OFFCURVE",
"197 -20 CURVE SMOOTH",
"197 357 LINE",
"100 357 LINE",
"100 -22 LINE SMOOTH",
"100 -75 OFFCURVE",
"74 -103 OFFCURVE",
"36 -103 CURVE SMOOTH",
"10 -103 OFFCURVE",
"-8 -97 OFFCURVE",
"-34 -88 CURVE",
"-58 -170 LINE",
"-33 -178 OFFCURVE",
"-8 -190 OFFCURVE",
"40 -190 CURVE SMOOTH"
);
},
{
closed = 1;
nodes = (
"172 279 LINE",
"172 357 LINE",
"25 357 LINE",
"25 279 LINE"
);
}
);
width = 242;
},
{
anchors = (
{
name = bottom;
position = "{91, 0}";
},
{
name = top;
position = "{91, 357}";
}
);
layerId = "751C6B1B-F263-4325-91C2-F6642B60D73C";
name = SemiLight;
paths = (
{
closed = 1;
nodes = (
"102 -190 OFFCURVE",
"143 -145 OFFCURVE",
"143 -78 CURVE SMOOTH",
"143 357 LINE",
"118 357 LINE",
"118 -79 LINE SMOOTH",
"118 -137 OFFCURVE",
"85 -167 OFFCURVE",
"40 -167 CURVE SMOOTH",
"7 -167 OFFCURVE",
"-24 -156 OFFCURVE",
"-43 -146 CURVE",
"-50 -168 LINE",
"-31 -177 OFFCURVE",
"1 -190 OFFCURVE",
"39 -190 CURVE SMOOTH"
);
},
{
closed = 1;
nodes = (
"143 334 LINE",
"143 357 LINE",
"26 357 LINE",
"26 334 LINE"
);
}
);
width = 228;
}
);
leftKerningGroup = jdotless;
leftMetricsKey = "=j";
rightKerningGroup = jdotless;
rightMetricsKey = "=j";
unicode = 0237;
},
{
color = 10;
glyphname = k;
lastChange = "2015-11-10 19:21:47 +0000";
layers = (
{
anchors = (
{
name = bottom;
position = "{291, 0}";
},
{
name = top;
position = "{291, 367}";
}
);
layerId = "5072282B-E254-4F9F-BB63-C24552B293A4";
name = Bold;
paths = (
{
closed = 1;
nodes = (
"382 131 OFFCURVE",
"465 172 OFFCURVE",
"466 251 CURVE SMOOTH",
"467 329 OFFCURVE",
"403 366 OFFCURVE",
"334 366 CURVE SMOOTH",
"271 366 OFFCURVE",
"213 332 OFFCURVE",
"162 274 CURVE",
"160 209 LINE",
"216 263 OFFCURVE",
"272 285 OFFCURVE",
"304 285 CURVE SMOOTH",
"333 285 OFFCURVE",
"357 273 OFFCURVE",
"357 247 CURVE SMOOTH",
"357 217 OFFCURVE",
"318 202 OFFCURVE",
"281 202 CURVE SMOOTH",
"250 202 OFFCURVE",
"213 206 OFFCURVE",
"160 233 CURVE",
"160 171 LINE",
"210 140 OFFCURVE",
"247 131 OFFCURVE",
"308 131 CURVE SMOOTH"
);
},
{
closed = 1;
nodes = (
"246 0 LINE",
"246 78 LINE",
"10 78 LINE",
"10 0 LINE"
);
},
{
closed = 1;
nodes = (
"181 25 LINE",
"181 520 LINE",
"85 520 LINE",
"85 25 LINE"
);
},
{
closed = 1;
nodes = (
"474 -11 OFFCURVE",
"504 12 OFFCURVE",
"529 42 CURVE",
"480 100 LINE",
"466 85 OFFCURVE",
"452 75 OFFCURVE",
"428 75 CURVE SMOOTH",
"401 75 OFFCURVE",
"375 100 OFFCURVE",
"367 149 CURVE",
"282 149 LINE",
"295 51 OFFCURVE",
"348 -11 OFFCURVE",
"424 -11 CURVE SMOOTH"
);
},
{
closed = 1;
nodes = (
"174 442 LINE",
"174 520 LINE",
"10 520 LINE",
"10 442 LINE"
);
}
);
width = 514;
},
{
anchors = (
{
name = bottom;
position = "{276, 0}";
},
{
name = top;
position = "{276, 387}";
}
);
background = {
paths = (
{
closed = 1;
nodes = (
"65 0 LINE",
"164 0 LINE",
"164 520 LINE",
"65 520 LINE"
);
},
{
closed = 1;
nodes = (
"-10 85 LINE",
"-10 0 LINE",
"229 0 LINE",
"229 85 LINE"
);
},
{
closed = 1;
nodes = (
"-10 520 LINE",
"-10 435 LINE",
"157 435 LINE",
"157 520 LINE"
);
},
{
closed = 1;
nodes = (
"467 105 LINE",
"452 88 OFFCURVE",
"435 75 OFFCURVE",
"411 75 CURVE SMOOTH",
"384 75 OFFCURVE",
"358 100 OFFCURVE",
"350 149 CURVE",
"265 149 LINE",
"278 51 OFFCURVE",
"331 -11 OFFCURVE",
"407 -11 CURVE SMOOTH",
"457 -11 OFFCURVE",
"487 12 OFFCURVE",
"512 42 CURVE"
);
},
{
closed = 1;
nodes = (
"258 366 OFFCURVE",
"196 332 OFFCURVE",
"145 274 CURVE",
"143 209 LINE",
"199 263 OFFCURVE",
"253 285 OFFCURVE",
"285 285 CURVE SMOOTH",
"315 285 OFFCURVE",
"340 273 OFFCURVE",
"340 247 CURVE SMOOTH",
"340 217 OFFCURVE",
"301 202 OFFCURVE",
"264 202 CURVE SMOOTH",
"233 202 OFFCURVE",
"196 206 OFFCURVE",
"143 233 CURVE",
"143 171 LINE",
"193 140 OFFCURVE",
"230 131 OFFCURVE",
"291 131 CURVE SMOOTH",
"365 131 OFFCURVE",
"448 172 OFFCURVE",
"449 251 CURVE SMOOTH",
"450 329 OFFCURVE",
"386 366 OFFCURVE",
"317 366 CURVE SMOOTH"
);
}
);
};
layerId = "751C6B1B-F263-4325-91C2-F6642B60D73C";
name = SemiLight;
paths = (
{
closed = 1;
nodes = (
"354 132 OFFCURVE",
"421 181 OFFCURVE",
"421 253 CURVE SMOOTH",
"421 321 OFFCURVE",
"369 361 OFFCURVE",
"301 361 CURVE SMOOTH",
"237 361 OFFCURVE",
"170 322 OFFCURVE",
"120 274 CURVE",
"120 251 LINE",
"171 299 OFFCURVE",
"237 338 OFFCURVE",
"301 338 CURVE SMOOTH",
"357 338 OFFCURVE",
"396 307 OFFCURVE",
"396 253 CURVE SMOOTH",
"396 188 OFFCURVE",
"331 154 OFFCURVE",
"267 155 CURVE SMOOTH",
"220 156 OFFCURVE",
"171 170 OFFCURVE",
"120 195 CURVE",
"120 172 LINE",
"167 149 OFFCURVE",
"218 132 OFFCURVE",
"271 132 CURVE SMOOTH"
);
},
{
closed = 1;
nodes = (
"229 0 LINE",
"229 23 LINE",
"20 23 LINE",
"20 0 LINE"
);
},
{
closed = 1;
nodes = (
"137 0 LINE",
"137 520 LINE",
"112 520 LINE",
"112 0 LINE"
);
},
{
closed = 1;
nodes = (
"445 -10 OFFCURVE",
"473 12 OFFCURVE",
"491 34 CURVE",
"477 48 LINE",
"461 30 OFFCURVE",
"441 12 OFFCURVE",
"406 12 CURVE SMOOTH",
"366 12 OFFCURVE",
"324 43 OFFCURVE",
"302 149 CURVE",
"279 149 LINE",
"299 40 OFFCURVE",
"347 -10 OFFCURVE",
"406 -10 CURVE SMOOTH"
);
},
{
closed = 1;
nodes = (
"137 497 LINE",
"137 520 LINE",
"20 520 LINE",
"20 497 LINE"
);
}
);
width = 532;
}
);
leftKerningGroup = h;
leftMetricsKey = "=h";
rightKerningGroup = k;
unicode = 006B;
},
{
color = 10;
glyphname = k.alt;
lastChange = "2015-11-10 19:21:47 +0000";
layers = (
{
anchors = (
{
name = bottom;
position = "{271, 0}";
},
{
name = top;
position = "{271, 367}";
}
);
layerId = "5072282B-E254-4F9F-BB63-C24552B293A4";
name = Bold;
paths = (
{
closed = 1;
nodes = (
"463 300 LINE",
"350 298 LINE",
"159 172 LINE",
"165 105 LINE"
);
},
{
closed = 1;
nodes = (
"249 0 LINE",
"249 78 LINE",
"10 78 LINE",
"10 0 LINE"
);
},
{
closed = 1;
nodes = (
"184 25 LINE",
"184 520 LINE",
"85 520 LINE",
"85 25 LINE"
);
},
{
closed = 1;
nodes = (
"501 0 LINE",
"501 78 LINE",
"289 78 LINE",
"289 0 LINE"
);
},
{
closed = 1;
nodes = (
"478 63 LINE",
"287 235 LINE",
"222 186 LINE",
"360 63 LINE"
);
},
{
closed = 1;
nodes = (
"177 442 LINE",
"177 520 LINE",
"10 520 LINE",
"10 442 LINE"
);
},
{
closed = 1;
nodes = (
"481 282 LINE",
"481 357 LINE",
"269 357 LINE",
"269 282 LINE"
);
}
);
width = 511;
},
{
anchors = (
{
name = bottom;
position = "{266, 0}";
},
{
name = top;
position = "{266, 367}";
}
);
background = {
paths = (
{
closed = 1;
nodes = (
"70 0 LINE",
"169 0 LINE",
"169 560 LINE",
"70 560 LINE"
);
},
{
closed = 1;
nodes = (
"-5 85 LINE",
"-5 0 LINE",
"234 0 LINE",
"234 85 LINE"
);
},
{
closed = 1;
nodes = (
"-5 560 LINE",
"-5 475 LINE",
"162 475 LINE",
"162 560 LINE"
);
},
{
closed = 1;
nodes = (
"274 357 LINE",
"274 273 LINE",
"486 273 LINE",
"486 357 LINE"
);
},
{
closed = 1;
nodes = (
"150 100 LINE",
"473 294 LINE",
"345 294 LINE",
"144 177 LINE"
);
},
{
closed = 1;
nodes = (
"506 84 LINE",
"294 84 LINE",
"294 0 LINE",
"506 0 LINE"
);
},
{
closed = 1;
nodes = (
"227 186 LINE",
"365 63 LINE",
"483 63 LINE",
"292 235 LINE"
);
}
);
};
layerId = "751C6B1B-F263-4325-91C2-F6642B60D73C";
name = SemiLight;
paths = (
{
closed = 1;
nodes = (
"402 348 LINE",
"370 348 LINE",
"127 112 LINE",
"127 83 LINE"
);
},
{
closed = 1;
nodes = (
"212 0 LINE",
"212 23 LINE",
"20 23 LINE",
"20 0 LINE"
);
},
{
closed = 1;
nodes = (
"137 0 LINE",
"137 520 LINE",
"112 520 LINE",
"112 0 LINE"
);
},
{
closed = 1;
nodes = (
"479 0 LINE",
"479 23 LINE",
"293 23 LINE",
"293 0 LINE"
);
},
{
closed = 1;
nodes = (
"427 6 LINE",
"240 206 LINE",
"226 188 LINE",
"397 6 LINE"
);
},
{
closed = 1;
nodes = (
"137 497 LINE",
"137 520 LINE",
"20 520 LINE",
"20 497 LINE"
);
},
{
closed = 1;
nodes = (
"449 334 LINE",
"449 357 LINE",
"271 357 LINE",
"271 334 LINE"
);
}
);
width = 489;
}
);
leftKerningGroup = k.alt;
leftMetricsKey = "=h";
rightKerningGroup = k.alt;
},
{
color = 10;
glyphname = l;
lastChange = "2015-11-10 19:21:47 +0000";
layers = (
{
anchors = (
{
name = bottom;
position = "{135, 0}";
},
{
name = center;
position = "{135, 283}";
},
{
name = top;
position = "{135, 520}";
},
{
name = topright;
position = "{304, 357}";
}
);
layerId = "5072282B-E254-4F9F-BB63-C24552B293A4";
name = Bold;
paths = (
{
closed = 1;
nodes = (
"184 25 LINE",
"184 520 LINE",
"85 520 LINE",
"85 25 LINE"
);
},
{
closed = 1;
nodes = (
"259 0 LINE",
"259 78 LINE",
"10 78 LINE",
"10 0 LINE"
);
},
{
closed = 1;
nodes = (
"177 442 LINE",
"177 520 LINE",
"10 520 LINE",
"10 442 LINE"
);
}
);
width = 265;
},
{
anchors = (
{
name = bottom;
position = "{125, 0}";
},
{
name = center;
position = "{125, 283}";
},
{
name = top;
position = "{125, 560}";
},
{
name = topright;
position = "{294, 357}";
}
);
layerId = "751C6B1B-F263-4325-91C2-F6642B60D73C";
name = SemiLight;
paths = (
{
closed = 1;
nodes = (
"137 0 LINE",
"137 520 LINE",
"112 520 LINE",
"112 0 LINE"
);
},
{
closed = 1;
nodes = (
"229 0 LINE",
"229 23 LINE",
"20 23 LINE",
"20 0 LINE"
);
},
{
closed = 1;
nodes = (
"137 497 LINE",
"137 520 LINE",
"20 520 LINE",
"20 497 LINE"
);
}
);
width = 249;
}
);
leftKerningGroup = h;
leftMetricsKey = "=h";
rightKerningGroup = l;
rightMetricsKey = "=i";
unicode = 006C;
},
{
color = 10;
glyphname = m;
lastChange = "2015-11-10 19:21:47 +0000";
layers = (
{
anchors = (
{
name = bottom;
position = "{470, 0}";
},
{
name = top;
position = "{470, 367}";
}
);
layerId = "5072282B-E254-4F9F-BB63-C24552B293A4";
name = Bold;
paths = (
{
closed = 1;
nodes = (
"167 279 LINE",
"167 357 LINE",
"25 357 LINE",
"25 279 LINE"
);
},
{
closed = 1;
nodes = (
"199 25 LINE",
"199 357 LINE",
"100 357 LINE",
"100 25 LINE"
);
},
{
closed = 1;
nodes = (
"259 0 LINE",
"259 78 LINE",
"25 78 LINE",
"25 0 LINE"
);
},
{
closed = 1;
nodes = (
"471 25 LINE",
"471 202 LINE SMOOTH",
"471 309 OFFCURVE",
"423 366 OFFCURVE",
"346 366 CURVE SMOOTH",
"274 366 OFFCURVE",
"209 315 OFFCURVE",
"163 232 CURVE",
"163 154 LINE",
"209 231 OFFCURVE",
"261 274 OFFCURVE",
"310 274 CURVE SMOOTH",
"352 274 OFFCURVE",
"372 242 OFFCURVE",
"372 201 CURVE SMOOTH",
"372 25 LINE"
);
},
{
closed = 1;
nodes = (
"531 0 LINE",
"531 78 LINE",
"312 78 LINE",
"312 0 LINE"
);
},
{
closed = 1;
nodes = (
"743 25 LINE",
"743 202 LINE SMOOTH",
"743 309 OFFCURVE",
"695 366 OFFCURVE",
"618 366 CURVE SMOOTH",
"546 366 OFFCURVE",
"481 315 OFFCURVE",
"435 232 CURVE",
"435 154 LINE",
"481 231 OFFCURVE",
"533 274 OFFCURVE",
"582 274 CURVE SMOOTH",
"624 274 OFFCURVE",
"644 242 OFFCURVE",
"644 201 CURVE SMOOTH",
"644 25 LINE"
);
},
{
closed = 1;
nodes = (
"808 0 LINE",
"808 78 LINE",
"584 78 LINE",
"584 0 LINE"
);
}
);
width = 808;
},
{
anchors = (
{
name = bottom;
position = "{400, 0}";
},
{
name = top;
position = "{400, 387}";
}
);
layerId = "751C6B1B-F263-4325-91C2-F6642B60D73C";
name = SemiLight;
paths = (
{
closed = 1;
nodes = (
"142 334 LINE",
"142 357 LINE",
"25 357 LINE",
"25 334 LINE"
);
},
{
closed = 1;
nodes = (
"142 0 LINE",
"142 357 LINE",
"117 357 LINE",
"117 0 LINE"
);
},
{
closed = 1;
nodes = (
"217 0 LINE",
"217 23 LINE",
"25 23 LINE",
"25 0 LINE"
);
},
{
closed = 1;
nodes = (
"414 0 LINE",
"414 239 LINE SMOOTH",
"414 324 OFFCURVE",
"372 367 OFFCURVE",
"308 367 CURVE SMOOTH",
"239 367 OFFCURVE",
"179 317 OFFCURVE",
"128 254 CURVE",
"128 231 LINE",
"180 296 OFFCURVE",
"245 344 OFFCURVE",
"303 344 CURVE SMOOTH",
"362 344 OFFCURVE",
"389 304 OFFCURVE",
"389 234 CURVE SMOOTH",
"389 0 LINE"
);
},
{
closed = 1;
nodes = (
"489 0 LINE",
"489 23 LINE",
"314 23 LINE",
"314 0 LINE"
);
},
{
closed = 1;
nodes = (
"686 0 LINE",
"686 239 LINE SMOOTH",
"686 324 OFFCURVE",
"644 367 OFFCURVE",
"580 367 CURVE SMOOTH",
"511 367 OFFCURVE",
"451 317 OFFCURVE",
"400 254 CURVE",
"400 231 LINE",
"452 296 OFFCURVE",
"517 344 OFFCURVE",
"575 344 CURVE SMOOTH",
"634 344 OFFCURVE",
"661 304 OFFCURVE",
"661 234 CURVE SMOOTH",
"661 0 LINE"
);
},
{
closed = 1;
nodes = (
"768 0 LINE",
"768 23 LINE",
"586 23 LINE",
"586 0 LINE"
);
}
);
width = 785;
}
);
leftKerningGroup = n;
leftMetricsKey = "=n";
rightKerningGroup = n;
rightMetricsKey = "=n";
unicode = 006D;
},
{
color = 10;
glyphname = n;
lastChange = "2015-11-10 19:21:47 +0000";
layers = (
{
anchors = (
{
name = bottom;
position = "{304, 0}";
},
{
name = top;
position = "{294, 367}";
}
);
layerId = "5072282B-E254-4F9F-BB63-C24552B293A4";
name = Bold;
paths = (
{
closed = 1;
nodes = (
"491 0 LINE",
"491 197 LINE SMOOTH",
"491 309 OFFCURVE",
"443 366 OFFCURVE",
"356 366 CURVE SMOOTH",
"284 366 OFFCURVE",
"231 320 OFFCURVE",
"163 232 CURVE",
"163 154 LINE",
"217 231 OFFCURVE",
"268 274 OFFCURVE",
"320 274 CURVE SMOOTH",
"367 274 OFFCURVE",
"392 242 OFFCURVE",
"392 196 CURVE SMOOTH",
"392 0 LINE"
);
},
{
closed = 1;
nodes = (
"259 0 LINE",
"259 78 LINE",
"25 78 LINE",
"25 0 LINE"
);
},
{
closed = 1;
nodes = (
"199 0 LINE",
"199 357 LINE",
"100 357 LINE",
"100 0 LINE"
);
},
{
closed = 1;
nodes = (
"176 279 LINE",
"176 357 LINE",
"25 357 LINE",
"25 279 LINE"
);
},
{
closed = 1;
nodes = (
"556 0 LINE",
"556 78 LINE",
"332 78 LINE",
"332 0 LINE"
);
}
);
width = 556;
},
{
anchors = (
{
name = bottom;
position = "{284, 0}";
},
{
name = top;
position = "{274, 367}";
}
);
background = {
paths = (
{
closed = 1;
nodes = (
"79 0 LINE",
"178 0 LINE",
"178 357 LINE",
"79 357 LINE"
);
},
{
closed = 1;
nodes = (
"4 84 LINE",
"4 0 LINE",
"239 0 LINE",
"239 84 LINE"
);
},
{
closed = 1;
nodes = (
"4 357 LINE",
"4 274 LINE",
"171 274 LINE",
"171 357 LINE"
);
},
{
closed = 1;
nodes = (
"263 366 OFFCURVE",
"210 320 OFFCURVE",
"142 232 CURVE",
"142 154 LINE",
"196 231 OFFCURVE",
"247 274 OFFCURVE",
"299 274 CURVE SMOOTH",
"346 274 OFFCURVE",
"371 242 OFFCURVE",
"371 196 CURVE SMOOTH",
"371 0 LINE",
"470 0 LINE",
"470 197 LINE SMOOTH",
"470 309 OFFCURVE",
"422 366 OFFCURVE",
"335 366 CURVE SMOOTH"
);
},
{
closed = 1;
nodes = (
"313 84 LINE",
"313 0 LINE",
"541 0 LINE",
"541 84 LINE"
);
}
);
};
layerId = "751C6B1B-F263-4325-91C2-F6642B60D73C";
name = SemiLight;
paths = (
{
closed = 1;
nodes = (
"437 0 LINE",
"437 234 LINE SMOOTH",
"437 324 OFFCURVE",
"390 367 OFFCURVE",
"321 367 CURVE SMOOTH",
"247 367 OFFCURVE",
"183 315 OFFCURVE",
"128 254 CURVE",
"128 231 LINE",
"184 294 OFFCURVE",
"253 344 OFFCURVE",
"316 344 CURVE SMOOTH",
"380 344 OFFCURVE",
"412 304 OFFCURVE",
"412 229 CURVE SMOOTH",
"412 0 LINE"
);
},
{
closed = 1;
nodes = (
"217 0 LINE",
"217 23 LINE",
"25 23 LINE",
"25 0 LINE"
);
},
{
closed = 1;
nodes = (
"142 0 LINE",
"142 357 LINE",
"117 357 LINE",
"117 0 LINE"
);
},
{
closed = 1;
nodes = (
"142 334 LINE",
"142 357 LINE",
"25 357 LINE",
"25 334 LINE"
);
},
{
closed = 1;
nodes = (
"519 0 LINE",
"519 23 LINE",
"337 23 LINE",
"337 0 LINE"
);
}
);
width = 536;
}
);
leftKerningGroup = n;
rightKerningGroup = n;
unicode = 006E;
},
{
color = 10;
glyphname = o;
lastChange = "2015-11-10 19:21:47 +0000";
layers = (
{
anchors = (
{
name = bottom;
position = "{227, -10}";
},
{
name = center;
position = "{227, 179}";
},
{
name = ogonek;
position = "{226, -11}";
},
{
name = top;
position = "{227, 367}";
},
{
name = topright;
position = "{596, 357}";
}
);
layerId = "5072282B-E254-4F9F-BB63-C24552B293A4";
name = Bold;
paths = (
{
closed = 1;
nodes = (
"336 -11 OFFCURVE",
"429 63 OFFCURVE",
"429 178 CURVE",
"429 293 OFFCURVE",
"329 367 OFFCURVE",
"227 367 CURVE",
"122 367 OFFCURVE",
"25 293 OFFCURVE",
"25 178 CURVE",
"25 63 OFFCURVE",
"122 -11 OFFCURVE",
"227 -11 CURVE"
);
},
{
closed = 1;
nodes = (
"172 67 OFFCURVE",
"128 112 OFFCURVE",
"128 178 CURVE",
"128 244 OFFCURVE",
"172 289 OFFCURVE",
"227 289 CURVE",
"282 289 OFFCURVE",
"326 244 OFFCURVE",
"326 178 CURVE",
"326 112 OFFCURVE",
"282 67 OFFCURVE",
"227 67 CURVE"
);
}
);
width = 454;
},
{
anchors = (
{
name = bottom;
position = "{230, -20}";
},
{
name = center;
position = "{230, 179}";
},
{
name = ogonek;
position = "{222, -9}";
},
{
name = top;
position = "{230, 387}";
},
{
name = topright;
position = "{404, 357}";
}
);
guideLines = (
{
position = "{253, 377}";
}
);
layerId = "751C6B1B-F263-4325-91C2-F6642B60D73C";
name = SemiLight;
paths = (
{
closed = 1;
nodes = (
"332 -10 OFFCURVE",
"415 63 OFFCURVE",
"415 178 CURVE",
"415 293 OFFCURVE",
"332 366 OFFCURVE",
"230 367 CURVE",
"128 366 OFFCURVE",
"45 293 OFFCURVE",
"45 178 CURVE",
"45 63 OFFCURVE",
"128 -10 OFFCURVE",
"230 -11 CURVE"
);
},
{
closed = 1;
nodes = (
"137 12 OFFCURVE",
"71 79 OFFCURVE",
"71 178 CURVE",
"71 277 OFFCURVE",
"137 344 OFFCURVE",
"230 344 CURVE",
"323 344 OFFCURVE",
"389 277 OFFCURVE",
"389 178 CURVE",
"389 79 OFFCURVE",
"323 12 OFFCURVE",
"230 12 CURVE"
);
}
);
width = 460;
}
);
leftKerningGroup = "0";
rightKerningGroup = "0";
unicode = 006F;
},
{
color = 10;
glyphname = oslash;
lastChange = "2015-11-10 19:21:47 +0000";
layers = (
{
components = (
{
name = o;
}
);
layerId = "5072282B-E254-4F9F-BB63-C24552B293A4";
name = Bold;
paths = (
{
closed = 1;
nodes = (
"212 36 LINE",
"210 50 LINE",
"309 281 LINE",
"321 288 LINE",
"376 411 LINE",
"288 411 LINE",
"246 318 LINE",
"248 304 LINE",
"143 60 LINE",
"130 50 LINE",
"81 -59 LINE",
"169 -59 LINE"
);
}
);
width = 454;
},
{
background = {
paths = (
{
closed = 1;
nodes = (
"361 496 LINE",
"336 496 LINE",
"103 -144 LINE",
"128 -144 LINE"
);
}
);
};
components = (
{
name = o;
}
);
layerId = "751C6B1B-F263-4325-91C2-F6642B60D73C";
name = SemiLight;
paths = (
{
closed = 1;
nodes = (
"181 3 LINE",
"184 12 LINE",
"303 337 LINE",
"306 344 LINE",
"331 411 LINE",
"306 411 LINE",
"285 353 LINE",
"282 346 LINE",
"161 18 LINE",
"158 11 LINE",
"133 -59 LINE",
"158 -59 LINE"
);
}
);
width = 460;
}
);
leftKerningGroup = o;
rightKerningGroup = o;
unicode = 00F8;
},
{
color = 10;
glyphname = oe;
lastChange = "2015-11-10 19:21:47 +0000";
layers = (
{
anchors = (
{
name = bottom;
position = "{390, -10}";
},
{
name = center;
position = "{379, 179}";
},
{
name = ogonek;
position = "{725, 55}";
},
{
name = top;
position = "{381, 367}";
}
);
layerId = "5072282B-E254-4F9F-BB63-C24552B293A4";
name = Bold;
paths = (
{
closed = 1;
nodes = (
"344 -11 OFFCURVE",
"422 63 OFFCURVE",
"422 178 CURVE",
"422 293 OFFCURVE",
"337 367 OFFCURVE",
"226 367 CURVE",
"118 367 OFFCURVE",
"25 293 OFFCURVE",
"25 178 CURVE",
"25 63 OFFCURVE",
"119 -11 OFFCURVE",
"226 -11 CURVE"
);
},
{
closed = 1;
nodes = (
"177 72 OFFCURVE",
"134 114 OFFCURVE",
"134 178 CURVE",
"134 242 OFFCURVE",
"177 284 OFFCURVE",
"231 284 CURVE",
"285 284 OFFCURVE",
"328 242 OFFCURVE",
"328 178 CURVE",
"328 114 OFFCURVE",
"285 72 OFFCURVE",
"231 72 CURVE"
);
},
{
closed = 1;
nodes = (
"688 126 LINE",
"651 94 OFFCURVE",
"607 72 OFFCURVE",
"556 72 CURVE SMOOTH",
"500 72 OFFCURVE",
"437 109 OFFCURVE",
"437 183 CURVE SMOOTH",
"437 253 OFFCURVE",
"494 292 OFFCURVE",
"542 292 CURVE SMOOTH",
"580 292 OFFCURVE",
"607 270 OFFCURVE",
"607 247 CURVE SMOOTH",
"607 223 OFFCURVE",
"581 199 OFFCURVE",
"531 199 CURVE SMOOTH",
"483 199 OFFCURVE",
"415 209 OFFCURVE",
"367 248 CURVE",
"366 195 LINE",
"412 160 OFFCURVE",
"483 131 OFFCURVE",
"557 131 CURVE SMOOTH",
"620 131 OFFCURVE",
"713 163 OFFCURVE",
"713 244 CURVE SMOOTH",
"713 314 OFFCURVE",
"641 367 OFFCURVE",
"542 367 CURVE SMOOTH",
"440 367 OFFCURVE",
"360 304 OFFCURVE",
"352 190 CURVE",
"353 175 LINE",
"353 58 OFFCURVE",
"434 -11 OFFCURVE",
"548 -11 CURVE SMOOTH",
"622 -11 OFFCURVE",
"682 19 OFFCURVE",
"725 55 CURVE"
);
}
);
width = 740;
},
{
anchors = (
{
name = bottom;
position = "{405, -10}";
},
{
name = center;
position = "{394, 179}";
},
{
name = ogonek;
position = "{707, 49}";
},
{
name = top;
position = "{396, 367}";
}
);
layerId = "751C6B1B-F263-4325-91C2-F6642B60D73C";
name = SemiLight;
paths = (
{
closed = 1;
nodes = (
"322 -10 OFFCURVE",
"405 63 OFFCURVE",
"405 178 CURVE",
"405 293 OFFCURVE",
"322 366 OFFCURVE",
"225 367 CURVE",
"128 366 OFFCURVE",
"45 293 OFFCURVE",
"45 178 CURVE",
"45 63 OFFCURVE",
"128 -10 OFFCURVE",
"225 -11 CURVE"
);
},
{
closed = 1;
nodes = (
"137 12 OFFCURVE",
"71 79 OFFCURVE",
"71 178 CURVE",
"71 277 OFFCURVE",
"137 344 OFFCURVE",
"225 344 CURVE",
"313 344 OFFCURVE",
"379 277 OFFCURVE",
"379 178 CURVE",
"379 79 OFFCURVE",
"313 12 OFFCURVE",
"225 12 CURVE"
);
},
{
closed = 1;
nodes = (
"693 67 LINE",
"659 36 OFFCURVE",
"622 14 OFFCURVE",
"563 13 CURVE SMOOTH",
"482 12 OFFCURVE",
"405 72 OFFCURVE",
"405 167 CURVE SMOOTH",
"405 282 OFFCURVE",
"490 343 OFFCURVE",
"567 343 CURVE SMOOTH",
"633 343 OFFCURVE",
"681 309 OFFCURVE",
"681 257 CURVE SMOOTH",
"681 204 OFFCURVE",
"620 180 OFFCURVE",
"564 180 CURVE SMOOTH",
"504 180 OFFCURVE",
"450 195 OFFCURVE",
"399 213 CURVE",
"400 192 LINE",
"450 174 OFFCURVE",
"504 157 OFFCURVE",
"564 157 CURVE SMOOTH",
"635 157 OFFCURVE",
"706 191 OFFCURVE",
"706 257 CURVE SMOOTH",
"706 320 OFFCURVE",
"646 366 OFFCURVE",
"567 366 CURVE SMOOTH",
"483 366 OFFCURVE",
"390 306 OFFCURVE",
"382 185 CURVE",
"382 167 LINE",
"382 51 OFFCURVE",
"472 -10 OFFCURVE",
"563 -10 CURVE SMOOTH",
"626 -10 OFFCURVE",
"669 16 OFFCURVE",
"707 49 CURVE"
);
}
);
width = 757;
}
);
leftKerningGroup = o;
leftMetricsKey = "=o";
rightKerningGroup = e;
rightMetricsKey = "=e";
unicode = 0153;
},
{
color = 10;
glyphname = p;
lastChange = "2015-11-10 19:21:47 +0000";
layers = (
{
anchors = (
{
name = bottom;
position = "{305, -10}";
},
{
name = top;
position = "{305, 367}";
}
);
layerId = "5072282B-E254-4F9F-BB63-C24552B293A4";
name = Bold;
paths = (
{
closed = 1;
nodes = (
"413 -11 OFFCURVE",
"494 70 OFFCURVE",
"494 180 CURVE SMOOTH",
"494 289 OFFCURVE",
"417 367 OFFCURVE",
"322 367 CURVE SMOOTH",
"246 367 OFFCURVE",
"166 298 OFFCURVE",
"131 194 CURVE",
"131 121 LINE",
"166 217 OFFCURVE",
"233 282 OFFCURVE",
"289 283 CURVE SMOOTH",
"346 284 OFFCURVE",
"385 241 OFFCURVE",
"385 180 CURVE SMOOTH",
"385 117 OFFCURVE",
"341 71 OFFCURVE",
"274 71 CURVE SMOOTH",
"219 71 OFFCURVE",
"165 115 OFFCURVE",
"131 158 CURVE",
"131 91 LINE",
"164 49 OFFCURVE",
"212 -11 OFFCURVE",
"299 -11 CURVE SMOOTH"
);
},
{
closed = 1;
nodes = (
"259 -165 LINE",
"259 -87 LINE",
"10 -87 LINE",
"10 -165 LINE"
);
},
{
closed = 1;
nodes = (
"184 -142 LINE",
"184 357 LINE",
"85 357 LINE",
"85 -142 LINE"
);
},
{
closed = 1;
nodes = (
"177 279 LINE",
"178 357 LINE",
"10 357 LINE",
"10 279 LINE"
);
}
);
width = 519;
},
{
anchors = (
{
name = bottom;
position = "{266, -20}";
},
{
name = top;
position = "{266, 387}";
}
);
background = {
paths = (
{
closed = 1;
nodes = (
"227 367 OFFCURVE",
"163 315 OFFCURVE",
"108 254 CURVE",
"108 231 LINE",
"164 294 OFFCURVE",
"233 344 OFFCURVE",
"296 344 CURVE SMOOTH",
"360 344 OFFCURVE",
"392 304 OFFCURVE",
"392 229 CURVE SMOOTH",
"392 0 LINE",
"417 0 LINE",
"417 234 LINE SMOOTH",
"417 324 OFFCURVE",
"370 367 OFFCURVE",
"301 367 CURVE SMOOTH"
);
}
);
};
layerId = "751C6B1B-F263-4325-91C2-F6642B60D73C";
name = SemiLight;
paths = (
{
closed = 1;
nodes = (
"366 -10 OFFCURVE",
"450 67 OFFCURVE",
"450 187 CURVE SMOOTH",
"450 298 OFFCURVE",
"375 367 OFFCURVE",
"284 367 CURVE SMOOTH",
"215 367 OFFCURVE",
"160 326 OFFCURVE",
"123 290 CURVE",
"123 263 LINE",
"165 305 OFFCURVE",
"215 343 OFFCURVE",
"284 344 CURVE SMOOTH",
"362 345 OFFCURVE",
"425 285 OFFCURVE",
"425 186 CURVE SMOOTH",
"425 85 OFFCURVE",
"355 12 OFFCURVE",
"272 12 CURVE SMOOTH",
"205 12 OFFCURVE",
"157 46 OFFCURVE",
"116 89 CURVE",
"116 66 LINE",
"157 24 OFFCURVE",
"205 -10 OFFCURVE",
"272 -10 CURVE SMOOTH"
);
},
{
closed = 1;
nodes = (
"233 -165 LINE",
"233 -142 LINE",
"20 -142 LINE",
"20 -165 LINE"
);
},
{
closed = 1;
nodes = (
"136 -164 LINE",
"136 357 LINE",
"112 357 LINE",
"112 -164 LINE"
);
},
{
closed = 1;
nodes = (
"136 334 LINE",
"136 357 LINE",
"20 357 LINE",
"20 334 LINE"
);
}
);
width = 495;
}
);
leftKerningGroup = p;
leftMetricsKey = "=l";
rightKerningGroup = o;
rightMetricsKey = "=o";
unicode = 0070;
},
{
color = 10;
glyphname = thorn;
lastChange = "2015-11-10 19:21:47 +0000";
layers = (
{
layerId = "5072282B-E254-4F9F-BB63-C24552B293A4";
name = Bold;
paths = (
{
closed = 1;
nodes = (
"218 367 OFFCURVE",
"138 298 OFFCURVE",
"103 194 CURVE",
"103 121 LINE",
"138 217 OFFCURVE",
"205 282 OFFCURVE",
"261 283 CURVE SMOOTH",
"318 284 OFFCURVE",
"357 241 OFFCURVE",
"357 180 CURVE SMOOTH",
"357 117 OFFCURVE",
"313 71 OFFCURVE",
"246 71 CURVE SMOOTH",
"191 71 OFFCURVE",
"137 115 OFFCURVE",
"103 158 CURVE",
"103 91 LINE",
"136 49 OFFCURVE",
"184 -11 OFFCURVE",
"271 -11 CURVE SMOOTH",
"385 -11 OFFCURVE",
"466 70 OFFCURVE",
"466 180 CURVE SMOOTH",
"466 289 OFFCURVE",
"389 367 OFFCURVE",
"294 367 CURVE SMOOTH"
);
},
{
closed = 1;
nodes = (
"240 -165 LINE",
"240 -87 LINE",
"-16 -87 LINE",
"-16 -165 LINE"
);
},
{
closed = 1;
nodes = (
"-16 520 LINE",
"-16 442 LINE",
"59 442 LINE",
"59 -165 LINE",
"155 -165 LINE",
"155 520 LINE"
);
}
);
width = 491;
},
{
layerId = "751C6B1B-F263-4325-91C2-F6642B60D73C";
name = SemiLight;
paths = (
{
closed = 1;
nodes = (
"200 367 OFFCURVE",
"145 326 OFFCURVE",
"108 290 CURVE",
"108 263 LINE",
"150 305 OFFCURVE",
"200 343 OFFCURVE",
"269 344 CURVE SMOOTH",
"347 345 OFFCURVE",
"410 285 OFFCURVE",
"410 186 CURVE SMOOTH",
"410 85 OFFCURVE",
"340 12 OFFCURVE",
"257 12 CURVE SMOOTH",
"190 12 OFFCURVE",
"142 46 OFFCURVE",
"101 89 CURVE",
"101 66 LINE",
"142 24 OFFCURVE",
"190 -10 OFFCURVE",
"257 -10 CURVE SMOOTH",
"351 -10 OFFCURVE",
"435 67 OFFCURVE",
"435 187 CURVE SMOOTH",
"435 298 OFFCURVE",
"360 367 OFFCURVE",
"269 367 CURVE SMOOTH"
);
},
{
closed = 1;
nodes = (
"218 -165 LINE",
"218 -142 LINE",
"5 -142 LINE",
"5 -165 LINE"
);
},
{
closed = 1;
nodes = (
"5 520 LINE",
"5 497 LINE",
"97 497 LINE",
"97 -164 LINE",
"121 -164 LINE",
"121 520 LINE"
);
}
);
width = 480;
}
);
leftKerningGroup = h;
leftMetricsKey = b;
rightKerningGroup = o;
rightMetricsKey = "=p";
unicode = 00FE;
},
{
color = 10;
glyphname = q;
lastChange = "2015-11-10 19:21:47 +0000";
layers = (
{
anchors = (
{
name = bottom;
position = "{196, -10}";
},
{
name = center;
position = "{196, 179}";
},
{
name = top;
position = "{196, 367}";
}
);
layerId = "5072282B-E254-4F9F-BB63-C24552B293A4";
name = Bold;
paths = (
{
closed = 1;
nodes = (
"282 -11 OFFCURVE",
"342 39 OFFCURVE",
"383 113 CURVE",
"383 186 LINE",
"341 104 OFFCURVE",
"282 74 OFFCURVE",
"235 73 CURVE SMOOTH",
"173 72 OFFCURVE",
"134 118 OFFCURVE",
"134 176 CURVE SMOOTH",
"134 241 OFFCURVE",
"185 285 OFFCURVE",
"255 285 CURVE SMOOTH",
"325 285 OFFCURVE",
"435 204 OFFCURVE",
"493 148 CURVE",
"493 245 LINE",
"436 300 OFFCURVE",
"332 367 OFFCURVE",
"230 367 CURVE SMOOTH",
"113 367 OFFCURVE",
"25 288 OFFCURVE",
"25 176 CURVE SMOOTH",
"25 67 OFFCURVE",
"102 -11 OFFCURVE",
"202 -11 CURVE SMOOTH"
);
},
{
closed = 1;
nodes = (
"486 -165 LINE",
"486 -87 LINE",
"227 -87 LINE",
"227 -165 LINE"
);
},
{
closed = 1;
nodes = (
"411 -158 LINE",
"411 367 LINE",
"312 348 LINE",
"312 -158 LINE"
);
}
);
width = 508;
},
{
anchors = (
{
name = bottom;
position = "{235, -20}";
},
{
name = center;
position = "{234, 179}";
},
{
name = top;
position = "{235, 387}";
}
);
background = {
paths = (
{
closed = 1;
nodes = (
"118 -10 OFFCURVE",
"35 63 OFFCURVE",
"35 178 CURVE",
"35 293 OFFCURVE",
"118 366 OFFCURVE",
"220 367 CURVE",
"322 366 OFFCURVE",
"405 293 OFFCURVE",
"405 178 CURVE",
"405 63 OFFCURVE",
"322 -10 OFFCURVE",
"220 -11 CURVE"
);
},
{
closed = 1;
nodes = (
"127 344 OFFCURVE",
"61 277 OFFCURVE",
"61 178 CURVE",
"61 79 OFFCURVE",
"127 12 OFFCURVE",
"220 12 CURVE",
"313 12 OFFCURVE",
"379 79 OFFCURVE",
"379 178 CURVE",
"379 277 OFFCURVE",
"313 344 OFFCURVE",
"220 344 CURVE"
);
}
);
};
layerId = "751C6B1B-F263-4325-91C2-F6642B60D73C";
name = SemiLight;
paths = (
{
closed = 1;
nodes = (
"285 -10 OFFCURVE",
"338 25 OFFCURVE",
"372 67 CURVE",
"372 94 LINE",
"333 46 OFFCURVE",
"285 14 OFFCURVE",
"221 13 CURVE SMOOTH",
"133 12 OFFCURVE",
"70 77 OFFCURVE",
"70 166 CURVE SMOOTH",
"70 272 OFFCURVE",
"140 345 OFFCURVE",
"243 345 CURVE SMOOTH",
"333 345 OFFCURVE",
"405 299 OFFCURVE",
"474 241 CURVE",
"474 266 LINE",
"412 318 OFFCURVE",
"336 367 OFFCURVE",
"243 367 CURVE SMOOTH",
"129 367 OFFCURVE",
"45 290 OFFCURVE",
"45 165 CURVE SMOOTH",
"45 64 OFFCURVE",
"120 -10 OFFCURVE",
"221 -10 CURVE SMOOTH"
);
},
{
closed = 1;
nodes = (
"465 -165 LINE",
"465 -142 LINE",
"252 -142 LINE",
"252 -165 LINE"
);
},
{
closed = 1;
nodes = (
"373 -164 LINE",
"373 357 LINE",
"349 357 LINE",
"349 -164 LINE"
);
}
);
width = 499;
}
);
leftKerningGroup = o;
leftMetricsKey = "=o";
rightKerningGroup = q;
unicode = 0071;
},
{
color = 10;
glyphname = r;
lastChange = "2015-11-10 19:21:47 +0000";
layers = (
{
anchors = (
{
name = bottom;
position = "{260, 0}";
},
{
name = top;
position = "{260, 357}";
}
);
layerId = "5072282B-E254-4F9F-BB63-C24552B293A4";
name = Bold;
paths = (
{
closed = 1;
nodes = (
"217 226 OFFCURVE",
"275 268 OFFCURVE",
"310 268 CURVE",
"310 194 LINE",
"403 194 LINE",
"403 366 LINE",
"357 366 LINE SMOOTH",
"292 366 OFFCURVE",
"217 307 OFFCURVE",
"163 229 CURVE",
"163 154 LINE"
);
},
{
closed = 1;
nodes = (
"274 0 LINE",
"274 78 LINE",
"25 78 LINE",
"25 0 LINE"
);
},
{
closed = 1;
nodes = (
"199 25 LINE",
"199 357 LINE",
"100 357 LINE",
"100 25 LINE"
);
},
{
closed = 1;
nodes = (
"192 279 LINE",
"192 357 LINE",
"25 357 LINE",
"25 279 LINE"
);
}
);
width = 433;
},
{
anchors = (
{
name = bottom;
position = "{210, 0}";
},
{
name = top;
position = "{210, 357}";
}
);
background = {
paths = (
{
closed = 1;
nodes = (
"257 367 OFFCURVE",
"193 315 OFFCURVE",
"138 254 CURVE",
"138 231 LINE",
"194 294 OFFCURVE",
"263 344 OFFCURVE",
"326 344 CURVE SMOOTH",
"390 344 OFFCURVE",
"422 304 OFFCURVE",
"422 229 CURVE SMOOTH",
"422 0 LINE",
"447 0 LINE",
"447 234 LINE SMOOTH",
"447 324 OFFCURVE",
"400 367 OFFCURVE",
"331 367 CURVE SMOOTH"
);
}
);
};
layerId = "751C6B1B-F263-4325-91C2-F6642B60D73C";
name = SemiLight;
paths = (
{
closed = 1;
nodes = (
"202 299 OFFCURVE",
"258 342 OFFCURVE",
"331 344 CURVE",
"331 252 LINE",
"354 252 LINE",
"354 367 LINE",
"337 367 LINE SMOOTH",
"258 367 OFFCURVE",
"199 321 OFFCURVE",
"139 255 CURVE",
"139 232 LINE"
);
},
{
closed = 1;
nodes = (
"234 0 LINE",
"234 24 LINE",
"25 24 LINE",
"25 0 LINE"
);
},
{
closed = 1;
nodes = (
"142 0 LINE",
"142 357 LINE",
"117 357 LINE",
"117 0 LINE"
);
},
{
closed = 1;
nodes = (
"142 334 LINE",
"142 357 LINE",
"25 357 LINE",
"25 334 LINE"
);
}
);
width = 389;
}
);
leftKerningGroup = n;
leftMetricsKey = "=n";
rightKerningGroup = r;
unicode = 0072;
},
{
color = 10;
glyphname = s;
lastChange = "2015-11-10 19:21:47 +0000";
layers = (
{
anchors = (
{
name = bottom;
position = "{246, -10}";
},
{
name = top;
position = "{190, 367}";
}
);
layerId = "5072282B-E254-4F9F-BB63-C24552B293A4";
name = Bold;
paths = (
{
closed = 1;
nodes = (
"313 -11 OFFCURVE",
"367 32 OFFCURVE",
"367 97 CURVE SMOOTH",
"367 160 OFFCURVE",
"314 197 OFFCURVE",
"225 222 CURVE SMOOTH",
"154 242 OFFCURVE",
"133 250 OFFCURVE",
"133 270 CURVE SMOOTH",
"133 289 OFFCURVE",
"147 303 OFFCURVE",
"186 303 CURVE SMOOTH",
"233 303 OFFCURVE",
"275 281 OFFCURVE",
"303 236 CURVE",
"346 239 LINE",
"346 357 LINE",
"272 357 LINE",
"272 275 LINE",
"308 275 LINE",
"274 337 OFFCURVE",
"234 367 OFFCURVE",
"162 367 CURVE SMOOTH",
"84 367 OFFCURVE",
"30 319 OFFCURVE",
"30 254 CURVE SMOOTH",
"30 197 OFFCURVE",
"73 156 OFFCURVE",
"167 134 CURVE SMOOTH",
"243 116 OFFCURVE",
"264 103 OFFCURVE",
"264 83 CURVE SMOOTH",
"264 64 OFFCURVE",
"247 53 OFFCURVE",
"211 53 CURVE SMOOTH",
"166 53 OFFCURVE",
"103 80 OFFCURVE",
"74 120 CURVE",
"31 117 LINE",
"31 -1 LINE",
"105 -1 LINE",
"105 81 LINE",
"69 81 LINE",
"103 19 OFFCURVE",
"158 -11 OFFCURVE",
"225 -11 CURVE SMOOTH"
);
}
);
width = 392;
},
{
anchors = (
{
name = bottom;
position = "{228, -5}";
},
{
name = top;
position = "{208, 387}";
}
);
background = {
paths = (
{
closed = 0;
nodes = (
"232 9 LINE SMOOTH",
"152 9 OFFCURVE",
"92 46 OFFCURVE",
"62 114 CURVE",
"50 112 LINE",
"50 0 LINE",
"73 0 LINE",
"73 73 LINE",
"58 90 LINE",
"81 38 OFFCURVE",
"149 -13 OFFCURVE",
"232 -13 CURVE SMOOTH"
);
}
);
};
guideLines = (
{
angle = 180;
position = "{367, 375}";
}
);
layerId = "751C6B1B-F263-4325-91C2-F6642B60D73C";
name = SemiLight;
paths = (
{
closed = 1;
nodes = (
"308 -10 OFFCURVE",
"369 17 OFFCURVE",
"369 77 CURVE SMOOTH",
"369 152 OFFCURVE",
"279 169 OFFCURVE",
"217 187 CURVE SMOOTH",
"153 205 OFFCURVE",
"91 225 OFFCURVE",
"91 275 CURVE SMOOTH",
"91 319 OFFCURVE",
"133 345 OFFCURVE",
"187 345 CURVE SMOOTH",
"252 345 OFFCURVE",
"315 309 OFFCURVE",
"347 243 CURVE",
"359 245 LINE",
"359 357 LINE",
"336 357 LINE",
"336 284 LINE",
"351 267 LINE",
"328 319 OFFCURVE",
"261 367 OFFCURVE",
"187 367 CURVE SMOOTH",
"114 367 OFFCURVE",
"65 328 OFFCURVE",
"65 273 CURVE SMOOTH",
"65 206 OFFCURVE",
"142 180 OFFCURVE",
"216 162 CURVE SMOOTH",
"281 146 OFFCURVE",
"343 131 OFFCURVE",
"343 76 CURVE SMOOTH",
"343 34 OFFCURVE",
"296 14 OFFCURVE",
"249 14 CURVE SMOOTH",
"179 14 OFFCURVE",
"110 57 OFFCURVE",
"72 114 CURVE",
"60 112 LINE",
"60 0 LINE",
"83 0 LINE",
"83 75 LINE",
"68 92 LINE",
"87 43 OFFCURVE",
"176 -10 OFFCURVE",
"249 -10 CURVE SMOOTH"
);
}
);
width = 434;
}
);
leftKerningGroup = s;
rightKerningGroup = s;
unicode = 0073;
},
{
color = 10;
glyphname = germandbls;
lastChange = "2015-11-10 19:21:47 +0000";
layers = (
{
layerId = "5072282B-E254-4F9F-BB63-C24552B293A4";
name = Bold;
paths = (
{
closed = 1;
nodes = (
"523 -11 OFFCURVE",
"577 32 OFFCURVE",
"577 99 CURVE SMOOTH",
"577 161 OFFCURVE",
"524 192 OFFCURVE",
"445 214 CURVE SMOOTH",
"374 234 OFFCURVE",
"353 237 OFFCURVE",
"353 256 CURVE SMOOTH",
"353 274 OFFCURVE",
"367 282 OFFCURVE",
"414 306 CURVE SMOOTH",
"468 334 OFFCURVE",
"511 363 OFFCURVE",
"511 420 CURVE SMOOTH",
"511 496 OFFCURVE",
"422 555 OFFCURVE",
"299 555 CURVE SMOOTH",
"173 555 OFFCURVE",
"100 497 OFFCURVE",
"100 384 CURVE SMOOTH",
"100 0 LINE",
"197 0 LINE",
"197 386 LINE SMOOTH",
"197 441 OFFCURVE",
"234 472 OFFCURVE",
"300 472 CURVE SMOOTH",
"366 472 OFFCURVE",
"408 449 OFFCURVE",
"408 416 CURVE SMOOTH",
"408 392 OFFCURVE",
"386 378 OFFCURVE",
"340 354 CURVE SMOOTH",
"285 326 OFFCURVE",
"250 299 OFFCURVE",
"250 243 CURVE SMOOTH",
"250 183 OFFCURVE",
"299 154 OFFCURVE",
"387 127 CURVE SMOOTH",
"453 107 OFFCURVE",
"474 103 OFFCURVE",
"474 83 CURVE SMOOTH",
"474 64 OFFCURVE",
"457 53 OFFCURVE",
"426 53 CURVE SMOOTH",
"386 53 OFFCURVE",
"323 80 OFFCURVE",
"294 120 CURVE",
"251 117 LINE",
"251 -1 LINE",
"325 -1 LINE",
"325 81 LINE",
"289 81 LINE",
"323 19 OFFCURVE",
"378 -11 OFFCURVE",
"440 -11 CURVE SMOOTH"
);
},
{
closed = 1;
nodes = (
"176 0 LINE",
"176 78 LINE",
"25 78 LINE",
"25 0 LINE"
);
},
{
closed = 1;
nodes = (
"175 279 LINE",
"175 357 LINE",
"25 357 LINE",
"25 279 LINE"
);
}
);
width = 577;
},
{
layerId = "751C6B1B-F263-4325-91C2-F6642B60D73C";
name = SemiLight;
paths = (
{
closed = 1;
nodes = (
"473 -10 OFFCURVE",
"534 17 OFFCURVE",
"534 77 CURVE SMOOTH",
"534 142 OFFCURVE",
"454 161 OFFCURVE",
"392 177 CURVE SMOOTH",
"323 195 OFFCURVE",
"266 210 OFFCURVE",
"266 253 CURVE SMOOTH",
"266 296 OFFCURVE",
"307 309 OFFCURVE",
"357 330 CURVE SMOOTH",
"414 354 OFFCURVE",
"453 385 OFFCURVE",
"453 437 CURVE SMOOTH",
"453 500 OFFCURVE",
"385 555 OFFCURVE",
"282 555 CURVE SMOOTH",
"180 555 OFFCURVE",
"117 499 OFFCURVE",
"117 401 CURVE SMOOTH",
"117 0 LINE",
"142 0 LINE",
"142 403 LINE SMOOTH",
"142 490 OFFCURVE",
"201 532 OFFCURVE",
"282 532 CURVE SMOOTH",
"379 532 OFFCURVE",
"427 485 OFFCURVE",
"427 439 CURVE SMOOTH",
"427 404 OFFCURVE",
"406 375 OFFCURVE",
"350 353 CURVE SMOOTH",
"291 330 OFFCURVE",
"240 308 OFFCURVE",
"240 253 CURVE SMOOTH",
"240 189 OFFCURVE",
"317 170 OFFCURVE",
"391 152 CURVE SMOOTH",
"456 136 OFFCURVE",
"508 121 OFFCURVE",
"508 76 CURVE SMOOTH",
"508 34 OFFCURVE",
"471 14 OFFCURVE",
"419 14 CURVE SMOOTH",
"354 14 OFFCURVE",
"285 57 OFFCURVE",
"247 114 CURVE",
"235 112 LINE",
"235 0 LINE",
"258 0 LINE",
"258 75 LINE",
"243 92 LINE",
"262 43 OFFCURVE",
"351 -10 OFFCURVE",
"419 -10 CURVE SMOOTH"
);
},
{
closed = 1;
nodes = (
"139 0 LINE",
"139 23 LINE",
"25 23 LINE",
"25 0 LINE"
);
},
{
closed = 1;
nodes = (
"133 334 LINE",
"133 357 LINE",
"25 357 LINE",
"25 334 LINE"
);
}
);
width = 549;
}
);
leftKerningGroup = h;
leftMetricsKey = f;
rightKerningGroup = germandbls;
unicode = 00DF;
},
{
color = 10;
glyphname = t;
lastChange = "2015-11-10 19:21:47 +0000";
layers = (
{
anchors = (
{
name = bottom;
position = "{199, -10}";
},
{
name = center;
position = "{159, 179}";
},
{
name = top;
position = "{159, 456}";
},
{
name = topright;
position = "{252, 419}";
}
);
layerId = "5072282B-E254-4F9F-BB63-C24552B293A4";
name = Bold;
paths = (
{
closed = 1;
nodes = (
"261 -10 OFFCURVE",
"298 7 OFFCURVE",
"330 27 CURVE",
"296 101 LINE",
"272 86 OFFCURVE",
"251 77 OFFCURVE",
"225 77 CURVE SMOOTH",
"187 77 OFFCURVE",
"167 100 OFFCURVE",
"167 143 CURVE",
"167 456 LINE",
"70 456 LINE",
"70 143 LINE",
"70 48 OFFCURVE",
"122 -10 OFFCURVE",
"208 -10 CURVE SMOOTH"
);
},
{
closed = 1;
nodes = (
"276 279 LINE",
"276 357 LINE",
"-4 357 LINE",
"-4 279 LINE"
);
}
);
width = 320;
},
{
anchors = (
{
name = bottom;
position = "{220, -10}";
},
{
name = center;
position = "{180, 179}";
},
{
name = top;
position = "{180, 456}";
},
{
name = topright;
position = "{273, 419}";
}
);
background = {
paths = (
{
closed = 1;
nodes = (
"403 357 LINE",
"36 357 LINE",
"36 334 LINE",
"403 334 LINE"
);
},
{
closed = 1;
nodes = (
"441 57 LINE",
"400 36 OFFCURVE",
"338 13 OFFCURVE",
"269 13 CURVE SMOOTH",
"207 13 OFFCURVE",
"165 41 OFFCURVE",
"165 123 CURVE",
"165 340 LINE",
"165 347 LINE SMOOTH",
"165 476 LINE",
"140 476 LINE",
"140 348 LINE",
"140 342 LINE",
"140 123 LINE",
"140 27 OFFCURVE",
"190 -10 OFFCURVE",
"271 -10 CURVE SMOOTH",
"341 -10 OFFCURVE",
"405 14 OFFCURVE",
"448 35 CURVE"
);
}
);
};
layerId = "751C6B1B-F263-4325-91C2-F6642B60D73C";
name = SemiLight;
paths = (
{
closed = 1;
nodes = (
"262 -10 OFFCURVE",
"293 6 OFFCURVE",
"322 20 CURVE",
"312 41 LINE",
"285 26 OFFCURVE",
"255 13 OFFCURVE",
"217 13 CURVE SMOOTH",
"181 13 OFFCURVE",
"137 30 OFFCURVE",
"137 107 CURVE",
"137 456 LINE",
"112 456 LINE",
"112 109 LINE",
"112 21 OFFCURVE",
"162 -10 OFFCURVE",
"217 -10 CURVE SMOOTH"
);
},
{
closed = 1;
nodes = (
"276 334 LINE",
"276 357 LINE",
"20 357 LINE",
"20 334 LINE"
);
}
);
width = 337;
}
);
leftKerningGroup = t;
rightKerningGroup = t;
unicode = 0074;
},
{
color = 10;
glyphname = t.alt;
lastChange = "2015-11-10 19:21:47 +0000";
layers = (
{
anchors = (
{
name = bottom;
position = "{210, -10}";
},
{
name = center;
position = "{170, 179}";
},
{
name = top;
position = "{170, 456}";
},
{
name = topright;
position = "{263, 419}";
}
);
layerId = "5072282B-E254-4F9F-BB63-C24552B293A4";
name = Bold;
paths = (
{
closed = 1;
nodes = (
"299 357 LINE",
"25 357 LINE",
"25 279 LINE",
"299 279 LINE"
);
},
{
closed = 1;
nodes = (
"301 105 LINE",
"274 87 OFFCURVE",
"249 78 OFFCURVE",
"220 78 CURVE SMOOTH",
"188 78 OFFCURVE",
"161 98 OFFCURVE",
"161 155 CURVE SMOOTH",
"161 212 OFFCURVE",
"178 268 OFFCURVE",
"202 340 CURVE",
"197 347 LINE",
"197 455 LINE",
"100 455 LINE",
"100 348 LINE",
"107 342 LINE",
"86 271 OFFCURVE",
"62 213 OFFCURVE",
"62 140 CURVE SMOOTH",
"62 39 OFFCURVE",
"124 -10 OFFCURVE",
"211 -10 CURVE SMOOTH",
"270 -10 OFFCURVE",
"306 9 OFFCURVE",
"334 28 CURVE"
);
}
);
width = 339;
},
{
anchors = (
{
name = bottom;
position = "{201, -10}";
},
{
name = center;
position = "{161, 179}";
},
{
name = top;
position = "{161, 456}";
},
{
name = topright;
position = "{254, 419}";
}
);
layerId = "751C6B1B-F263-4325-91C2-F6642B60D73C";
name = SemiLight;
paths = (
{
closed = 1;
nodes = (
"275 357 LINE",
"35 357 LINE",
"35 334 LINE",
"275 334 LINE"
);
},
{
closed = 1;
nodes = (
"286 35 LINE",
"259 22 OFFCURVE",
"235 13 OFFCURVE",
"198 13 CURVE SMOOTH",
"153 13 OFFCURVE",
"108 46 OFFCURVE",
"108 118 CURVE SMOOTH",
"108 190 OFFCURVE",
"136 284 OFFCURVE",
"151 340 CURVE",
"152 347 LINE",
"152 456 LINE",
"127 456 LINE",
"127 348 LINE",
"128 342 LINE",
"112 284 OFFCURVE",
"83 191 OFFCURVE",
"83 118 CURVE SMOOTH",
"83 32 OFFCURVE",
"136 -10 OFFCURVE",
"199 -10 CURVE SMOOTH",
"235 -10 OFFCURVE",
"266 -1 OFFCURVE",
"295 15 CURVE"
);
}
);
width = 340;
}
);
leftKerningGroup = t.alt;
rightKerningGroup = t.alt;
},
{
color = 10;
glyphname = u;
lastChange = "2015-11-10 19:21:47 +0000";
layers = (
{
anchors = (
{
name = bottom;
position = "{211, -10}";
},
{
name = ogonek;
position = "{493, 9}";
},
{
name = top;
position = "{224, 347}";
},
{
name = topright;
position = "{454, 357}";
}
);
layerId = "5072282B-E254-4F9F-BB63-C24552B293A4";
name = Bold;
paths = (
{
closed = 1;
nodes = (
"262 -10 OFFCURVE",
"315 36 OFFCURVE",
"383 124 CURVE",
"383 202 LINE",
"329 125 OFFCURVE",
"278 82 OFFCURVE",
"231 82 CURVE SMOOTH",
"179 82 OFFCURVE",
"164 114 OFFCURVE",
"164 160 CURVE SMOOTH",
"164 357 LINE",
"65 357 LINE",
"65 159 LINE SMOOTH",
"65 47 OFFCURVE",
"113 -10 OFFCURVE",
"195 -10 CURVE SMOOTH"
);
},
{
closed = 1;
nodes = (
"146 279 LINE",
"146 357 LINE",
"-1 357 LINE",
"-1 279 LINE"
);
},
{
closed = 1;
nodes = (
"460 -7 OFFCURVE",
"484 2 OFFCURVE",
"498 9 CURVE",
"477 79 LINE",
"472 77 OFFCURVE",
"466 75 OFFCURVE",
"457 75 CURVE SMOOTH",
"445 75 OFFCURVE",
"436 82 OFFCURVE",
"436 103 CURVE",
"436 357 LINE",
"337 357 LINE",
"337 94 LINE",
"337 29 OFFCURVE",
"377 -7 OFFCURVE",
"433 -7 CURVE SMOOTH"
);
},
{
closed = 1;
nodes = (
"422 279 LINE",
"422 357 LINE",
"277 357 LINE",
"277 279 LINE"
);
}
);
width = 508;
},
{
anchors = (
{
name = bottom;
position = "{236, -20}";
},
{
name = ogonek;
position = "{452, -2}";
},
{
name = top;
position = "{206, 357}";
},
{
name = topright;
position = "{477, 357}";
}
);
layerId = "751C6B1B-F263-4325-91C2-F6642B60D73C";
name = SemiLight;
paths = (
{
closed = 1;
nodes = (
"283 -10 OFFCURVE",
"343 40 OFFCURVE",
"394 103 CURVE",
"394 126 LINE",
"342 61 OFFCURVE",
"277 13 OFFCURVE",
"216 13 CURVE SMOOTH",
"154 13 OFFCURVE",
"127 53 OFFCURVE",
"127 123 CURVE SMOOTH",
"127 357 LINE",
"102 357 LINE",
"102 118 LINE SMOOTH",
"102 33 OFFCURVE",
"144 -10 OFFCURVE",
"211 -10 CURVE SMOOTH"
);
},
{
closed = 1;
nodes = (
"115 334 LINE",
"115 357 LINE",
"20 357 LINE",
"20 334 LINE"
);
},
{
closed = 1;
nodes = (
"453 -10 OFFCURVE",
"465 -5 OFFCURVE",
"477 2 CURVE",
"468 23 LINE",
"459 17 OFFCURVE",
"451 14 OFFCURVE",
"438 14 CURVE SMOOTH",
"418 14 OFFCURVE",
"405 29 OFFCURVE",
"405 68 CURVE",
"405 357 LINE",
"380 357 LINE",
"380 68 LINE",
"380 18 OFFCURVE",
"400 -10 OFFCURVE",
"437 -10 CURVE SMOOTH"
);
},
{
closed = 1;
nodes = (
"397 334 LINE",
"397 357 LINE",
"305 357 LINE",
"305 334 LINE"
);
}
);
width = 507;
}
);
leftKerningGroup = u;
rightKerningGroup = u;
rightMetricsKey = "=d";
unicode = 0075;
},
{
color = 10;
glyphname = u.alt;
lastChange = "2015-11-10 19:21:47 +0000";
layers = (
{
anchors = (
{
name = bottom;
position = "{240, -20}";
},
{
name = ogonek;
position = "{468, -4}";
},
{
name = top;
position = "{240, 357}";
},
{
name = topright;
position = "{480, 357}";
}
);
layerId = "5072282B-E254-4F9F-BB63-C24552B293A4";
name = Bold;
paths = (
{
closed = 1;
nodes = (
"262 -10 OFFCURVE",
"315 36 OFFCURVE",
"383 124 CURVE",
"383 202 LINE",
"329 125 OFFCURVE",
"278 82 OFFCURVE",
"231 82 CURVE SMOOTH",
"179 82 OFFCURVE",
"164 114 OFFCURVE",
"164 160 CURVE SMOOTH",
"164 356 LINE",
"65 356 LINE",
"65 159 LINE SMOOTH",
"65 47 OFFCURVE",
"113 -10 OFFCURVE",
"195 -10 CURVE SMOOTH"
);
},
{
closed = 1;
nodes = (
"146 279 LINE",
"146 357 LINE",
"-1 357 LINE",
"-1 279 LINE"
);
},
{
closed = 1;
nodes = (
"484 -10 OFFCURVE",
"524 23 OFFCURVE",
"524 82 CURVE SMOOTH",
"524 129 LINE",
"473 129 LINE",
"473 81 LINE SMOOTH",
"473 67 OFFCURVE",
"468 55 OFFCURVE",
"454 55 CURVE SMOOTH",
"440 55 OFFCURVE",
"435 67 OFFCURVE",
"435 81 CURVE SMOOTH",
"435 357 LINE",
"337 357 LINE",
"337 82 LINE SMOOTH",
"337 27 OFFCURVE",
"372 -10 OFFCURVE",
"434 -10 CURVE SMOOTH"
);
},
{
closed = 1;
nodes = (
"422 279 LINE",
"422 357 LINE",
"277 357 LINE",
"277 279 LINE"
);
}
);
width = 518;
},
{
anchors = (
{
name = bottom;
position = "{229, -20}";
},
{
name = ogonek;
position = "{478, -4}";
},
{
name = top;
position = "{229, 357}";
},
{
name = topright;
position = "{492, 357}";
}
);
layerId = "751C6B1B-F263-4325-91C2-F6642B60D73C";
name = SemiLight;
paths = (
{
closed = 1;
nodes = (
"284 -10 OFFCURVE",
"344 40 OFFCURVE",
"395 103 CURVE",
"395 126 LINE",
"343 61 OFFCURVE",
"278 13 OFFCURVE",
"217 13 CURVE SMOOTH",
"155 13 OFFCURVE",
"128 53 OFFCURVE",
"128 123 CURVE SMOOTH",
"128 357 LINE",
"103 357 LINE",
"103 118 LINE SMOOTH",
"103 33 OFFCURVE",
"145 -10 OFFCURVE",
"212 -10 CURVE SMOOTH"
);
},
{
closed = 1;
nodes = (
"115 334 LINE",
"115 357 LINE",
"20 357 LINE",
"20 334 LINE"
);
},
{
closed = 1;
nodes = (
"485 -5 OFFCURVE",
"510 26 OFFCURVE",
"510 68 CURVE SMOOTH",
"510 87 LINE",
"487 87 LINE",
"487 68 LINE SMOOTH",
"487 39 OFFCURVE",
"473 18 OFFCURVE",
"447 18 CURVE SMOOTH",
"422 18 OFFCURVE",
"406 37 OFFCURVE",
"406 70 CURVE SMOOTH",
"406 357 LINE",
"382 357 LINE",
"382 70 LINE SMOOTH",
"382 26 OFFCURVE",
"408 -5 OFFCURVE",
"447 -5 CURVE SMOOTH"
);
},
{
closed = 1;
nodes = (
"398 334 LINE",
"398 357 LINE",
"306 357 LINE",
"306 334 LINE"
);
}
);
width = 515;
}
);
leftKerningGroup = u.alt;
leftMetricsKey = "=u";
rightKerningGroup = u.alt;
rightMetricsKey = "=d.alt";
},
{
color = 10;
glyphname = v;
lastChange = "2015-11-10 19:21:47 +0000";
layers = (
{
anchors = (
{
name = bottom;
position = "{252, 0}";
},
{
name = top;
position = "{252, 347}";
}
);
layerId = "5072282B-E254-4F9F-BB63-C24552B293A4";
name = Bold;
paths = (
{
closed = 1;
nodes = (
"279 -18 LINE",
"462 312 LINE",
"370 312 LINE",
"263 96 LINE",
"156 313 LINE",
"42 313 LINE",
"226 -18 LINE"
);
},
{
closed = 1;
nodes = (
"222 279 LINE",
"222 357 LINE",
"13 357 LINE",
"13 279 LINE"
);
},
{
closed = 1;
nodes = (
"490 279 LINE",
"490 357 LINE",
"307 357 LINE",
"307 279 LINE"
);
}
);
width = 503;
},
{
anchors = (
{
name = bottom;
position = "{243, 0}";
},
{
name = top;
position = "{245, 347}";
}
);
layerId = "751C6B1B-F263-4325-91C2-F6642B60D73C";
name = SemiLight;
paths = (
{
closed = 1;
nodes = (
"245 -10 LINE",
"421 348 LINE",
"397 348 LINE",
"243 26 LINE",
"89 348 LINE",
"62 348 LINE",
"239 -10 LINE"
);
},
{
closed = 1;
nodes = (
"173 334 LINE",
"173 357 LINE",
"0 357 LINE",
"0 334 LINE"
);
},
{
closed = 1;
nodes = (
"489 334 LINE",
"489 357 LINE",
"315 357 LINE",
"315 334 LINE"
);
}
);
width = 489;
}
);
leftKerningGroup = v;
rightKerningGroup = v;
unicode = 0076;
},
{
color = 10;
glyphname = w;
lastChange = "2015-11-10 19:21:47 +0000";
layers = (
{
anchors = (
{
name = bottom;
position = "{352, 0}";
},
{
name = top;
position = "{352, 357}";
}
);
layerId = "5072282B-E254-4F9F-BB63-C24552B293A4";
name = Bold;
paths = (
{
closed = 1;
nodes = (
"248 -18 LINE",
"441 329 LINE",
"359 329 LINE",
"233 94 LINE",
"136 311 LINE",
"30 311 LINE",
"195 -18 LINE"
);
},
{
closed = 1;
nodes = (
"199 279 LINE",
"199 357 LINE",
"0 357 LINE",
"0 279 LINE"
);
},
{
closed = 1;
nodes = (
"503 -18 LINE",
"673 307 LINE",
"592 307 LINE",
"485 94 LINE",
"375 317 LINE",
"322 223 LINE",
"450 -18 LINE"
);
},
{
closed = 1;
nodes = (
"463 279 LINE",
"463 357 LINE",
"262 357 LINE",
"262 279 LINE"
);
},
{
closed = 1;
nodes = (
"702 279 LINE",
"702 357 LINE",
"530 357 LINE",
"530 279 LINE"
);
}
);
width = 694;
},
{
anchors = (
{
name = bottom;
position = "{382, 0}";
},
{
name = top;
position = "{374, 357}";
}
);
layerId = "751C6B1B-F263-4325-91C2-F6642B60D73C";
name = SemiLight;
paths = (
{
closed = 1;
nodes = (
"252 -10 LINE",
"455 348 LINE",
"432 348 LINE",
"251 27 LINE",
"99 348 LINE",
"72 348 LINE",
"246 -10 LINE"
);
},
{
closed = 1;
nodes = (
"181 334 LINE",
"181 357 LINE",
"10 357 LINE",
"10 334 LINE"
);
},
{
closed = 1;
nodes = (
"487 -10 LINE",
"660 348 LINE",
"636 348 LINE",
"485 27 LINE",
"304 348 LINE",
"277 348 LINE",
"481 -10 LINE"
);
},
{
closed = 1;
nodes = (
"513 334 LINE",
"513 357 LINE",
"225 357 LINE",
"225 334 LINE"
);
},
{
closed = 1;
nodes = (
"722 334 LINE",
"722 357 LINE",
"554 357 LINE",
"554 334 LINE"
);
}
);
width = 738;
}
);
leftKerningGroup = w;
rightKerningGroup = w;
unicode = 0077;
},
{
color = 10;
glyphname = x;
lastChange = "2015-11-10 19:21:47 +0000";
layers = (
{
anchors = (
{
name = bottom;
position = "{275, 0}";
},
{
name = top;
position = "{275, 357}";
}
);
layerId = "5072282B-E254-4F9F-BB63-C24552B293A4";
name = Bold;
paths = (
{
closed = 1;
nodes = (
"527 279 LINE",
"527 357 LINE",
"323 357 LINE",
"323 279 LINE"
);
},
{
closed = 1;
nodes = (
"163 65 LINE",
"277 152 LINE",
"306 152 LINE",
"494 294 LINE",
"385 294 LINE",
"271 205 LINE",
"241 205 LINE",
"54 65 LINE"
);
},
{
closed = 1;
nodes = (
"227 -1 LINE",
"227 77 LINE",
"23 77 LINE",
"23 -1 LINE"
);
},
{
closed = 1;
nodes = (
"111 216 LINE",
"111 257 OFFCURVE",
"120 284 OFFCURVE",
"155 284 CURVE SMOOTH",
"188 284 OFFCURVE",
"205 242 OFFCURVE",
"230 169 CURVE",
"235 169 LINE",
"265 74 OFFCURVE",
"314 -8 OFFCURVE",
"397 -8 CURVE SMOOTH",
"468 -8 OFFCURVE",
"522 41 OFFCURVE",
"528 133 CURVE",
"442 143 LINE",
"442 97 OFFCURVE",
"421 75 OFFCURVE",
"397 75 CURVE SMOOTH",
"365 75 OFFCURVE",
"343 117 OFFCURVE",
"318 190 CURVE",
"313 190 LINE",
"283 285 OFFCURVE",
"240 367 OFFCURVE",
"155 367 CURVE SMOOTH",
"73 367 OFFCURVE",
"34 313 OFFCURVE",
"26 226 CURVE"
);
}
);
width = 541;
},
{
anchors = (
{
name = bottom;
position = "{295, 0}";
},
{
name = top;
position = "{295, 357}";
}
);
layerId = "751C6B1B-F263-4325-91C2-F6642B60D73C";
name = SemiLight;
paths = (
{
closed = 1;
nodes = (
"540 334 LINE",
"540 357 LINE",
"352 357 LINE",
"352 334 LINE"
);
},
{
closed = 1;
nodes = (
"107 9 LINE",
"280 168 LINE",
"285 168 LINE",
"481 348 LINE",
"448 348 LINE",
"275 189 LINE",
"270 189 LINE",
"74 9 LINE"
);
},
{
closed = 1;
nodes = (
"203 0 LINE",
"203 23 LINE",
"15 23 LINE",
"15 0 LINE"
);
},
{
closed = 1;
nodes = (
"54 245 LINE",
"54 302 OFFCURVE",
"77 344 OFFCURVE",
"127 344 CURVE SMOOTH",
"175 344 OFFCURVE",
"209 290 OFFCURVE",
"267 172 CURVE",
"268 169 LINE",
"322 61 OFFCURVE",
"360 -10 OFFCURVE",
"425 -10 CURVE SMOOTH",
"500 -10 OFFCURVE",
"524 59 OFFCURVE",
"524 112 CURVE",
"499 112 LINE",
"499 55 OFFCURVE",
"475 13 OFFCURVE",
"425 13 CURVE SMOOTH",
"377 13 OFFCURVE",
"344 66 OFFCURVE",
"287 181 CURVE",
"286 184 LINE",
"233 293 OFFCURVE",
"192 367 OFFCURVE",
"127 367 CURVE SMOOTH",
"52 367 OFFCURVE",
"29 298 OFFCURVE",
"29 245 CURVE"
);
}
);
width = 555;
}
);
leftKerningGroup = x;
rightKerningGroup = x;
unicode = 0078;
},
{
color = 10;
glyphname = x.alt;
lastChange = "2015-11-10 19:21:47 +0000";
layers = (
{
anchors = (
{
name = bottom;
position = "{247, 0}";
},
{
name = top;
position = "{247, 357}";
}
);
layerId = "5072282B-E254-4F9F-BB63-C24552B293A4";
name = Bold;
paths = (
{
closed = 1;
nodes = (
"153 55 LINE",
"260 152 LINE",
"271 152 LINE",
"450 301 LINE",
"345 301 LINE",
"239 205 LINE",
"228 205 LINE",
"49 55 LINE"
);
},
{
closed = 1;
nodes = (
"209 -1 LINE",
"209 69 LINE",
"109 69 LINE",
"107 77 LINE",
"30 77 LINE",
"30 -1 LINE"
);
},
{
closed = 1;
nodes = (
"467 -1 LINE",
"467 77 LINE",
"389 77 LINE",
"387 69 LINE",
"272 69 LINE",
"272 -1 LINE"
);
},
{
closed = 1;
nodes = (
"450 56 LINE",
"288 203 LINE",
"282 203 LINE",
"180 301 LINE",
"49 301 LINE",
"211 153 LINE",
"217 153 LINE",
"318 56 LINE"
);
},
{
closed = 1;
nodes = (
"108 279 LINE",
"110 287 LINE",
"225 287 LINE",
"225 357 LINE",
"30 357 LINE",
"30 279 LINE"
);
},
{
closed = 1;
nodes = (
"389 287 LINE",
"391 279 LINE",
"468 279 LINE",
"468 357 LINE",
"289 357 LINE",
"289 287 LINE"
);
}
);
width = 495;
},
{
anchors = (
{
name = bottom;
position = "{237, 0}";
},
{
name = top;
position = "{237, 357}";
}
);
layerId = "751C6B1B-F263-4325-91C2-F6642B60D73C";
name = SemiLight;
paths = (
{
closed = 1;
nodes = (
"85 9 LINE",
"239 168 LINE",
"244 168 LINE",
"419 348 LINE",
"386 348 LINE",
"234 189 LINE",
"229 189 LINE",
"52 9 LINE"
);
},
{
closed = 1;
nodes = (
"193 0 LINE",
"193 23 LINE",
"89 23 LINE",
"77 23 LINE",
"5 23 LINE",
"5 0 LINE"
);
},
{
closed = 1;
nodes = (
"466 0 LINE",
"466 23 LINE",
"395 23 LINE",
"386 23 LINE",
"278 23 LINE",
"278 0 LINE"
);
},
{
closed = 1;
nodes = (
"419 9 LINE",
"244 189 LINE",
"239 189 LINE",
"85 348 LINE",
"52 348 LINE",
"229 168 LINE",
"234 168 LINE",
"386 9 LINE"
);
},
{
closed = 1;
nodes = (
"76 334 LINE",
"87 334 LINE",
"193 334 LINE",
"193 357 LINE",
"5 357 LINE",
"5 334 LINE"
);
},
{
closed = 1;
nodes = (
"383 334 LINE",
"395 334 LINE",
"466 334 LINE",
"466 357 LINE",
"278 357 LINE",
"278 334 LINE"
);
}
);
width = 471;
}
);
leftKerningGroup = x.alt;
rightKerningGroup = x.alt;
},
{
color = 10;
glyphname = y;
lastChange = "2015-11-10 19:21:47 +0000";
layers = (
{
anchors = (
{
name = bottom;
position = "{260, 0}";
},
{
name = top;
position = "{260, 357}";
}
);
layerId = "5072282B-E254-4F9F-BB63-C24552B293A4";
name = Bold;
paths = (
{
closed = 1;
nodes = (
"202 -190 OFFCURVE",
"256 -133 OFFCURVE",
"304 -28 CURVE SMOOTH",
"474 344 LINE",
"383 344 LINE",
"227 -9 LINE SMOOTH",
"199 -73 OFFCURVE",
"168 -103 OFFCURVE",
"125 -103 CURVE SMOOTH",
"97 -103 OFFCURVE",
"72 -90 OFFCURVE",
"53 -78 CURVE",
"15 -153 LINE",
"49 -174 OFFCURVE",
"80 -190 OFFCURVE",
"125 -190 CURVE SMOOTH"
);
},
{
closed = 1;
nodes = (
"302 20 LINE",
"147 344 LINE",
"33 344 LINE",
"242 -52 LINE"
);
},
{
closed = 1;
nodes = (
"231 279 LINE",
"231 357 LINE",
"17 357 LINE",
"17 279 LINE"
);
},
{
closed = 1;
nodes = (
"493 279 LINE",
"493 357 LINE",
"304 357 LINE",
"304 279 LINE"
);
}
);
width = 507;
},
{
anchors = (
{
name = bottom;
position = "{256, 0}";
},
{
name = top;
position = "{256, 357}";
}
);
background = {
paths = (
{
closed = 1;
nodes = (
"-21 357 LINE",
"-21 334 LINE",
"152 334 LINE",
"152 357 LINE"
);
},
{
closed = 1;
nodes = (
"308 357 LINE",
"308 334 LINE",
"482 334 LINE",
"482 357 LINE"
);
},
{
closed = 1;
nodes = (
"231 -10 LINE",
"414 348 LINE",
"390 348 LINE",
"229 30 LINE",
"68 348 LINE",
"41 348 LINE",
"225 -10 LINE"
);
}
);
};
layerId = "751C6B1B-F263-4325-91C2-F6642B60D73C";
name = SemiLight;
paths = (
{
closed = 1;
nodes = (
"178 -193 OFFCURVE",
"216 -143 OFFCURVE",
"251 -63 CURVE SMOOTH",
"426 343 LINE",
"399 343 LINE",
"224 -64 LINE SMOOTH",
"193 -137 OFFCURVE",
"158 -170 OFFCURVE",
"116 -170 CURVE SMOOTH",
"82 -170 OFFCURVE",
"56 -154 OFFCURVE",
"33 -136 CURVE",
"20 -156 LINE",
"43 -173 OFFCURVE",
"74 -193 OFFCURVE",
"116 -193 CURVE SMOOTH"
);
},
{
closed = 1;
nodes = (
"262 -20 LINE",
"101 348 LINE",
"73 348 LINE",
"247 -44 LINE"
);
},
{
closed = 1;
nodes = (
"183 334 LINE",
"183 357 LINE",
"0 357 LINE",
"0 334 LINE"
);
},
{
closed = 1;
nodes = (
"497 334 LINE",
"497 357 LINE",
"324 357 LINE",
"324 334 LINE"
);
}
);
width = 497;
}
);
leftKerningGroup = y;
rightKerningGroup = y;
unicode = 0079;
},
{
color = 10;
glyphname = z;
lastChange = "2015-11-10 19:21:47 +0000";
layers = (
{
anchors = (
{
name = bottom;
position = "{204, -10}";
},
{
name = top;
position = "{244, 367}";
}
);
layerId = "5072282B-E254-4F9F-BB63-C24552B293A4";
name = Bold;
paths = (
{
closed = 1;
nodes = (
"343 278 OFFCURVE",
"305 257 OFFCURVE",
"223 220 CURVE SMOOTH",
"151 187 OFFCURVE",
"62 142 OFFCURVE",
"20 22 CURVE",
"101 -11 LINE",
"134 81 OFFCURVE",
"195 112 OFFCURVE",
"274 149 CURVE SMOOTH",
"358 188 OFFCURVE",
"418 229 OFFCURVE",
"446 337 CURVE",
"363 368 LINE"
);
},
{
closed = 1;
nodes = (
"370 -11 OFFCURVE",
"442 35 OFFCURVE",
"453 120 CURVE",
"369 144 LINE",
"360 104 OFFCURVE",
"329 72 OFFCURVE",
"291 72 CURVE SMOOTH",
"246 72 OFFCURVE",
"211 92 OFFCURVE",
"130 145 CURVE",
"107 100 LINE",
"187 30 OFFCURVE",
"230 -11 OFFCURVE",
"306 -11 CURVE SMOOTH"
);
},
{
closed = 1;
nodes = (
"123 217 LINE",
"123 284 LINE",
"227 284 OFFCURVE",
"278 242 OFFCURVE",
"314 212 CURVE",
"345 261 LINE",
"275 327 OFFCURVE",
"229 367 OFFCURVE",
"98 367 CURVE SMOOTH",
"38 367 LINE",
"38 217 LINE"
);
}
);
width = 468;
},
{
anchors = (
{
name = bottom;
position = "{239, -10}";
},
{
name = top;
position = "{239, 367}";
}
);
background = {
paths = (
{
closed = 1;
nodes = (
"365 159 OFFCURVE",
"96 236 OFFCURVE",
"35 -4 CURVE",
"56 -10 LINE",
"117 218 OFFCURVE",
"385 140 OFFCURVE",
"414 362 CURVE",
"392 367 LINE"
);
},
{
closed = 1;
nodes = (
"380 -10 OFFCURVE",
"430 41 OFFCURVE",
"437 111 CURVE",
"414 115 LINE",
"407 47 OFFCURVE",
"359 13 OFFCURVE",
"305 13 CURVE SMOOTH",
"248 13 OFFCURVE",
"183 51 OFFCURVE",
"115 105 CURVE",
"99 90 LINE",
"169 34 OFFCURVE",
"239 -10 OFFCURVE",
"304 -10 CURVE SMOOTH"
);
},
{
closed = 1;
nodes = (
"72 264 LINE",
"72 345 LINE",
"188 345 OFFCURVE",
"268 315 OFFCURVE",
"350 250 CURVE",
"358 269 LINE",
"276 335 OFFCURVE",
"203 367 OFFCURVE",
"72 367 CURVE SMOOTH",
"47 367 LINE",
"47 264 LINE"
);
}
);
};
layerId = "751C6B1B-F263-4325-91C2-F6642B60D73C";
name = SemiLight;
paths = (
{
closed = 1;
nodes = (
"378 262 OFFCURVE",
"304 230 OFFCURVE",
"225 193 CURVE SMOOTH",
"147 156 OFFCURVE",
"65 115 OFFCURVE",
"35 -4 CURVE",
"56 -10 LINE",
"85 98 OFFCURVE",
"160 137 OFFCURVE",
"234 172 CURVE SMOOTH",
"317 211 OFFCURVE",
"399 245 OFFCURVE",
"414 362 CURVE",
"392 367 LINE"
);
},
{
closed = 1;
nodes = (
"380 -10 OFFCURVE",
"430 41 OFFCURVE",
"437 111 CURVE",
"414 115 LINE",
"407 47 OFFCURVE",
"359 13 OFFCURVE",
"305 13 CURVE SMOOTH",
"248 13 OFFCURVE",
"183 51 OFFCURVE",
"115 105 CURVE",
"99 90 LINE",
"169 34 OFFCURVE",
"239 -10 OFFCURVE",
"304 -10 CURVE SMOOTH"
);
},
{
closed = 1;
nodes = (
"72 253 LINE",
"72 345 LINE",
"188 345 OFFCURVE",
"268 315 OFFCURVE",
"350 250 CURVE",
"358 269 LINE",
"276 335 OFFCURVE",
"203 367 OFFCURVE",
"72 367 CURVE SMOOTH",
"47 367 LINE",
"47 253 LINE"
);
}
);
width = 462;
}
);
leftKerningGroup = z;
rightKerningGroup = z;
unicode = 007A;
},
{
color = 10;
glyphname = z.alt;
lastChange = "2015-11-10 19:21:47 +0000";
layers = (
{
anchors = (
{
name = bottom;
position = "{271, -10}";
},
{
name = top;
position = "{269, 367}";
}
);
layerId = "5072282B-E254-4F9F-BB63-C24552B293A4";
name = Bold;
paths = (
{
closed = 1;
nodes = (
"452 0 LINE",
"452 163 LINE",
"369 163 LINE",
"369 78 LINE",
"227 78 LINE",
"181 66 LINE",
"180 68 LINE",
"225 97 LINE",
"453 302 LINE",
"453 355 LINE",
"64 355 LINE",
"64 192 LINE",
"147 192 LINE",
"147 277 LINE",
"281 277 LINE",
"327 289 LINE",
"328 287 LINE",
"283 258 LINE",
"58 53 LINE",
"58 0 LINE"
);
}
);
width = 498;
},
{
anchors = (
{
name = bottom;
position = "{227, -10}";
},
{
name = top;
position = "{225, 367}";
}
);
layerId = "751C6B1B-F263-4325-91C2-F6642B60D73C";
name = SemiLight;
paths = (
{
closed = 1;
nodes = (
"402 0 LINE",
"402 115 LINE",
"379 115 LINE",
"379 23 LINE",
"104 23 LINE",
"81 19 LINE",
"81 20 LINE",
"101 30 LINE",
"403 342 LINE",
"403 355 LINE",
"56 355 LINE",
"56 240 LINE",
"79 240 LINE",
"79 332 LINE",
"350 332 LINE",
"373 336 LINE",
"373 335 LINE",
"353 325 LINE",
"50 13 LINE",
"50 0 LINE"
);
}
);
width = 448;
}
);
leftKerningGroup = z.alt;
rightKerningGroup = z.alt;
},
{
color = 10;
glyphname = ordfeminine;
lastChange = "2015-11-10 19:21:47 +0000";
layers = (
{
layerId = "5072282B-E254-4F9F-BB63-C24552B293A4";
name = Bold;
paths = (
{
closed = 1;
nodes = (
"276 310 OFFCURVE",
"300 330 OFFCURVE",
"300 364 CURVE SMOOTH",
"300 392 LINE",
"270 392 LINE",
"270 364 LINE SMOOTH",
"270 356 OFFCURVE",
"267 348 OFFCURVE",
"259 348 CURVE SMOOTH",
"250 348 OFFCURVE",
"247 356 OFFCURVE",
"247 364 CURVE SMOOTH",
"247 443 LINE",
"247 495 OFFCURVE",
"213 528 OFFCURVE",
"149 528 CURVE SMOOTH",
"111 528 OFFCURVE",
"82 519 OFFCURVE",
"44 503 CURVE",
"57 459 LINE",
"88 472 OFFCURVE",
"114 479 OFFCURVE",
"141 479 CURVE SMOOTH",
"169 479 OFFCURVE",
"190 469 OFFCURVE",
"190 445 CURVE",
"190 364 LINE SMOOTH",
"190 332 OFFCURVE",
"210 310 OFFCURVE",
"247 310 CURVE SMOOTH"
);
},
{
closed = 1;
nodes = (
"142 307 OFFCURVE",
"174 324 OFFCURVE",
"201 349 CURVE",
"202 387 LINE",
"174 365 OFFCURVE",
"147 354 OFFCURVE",
"126 354 CURVE SMOOTH",
"108 354 OFFCURVE",
"97 362 OFFCURVE",
"97 375 CURVE SMOOTH",
"97 392 OFFCURVE",
"115 399 OFFCURVE",
"134 399 CURVE SMOOTH",
"155 399 OFFCURVE",
"176 397 OFFCURVE",
"202 390 CURVE",
"202 427 LINE",
"176 435 OFFCURVE",
"149 441 OFFCURVE",
"119 441 CURVE SMOOTH",
"76 441 OFFCURVE",
"33 417 OFFCURVE",
"33 372 CURVE SMOOTH",
"33 328 OFFCURVE",
"70 307 OFFCURVE",
"109 307 CURVE SMOOTH"
);
},
{
closed = 1;
nodes = (
"40 212 LINE",
"287 212 LINE",
"287 255 LINE",
"40 255 LINE"
);
}
);
width = 317;
},
{
layerId = "751C6B1B-F263-4325-91C2-F6642B60D73C";
name = SemiLight;
paths = (
{
closed = 1;
nodes = (
"288 304 OFFCURVE",
"304 324 OFFCURVE",
"304 348 CURVE SMOOTH",
"304 359 LINE",
"283 359 LINE",
"283 348 LINE SMOOTH",
"283 335 OFFCURVE",
"276 325 OFFCURVE",
"262 325 CURVE SMOOTH",
"250 325 OFFCURVE",
"240 334 OFFCURVE",
"240 351 CURVE SMOOTH",
"240 458 LINE",
"240 501 OFFCURVE",
"209 529 OFFCURVE",
"150 529 CURVE SMOOTH",
"120 529 OFFCURVE",
"90 523 OFFCURVE",
"56 511 CURVE",
"62 490 LINE",
"95 502 OFFCURVE",
"121 508 OFFCURVE",
"150 508 CURVE SMOOTH",
"199 508 OFFCURVE",
"217 486 OFFCURVE",
"217 458 CURVE",
"217 351 LINE SMOOTH",
"217 322 OFFCURVE",
"234 304 OFFCURVE",
"263 304 CURVE SMOOTH"
);
},
{
closed = 1;
nodes = (
"156 301 OFFCURVE",
"197 318 OFFCURVE",
"227 352 CURVE",
"227 370 LINE",
"197 339 OFFCURVE",
"159 322 OFFCURVE",
"127 322 CURVE SMOOTH",
"99 322 OFFCURVE",
"71 335 OFFCURVE",
"71 369 CURVE SMOOTH",
"71 401 OFFCURVE",
"99 418 OFFCURVE",
"137 418 CURVE SMOOTH",
"169 418 OFFCURVE",
"198 413 OFFCURVE",
"227 401 CURVE",
"227 419 LINE",
"198 430 OFFCURVE",
"171 439 OFFCURVE",
"133 439 CURVE SMOOTH",
"89 439 OFFCURVE",
"48 416 OFFCURVE",
"48 369 CURVE SMOOTH",
"48 320 OFFCURVE",
"90 301 OFFCURVE",
"125 301 CURVE SMOOTH"
);
},
{
closed = 1;
nodes = (
"45 212 LINE",
"282 212 LINE",
"282 233 LINE",
"45 233 LINE"
);
}
);
width = 334;
}
);
leftKerningGroup = ordfeminine;
rightKerningGroup = ordfeminine;
unicode = 00AA;
},
{
color = 10;
glyphname = ordmasculine;
lastChange = "2015-11-10 19:21:47 +0000";
layers = (
{
layerId = "5072282B-E254-4F9F-BB63-C24552B293A4";
name = Bold;
paths = (
{
closed = 1;
nodes = (
"226 307 OFFCURVE",
"281 350 OFFCURVE",
"281 418 CURVE",
"281 485 OFFCURVE",
"222 529 OFFCURVE",
"157 529 CURVE",
"90 529 OFFCURVE",
"33 485 OFFCURVE",
"33 418 CURVE",
"33 350 OFFCURVE",
"90 307 OFFCURVE",
"157 307 CURVE"
);
},
{
closed = 1;
nodes = (
"122 355 OFFCURVE",
"97 380 OFFCURVE",
"97 418 CURVE",
"97 455 OFFCURVE",
"122 480 OFFCURVE",
"157 480 CURVE",
"191 480 OFFCURVE",
"217 455 OFFCURVE",
"217 418 CURVE",
"217 380 OFFCURVE",
"191 355 OFFCURVE",
"157 355 CURVE"
);
},
{
closed = 1;
nodes = (
"43 212 LINE",
"271 212 LINE",
"271 255 LINE",
"43 255 LINE"
);
}
);
width = 314;
},
{
layerId = "751C6B1B-F263-4325-91C2-F6642B60D73C";
name = SemiLight;
paths = (
{
closed = 1;
nodes = (
"204 310 OFFCURVE",
"253 353 OFFCURVE",
"253 421 CURVE",
"253 488 OFFCURVE",
"204 531 OFFCURVE",
"144 532 CURVE",
"84 531 OFFCURVE",
"35 488 OFFCURVE",
"35 421 CURVE",
"35 353 OFFCURVE",
"84 310 OFFCURVE",
"144 310 CURVE"
);
},
{
closed = 1;
nodes = (
"93 330 OFFCURVE",
"58 370 OFFCURVE",
"58 421 CURVE",
"58 471 OFFCURVE",
"93 511 OFFCURVE",
"144 511 CURVE",
"196 511 OFFCURVE",
"231 471 OFFCURVE",
"231 421 CURVE",
"231 370 OFFCURVE",
"196 330 OFFCURVE",
"144 330 CURVE"
);
},
{
closed = 1;
nodes = (
"45 212 LINE",
"243 212 LINE",
"243 233 LINE",
"45 233 LINE"
);
}
);
width = 288;
}
);
leftKerningGroup = ordmasculine;
rightKerningGroup = ordmasculine;
unicode = 00BA;
},
{
color = 10;
glyphname = "Be-cy";
lastChange = "2015-11-10 19:21:47 +0000";
layers = (
{
layerId = "5072282B-E254-4F9F-BB63-C24552B293A4";
name = Bold;
paths = (
{
closed = 1;
nodes = (
"184 274 LINE",
"184 196 LINE",
"372 196 LINE SMOOTH",
"428 196 OFFCURVE",
"466 178 OFFCURVE",
"466 140 CURVE SMOOTH",
"466 102 OFFCURVE",
"425 83 OFFCURVE",
"366 83 CURVE SMOOTH",
"26 83 LINE",
"26 0 LINE",
"366 0 LINE SMOOTH",
"500 0 OFFCURVE",
"569 53 OFFCURVE",
"569 140 CURVE SMOOTH",
"569 227 OFFCURVE",
"499 276 OFFCURVE",
"366 275 CURVE"
);
},
{
closed = 1;
nodes = (
"456 437 LINE",
"456 337 LINE",
"548 337 LINE",
"548 520 LINE",
"26 520 LINE",
"26 437 LINE"
);
},
{
closed = 1;
nodes = (
"219 46 LINE",
"219 472 LINE",
"114 472 LINE",
"114 46 LINE"
);
}
);
width = 604;
},
{
layerId = "751C6B1B-F263-4325-91C2-F6642B60D73C";
name = SemiLight;
paths = (
{
closed = 1;
nodes = (
"159 263 LINE",
"159 240 LINE",
"297 239 LINE SMOOTH",
"396 238 OFFCURVE",
"472 207 OFFCURVE",
"472 129 CURVE SMOOTH",
"472 55 OFFCURVE",
"404 23 OFFCURVE",
"302 23 CURVE SMOOTH",
"30 23 LINE",
"30 0 LINE",
"308 0 LINE SMOOTH",
"425 0 OFFCURVE",
"497 45 OFFCURVE",
"497 128 CURVE SMOOTH",
"497 216 OFFCURVE",
"419 263 OFFCURVE",
"302 263 CURVE"
);
},
{
closed = 1;
nodes = (
"462 497 LINE",
"462 384 LINE",
"487 384 LINE",
"487 520 LINE",
"30 520 LINE",
"30 497 LINE"
);
},
{
closed = 1;
nodes = (
"168 13 LINE",
"168 507 LINE",
"143 507 LINE",
"143 13 LINE"
);
}
);
width = 572;
}
);
leftKerningGroup = H;
leftMetricsKey = "=H";
rightKerningGroup = "Be-cy";
unicode = 0411;
},
{
color = 10;
glyphname = "De-cy";
lastChange = "2015-11-10 19:21:47 +0000";
layers = (
{
layerId = "5072282B-E254-4F9F-BB63-C24552B293A4";
name = Bold;
paths = (
{
closed = 1;
nodes = (
"539 13 LINE",
"381 470 LINE SMOOTH",
"162 470 LINE",
"6 13 LINE",
"109 13 LINE",
"257 462 LINE",
"285 462 LINE",
"433 13 LINE"
);
},
{
closed = 1;
nodes = (
"112 -119 LINE",
"106 13 LINE",
"6 13 LINE",
"25 -119 LINE"
);
},
{
closed = 1;
nodes = (
"487 0 LINE",
"487 83 LINE",
"45 83 LINE",
"45 0 LINE"
);
},
{
closed = 1;
nodes = (
"518 -119 LINE",
"538 13 LINE",
"435 13 LINE",
"432 -119 LINE"
);
},
{
closed = 1;
nodes = (
"460 437 LINE",
"460 520 LINE",
"80 520 LINE",
"80 437 LINE"
);
}
);
width = 543;
},
{
layerId = "751C6B1B-F263-4325-91C2-F6642B60D73C";
name = SemiLight;
paths = (
{
closed = 1;
nodes = (
"500 13 LINE",
"316 510 LINE SMOOTH",
"218 510 LINE",
"35 15 LINE",
"62 15 LINE",
"239 502 LINE",
"296 502 LINE",
"473 13 LINE"
);
},
{
closed = 1;
nodes = (
"62 -108 LINE",
"62 15 LINE",
"35 15 LINE",
"47 -108 LINE"
);
},
{
closed = 1;
nodes = (
"486 0 LINE",
"486 22 LINE",
"50 22 LINE",
"50 0 LINE"
);
},
{
closed = 1;
nodes = (
"488 -110 LINE",
"500 13 LINE",
"473 13 LINE",
"473 -110 LINE"
);
},
{
closed = 1;
nodes = (
"435 497 LINE",
"435 520 LINE",
"99 520 LINE",
"99 497 LINE"
);
}
);
width = 535;
}
);
leftKerningGroup = "De-cy";
rightKerningGroup = "De-cy";
unicode = 0414;
},
{
color = 10;
glyphname = "Zhe-cy";
lastChange = "2015-11-10 19:21:47 +0000";
layers = (
{
layerId = "5072282B-E254-4F9F-BB63-C24552B293A4";
name = Bold;
paths = (
{
closed = 1;
nodes = (
"550 0 LINE SMOOTH",
"550 83 LINE SMOOTH",
"317 83 LINE SMOOTH",
"317 0 LINE SMOOTH"
);
},
{
closed = 1;
nodes = (
"487 46 LINE SMOOTH",
"487 472 LINE SMOOTH",
"383 472 LINE SMOOTH",
"383 46 LINE SMOOTH"
);
},
{
closed = 1;
nodes = (
"550 437 LINE SMOOTH",
"550 520 LINE SMOOTH",
"317 520 LINE SMOOTH",
"317 437 LINE SMOOTH"
);
},
{
closed = 1;
nodes = (
"288 228 LINE",
"391 260 LINE",
"178 454 LINE",
"38 454 LINE"
);
},
{
closed = 1;
nodes = (
"154 61 LINE",
"391 260 LINE",
"295 286 LINE",
"35 61 LINE"
);
},
{
closed = 1;
nodes = (
"249 437 LINE SMOOTH",
"249 520 LINE SMOOTH",
"5 520 LINE SMOOTH",
"5 437 LINE SMOOTH"
);
},
{
closed = 1;
nodes = (
"249 0 LINE SMOOTH",
"249 83 LINE SMOOTH",
"5 83 LINE SMOOTH",
"5 0 LINE SMOOTH"
);
},
{
closed = 1;
nodes = (
"692 66 LINE",
"832 66 LINE",
"582 292 LINE",
"479 260 LINE"
);
},
{
closed = 1;
nodes = (
"835 459 LINE",
"716 459 LINE",
"479 260 LINE",
"575 234 LINE"
);
},
{
closed = 1;
nodes = (
"865 0 LINE SMOOTH",
"865 82 LINE SMOOTH",
"621 82 LINE SMOOTH",
"621 0 LINE SMOOTH"
);
},
{
closed = 1;
nodes = (
"865 437 LINE SMOOTH",
"865 520 LINE SMOOTH",
"621 520 LINE SMOOTH",
"621 437 LINE SMOOTH"
);
}
);
width = 870;
},
{
layerId = "751C6B1B-F263-4325-91C2-F6642B60D73C";
name = SemiLight;
paths = (
{
closed = 1;
nodes = (
"538 0 LINE SMOOTH",
"538 23 LINE SMOOTH",
"287 23 LINE SMOOTH",
"287 0 LINE SMOOTH"
);
},
{
closed = 1;
nodes = (
"425 13 LINE SMOOTH",
"425 507 LINE SMOOTH",
"400 507 LINE SMOOTH",
"400 13 LINE SMOOTH"
);
},
{
closed = 1;
nodes = (
"538 497 LINE SMOOTH",
"538 520 LINE SMOOTH",
"287 520 LINE SMOOTH",
"287 497 LINE SMOOTH"
);
},
{
closed = 1;
nodes = (
"374 249 LINE",
"402 260 LINE",
"119 507 LINE",
"72 507 LINE"
);
},
{
closed = 1;
nodes = (
"119 10 LINE",
"402 260 LINE",
"366 264 LINE",
"76 10 LINE"
);
},
{
closed = 1;
nodes = (
"232 497 LINE SMOOTH",
"232 520 LINE SMOOTH",
"0 520 LINE SMOOTH",
"0 497 LINE SMOOTH"
);
},
{
closed = 1;
nodes = (
"232 0 LINE SMOOTH",
"232 23 LINE SMOOTH",
"0 23 LINE SMOOTH",
"0 0 LINE SMOOTH"
);
},
{
closed = 1;
nodes = (
"705 13 LINE",
"752 13 LINE",
"450 271 LINE",
"422 260 LINE"
);
},
{
closed = 1;
nodes = (
"748 510 LINE",
"705 510 LINE",
"422 260 LINE",
"458 256 LINE"
);
},
{
closed = 1;
nodes = (
"824 0 LINE SMOOTH",
"824 23 LINE SMOOTH",
"592 23 LINE SMOOTH",
"592 0 LINE SMOOTH"
);
},
{
closed = 1;
nodes = (
"824 497 LINE SMOOTH",
"824 520 LINE SMOOTH",
"592 520 LINE SMOOTH",
"592 497 LINE SMOOTH"
);
}
);
width = 824;
}
);
leftKerningGroup = "Zhe-cy";
rightKerningGroup = "Zhe-cy";
unicode = 0416;
},
{
color = 10;
glyphname = "Ef-cy";
lastChange = "2015-11-10 19:21:47 +0000";
layers = (
{
layerId = "5072282B-E254-4F9F-BB63-C24552B293A4";
name = Bold;
paths = (
{
closed = 1;
nodes = (
"503 45 OFFCURVE",
"631 104 OFFCURVE",
"631 240 CURVE SMOOTH",
"631 366 OFFCURVE",
"503 435 OFFCURVE",
"318 435 CURVE SMOOTH",
"133 435 OFFCURVE",
"5 366 OFFCURVE",
"5 240 CURVE SMOOTH",
"5 104 OFFCURVE",
"133 45 OFFCURVE",
"318 45 CURVE SMOOTH"
);
},
{
closed = 1;
nodes = (
"441 -85 LINE SMOOTH",
"441 -2 LINE SMOOTH",
"196 -2 LINE SMOOTH",
"196 -85 LINE SMOOTH"
);
},
{
closed = 1;
nodes = (
"180 110 OFFCURVE",
"114 154 OFFCURVE",
"114 240 CURVE SMOOTH",
"114 316 OFFCURVE",
"180 370 OFFCURVE",
"318 370 CURVE SMOOTH",
"456 370 OFFCURVE",
"522 316 OFFCURVE",
"522 240 CURVE SMOOTH",
"522 154 OFFCURVE",
"456 110 OFFCURVE",
"318 110 CURVE SMOOTH"
);
},
{
closed = 1;
nodes = (
"369 -44 LINE SMOOTH",
"369 512 LINE SMOOTH",
"268 512 LINE SMOOTH",
"268 -44 LINE SMOOTH"
);
},
{
closed = 1;
nodes = (
"441 477 LINE SMOOTH",
"441 560 LINE SMOOTH",
"196 560 LINE SMOOTH",
"196 477 LINE SMOOTH"
);
}
);
width = 636;
},
{
layerId = "751C6B1B-F263-4325-91C2-F6642B60D73C";
name = SemiLight;
paths = (
{
closed = 1;
nodes = (
"449 33 OFFCURVE",
"591 101 OFFCURVE",
"591 236 CURVE SMOOTH",
"591 374 OFFCURVE",
"449 443 OFFCURVE",
"308 443 CURVE SMOOTH",
"167 443 OFFCURVE",
"25 374 OFFCURVE",
"25 236 CURVE SMOOTH",
"25 101 OFFCURVE",
"167 33 OFFCURVE",
"308 33 CURVE SMOOTH"
);
},
{
closed = 1;
nodes = (
"434 -85 LINE SMOOTH",
"434 -62 LINE SMOOTH",
"183 -62 LINE SMOOTH",
"183 -85 LINE SMOOTH"
);
},
{
closed = 1;
nodes = (
"177 55 OFFCURVE",
"50 119 OFFCURVE",
"50 236 CURVE SMOOTH",
"50 357 OFFCURVE",
"177 421 OFFCURVE",
"308 421 CURVE SMOOTH",
"438 421 OFFCURVE",
"566 357 OFFCURVE",
"566 236 CURVE SMOOTH",
"566 119 OFFCURVE",
"438 55 OFFCURVE",
"308 55 CURVE SMOOTH"
);
},
{
closed = 1;
nodes = (
"321 -72 LINE SMOOTH",
"321 547 LINE SMOOTH",
"296 547 LINE SMOOTH",
"296 -72 LINE SMOOTH"
);
},
{
closed = 1;
nodes = (
"434 537 LINE SMOOTH",
"434 560 LINE SMOOTH",
"183 560 LINE SMOOTH",
"183 537 LINE SMOOTH"
);
}
);
width = 616;
}
);
leftKerningGroup = Phi;
rightKerningGroup = Phi;
unicode = 0424;
},
{
color = 10;
glyphname = zero;
lastChange = "2015-11-10 19:21:47 +0000";
layers = (
{
layerId = "5072282B-E254-4F9F-BB63-C24552B293A4";
name = Bold;
paths = (
{
closed = 1;
nodes = (
"408 -10 OFFCURVE",
"536 73 OFFCURVE",
"536 235 CURVE",
"536 397 OFFCURVE",
"408 480 OFFCURVE",
"283 480 CURVE SMOOTH",
"158 480 OFFCURVE",
"30 397 OFFCURVE",
"30 235 CURVE",
"30 73 OFFCURVE",
"158 -10 OFFCURVE",
"283 -10 CURVE"
);
},
{
closed = 1;
nodes = (
"197 68 OFFCURVE",
"135 134 OFFCURVE",
"135 235 CURVE",
"135 336 OFFCURVE",
"197 402 OFFCURVE",
"283 402 CURVE SMOOTH",
"370 402 OFFCURVE",
"431 336 OFFCURVE",
"431 235 CURVE",
"431 134 OFFCURVE",
"369 68 OFFCURVE",
"283 68 CURVE SMOOTH"
);
},
{
closed = 1;
nodes = (
"321 176 OFFCURVE",
"346 201 OFFCURVE",
"346 234 CURVE",
"346 270 OFFCURVE",
"321 295 OFFCURVE",
"283 295 CURVE",
"248 295 OFFCURVE",
"220 270 OFFCURVE",
"220 234 CURVE",
"220 201 OFFCURVE",
"248 176 OFFCURVE",
"283 176 CURVE"
);
}
);
width = 566;
},
{
layerId = "751C6B1B-F263-4325-91C2-F6642B60D73C";
name = SemiLight;
paths = (
{
closed = 1;
nodes = (
"382 -10 OFFCURVE",
"471 89 OFFCURVE",
"471 235 CURVE",
"471 381 OFFCURVE",
"376 480 OFFCURVE",
"258 480 CURVE SMOOTH",
"134 480 OFFCURVE",
"45 381 OFFCURVE",
"45 235 CURVE",
"45 89 OFFCURVE",
"140 -10 OFFCURVE",
"258 -10 CURVE"
);
},
{
closed = 1;
nodes = (
"150 14 OFFCURVE",
"69 107 OFFCURVE",
"69 235 CURVE",
"69 363 OFFCURVE",
"144 456 OFFCURVE",
"258 456 CURVE SMOOTH",
"366 456 OFFCURVE",
"447 363 OFFCURVE",
"447 235 CURVE",
"447 107 OFFCURVE",
"372 14 OFFCURVE",
"258 14 CURVE SMOOTH"
);
},
{
closed = 1;
nodes = (
"280 205 OFFCURVE",
"296 218 OFFCURVE",
"296 235 CURVE",
"296 253 OFFCURVE",
"280 266 OFFCURVE",
"259 266 CURVE",
"240 266 OFFCURVE",
"223 253 OFFCURVE",
"223 235 CURVE",
"223 218 OFFCURVE",
"240 205 OFFCURVE",
"259 205 CURVE"
);
}
);
width = 516;
}
);
leftKerningGroup = zero;
rightKerningGroup = zero;
unicode = 0030;
},
{
color = 10;
glyphname = one;
lastChange = "2015-11-10 19:21:47 +0000";
layers = (
{
layerId = "5072282B-E254-4F9F-BB63-C24552B293A4";
name = Bold;
paths = (
{
closed = 1;
nodes = (
"133 302 OFFCURVE",
"170 346 OFFCURVE",
"187 405 CURVE",
"160 470 LINE",
"145 416 OFFCURVE",
"95 381 OFFCURVE",
"35 371 CURVE",
"66 286 LINE"
);
},
{
closed = 1;
nodes = (
"334 0 LINE",
"334 83 LINE",
"57 83 LINE",
"57 0 LINE"
);
},
{
closed = 1;
nodes = (
"259 25 LINE",
"259 470 LINE",
"160 470 LINE",
"160 25 LINE"
);
}
);
width = 359;
},
{
layerId = "751C6B1B-F263-4325-91C2-F6642B60D73C";
name = SemiLight;
paths = (
{
closed = 1;
nodes = (
"113 361 OFFCURVE",
"180 406 OFFCURVE",
"187 475 CURVE",
"170 480 LINE",
"163 424 OFFCURVE",
"98 381 OFFCURVE",
"40 381 CURVE",
"44 356 LINE"
);
},
{
closed = 1;
nodes = (
"286 0 LINE",
"286 23 LINE",
"52 23 LINE",
"52 0 LINE"
);
},
{
closed = 1;
nodes = (
"194 0 LINE",
"194 480 LINE",
"170 480 LINE",
"170 0 LINE"
);
}
);
width = 321;
}
);
leftKerningGroup = one;
rightKerningGroup = one;
unicode = 0031;
},
{
color = 10;
glyphname = two;
lastChange = "2015-11-10 19:21:47 +0000";
layers = (
{
layerId = "5072282B-E254-4F9F-BB63-C24552B293A4";
name = Bold;
paths = (
{
closed = 1;
nodes = (
"441 0 LINE",
"441 158 LINE",
"358 158 LINE",
"358 83 LINE",
"25 83 LINE",
"25 0 LINE"
);
},
{
closed = 1;
nodes = (
"429 431 OFFCURVE",
"337 481 OFFCURVE",
"245 480 CURVE SMOOTH",
"155 479 OFFCURVE",
"78 436 OFFCURVE",
"24 383 CURVE",
"75 322 LINE",
"124 366 OFFCURVE",
"182 397 OFFCURVE",
"239 397 CURVE SMOOTH",
"295 397 OFFCURVE",
"327 371 OFFCURVE",
"328 337 CURVE SMOOTH",
"327 305 OFFCURVE",
"302 290 OFFCURVE",
"210 256 CURVE SMOOTH",
"94 213 OFFCURVE",
"25 160 OFFCURVE",
"25 72 CURVE",
"125 72 LINE",
"125 125 OFFCURVE",
"166 147 OFFCURVE",
"252 179 CURVE SMOOTH",
"358 218 OFFCURVE",
"429 255 OFFCURVE",
"429 337 CURVE SMOOTH"
);
}
);
width = 476;
},
{
background = {
paths = (
{
closed = 1;
nodes = (
"277 169 LINE SMOOTH",
"371 227 OFFCURVE",
"417 273 OFFCURVE",
"417 348 CURVE SMOOTH",
"417 442 OFFCURVE",
"331 490 OFFCURVE",
"232 490 CURVE SMOOTH",
"147 490 OFFCURVE",
"70 450 OFFCURVE",
"16 388 CURVE",
"71 325 LINE",
"117 378 OFFCURVE",
"168 407 OFFCURVE",
"227 407 CURVE SMOOTH",
"280 407 OFFCURVE",
"313 377 OFFCURVE",
"313 338 CURVE SMOOTH",
"313 296 OFFCURVE",
"285 271 OFFCURVE",
"221 227 CURVE SMOOTH",
"10 83 LINE",
"70 41 LINE"
);
},
{
closed = 1;
nodes = (
"444 0 LINE",
"444 172 LINE",
"360 172 LINE",
"360 83 LINE",
"11 83 LINE",
"11 0 LINE"
);
}
);
};
layerId = "751C6B1B-F263-4325-91C2-F6642B60D73C";
name = SemiLight;
paths = (
{
closed = 1;
nodes = (
"423 0 LINE",
"423 136 LINE",
"399 136 LINE",
"399 23 LINE",
"40 23 LINE",
"40 0 LINE"
);
},
{
closed = 1;
nodes = (
"405 441 OFFCURVE",
"324 481 OFFCURVE",
"249 481 CURVE SMOOTH",
"161 481 OFFCURVE",
"99 442 OFFCURVE",
"47 387 CURVE",
"62 369 LINE",
"113 423 OFFCURVE",
"172 458 OFFCURVE",
"249 458 CURVE SMOOTH",
"320 458 OFFCURVE",
"379 421 OFFCURVE",
"380 358 CURVE SMOOTH",
"381 293 OFFCURVE",
"318 265 OFFCURVE",
"226 217 CURVE SMOOTH",
"136 170 OFFCURVE",
"40 133 OFFCURVE",
"40 17 CURVE",
"65 17 LINE",
"65 118 OFFCURVE",
"145 148 OFFCURVE",
"236 195 CURVE SMOOTH",
"331 244 OFFCURVE",
"405 275 OFFCURVE",
"405 357 CURVE SMOOTH"
);
}
);
width = 478;
}
);
leftKerningGroup = two;
rightKerningGroup = two;
unicode = 0032;
},
